<?xml version="1.0" encoding="UTF-8" standalone="no"?>
<svg
   xmlns:dc="http://purl.org/dc/elements/1.1/"
   xmlns:cc="http://creativecommons.org/ns#"
   xmlns:rdf="http://www.w3.org/1999/02/22-rdf-syntax-ns#"
   xmlns:svg="http://www.w3.org/2000/svg"
   xmlns="http://www.w3.org/2000/svg"
   viewBox="0 0 1116.76 503.51999"
   height="503.51999"
   width="1116.76"
   xml:space="preserve"
   id="svg2"
   version="1.1"><metadata
     id="metadata8"><rdf:RDF><cc:Work
         rdf:about=""><dc:format>image/svg+xml</dc:format><dc:type
           rdf:resource="http://purl.org/dc/dcmitype/StillImage" /></cc:Work></rdf:RDF></metadata><defs
     id="defs6" /><g
     transform="matrix(1.3333333,0,0,-1.3333333,0,503.52)"
     id="g10"><g
       transform="scale(0.1)"
       id="g12"><path
         id="path14"
         style="fill:#231f20;fill-opacity:1;fill-rule:nonzero;stroke:none"
         d="m 6010.52,1878.31 h -103.56 l 396.01,-617.13 h 103.58 l -396.03,617.13" /><path
         id="path16"
         style="fill:#ee293d;fill-opacity:1;fill-rule:nonzero;stroke:none"
         d="m 5906.96,1878.31 396.01,-617.13 H 5037.66 l 396.07,617.13 h 473.23" /><path
         id="path18"
         style="fill:#fddd04;fill-opacity:1;fill-rule:nonzero;stroke:none"
         d="M 6075.33,2878.85 5399.59,1825.5 h 0.24 l 33.9,52.81 h 473.23 103.56 l 396.03,-617.13 h 706.98 l -1038.2,1617.67" /><path
         id="path20"
         style="fill:#ffffff;fill-opacity:1;fill-rule:nonzero;stroke:none"
         d="m 6980.57,953.871 c 0,12.211 14.42,20.109 36.97,20.109 21.45,0 43.26,-6.109 79.87,-21.91 v 47.762 c -31.81,13.278 -57.32,19.018 -85.41,19.018 -58.42,0 -96.14,-27.998 -96.14,-70.37 0,-87.96 128.31,-73.23 128.31,-113.46 0,-14.348 -12.95,-22.622 -36.99,-22.622 -27.72,0 -49.91,8.274 -86.14,31.614 v -52.793 c 25.15,-12.571 46.95,-23.699 90.96,-23.699 56.19,0 96.86,27.3 96.86,74.332 0,85.457 -128.29,75.039 -128.29,112.019 z M 6668.4,865.898 6533.83,1015.62 h -57.67 V 770.762 h 62.85 V 927.66 l 139.37,-156.898 h 52.88 v 244.858 h -62.86 z m -443.04,27.293 c 0,44.879 -31.8,74.68 -79.5,74.68 -48.06,0 -79.85,-29.801 -79.85,-74.68 0,-44.882 31.79,-74.671 79.85,-74.671 47.7,0 79.5,29.789 79.5,74.671 z m 64.69,0 c 0,-62.839 -53.6,-125.671 -144.19,-125.671 -92.43,0 -144.56,63.21 -144.56,125.671 0,59.239 49.54,125.659 144.56,125.659 95.02,0 144.19,-66.78 144.19,-125.659 z M 5747.69,770.762 h 62.85 v 244.858 h -62.85 z m -437.12,199.976 h 91.33 V 770.762 h 62.85 v 199.976 h 91.31 v 44.882 h -245.49 z m -228.88,-108.777 -40.67,95.141 -36.97,-95.141 z m -5.17,153.659 112.03,-244.858 h -67.67 l -20.7,48.468 h -112.76 l -18.86,-48.468 h -66.55 l 101.68,244.858 z M 4555.84,893.559 c 0,43.429 37.71,74.312 91.32,74.312 31.06,0 59.15,-10.062 86.89,-25.121 v 54.559 c -24.78,14.361 -56.2,21.541 -91.32,21.541 -96.5,0 -151.59,-61.041 -151.59,-126.381 0,-63.188 48.81,-124.949 146.79,-124.949 37.33,0 63.95,6.832 99.08,24.421 v 53.5 c -36.24,-16.871 -58.42,-26.921 -91.33,-26.921 -52.5,0 -89.84,31.23 -89.84,75.039 z M 4220.51,770.762 h 62.85 v 244.858 h -62.85 z m -300.7,95.136 -134.58,149.722 h -57.67 V 770.762 h 62.85 V 927.66 L 3929.8,770.762 h 52.87 v 244.858 h -62.86 z m -485.94,13.293 c 0,-43.8 -30.68,-60.671 -63.96,-60.671 -36.23,0 -62.48,21.171 -62.48,56.359 v 140.741 h -62.85 V 876.309 c 0,-75.75 52.87,-108.789 126.07,-108.789 69.14,0 126.07,28.011 126.07,109.16 v 138.94 h -62.85 z m -553.88,45.598 -80.98,90.831 H 2744.3 V 770.762 h 62.85 v 152.937 l 68.03,-76.82 h 9.61 l 68.03,76.82 V 770.762 h 62.85 v 244.858 h -54.72 z m -517.29,0 -80.97,90.831 h -54.72 V 770.762 h 62.85 v 152.937 l 68.04,-76.82 h 9.61 l 68.03,76.82 V 770.762 h 62.85 v 244.858 h -54.72 z m -417.54,-31.598 c 0,44.879 -31.8,74.68 -79.5,74.68 -48.06,0 -79.85,-29.801 -79.85,-74.68 0,-44.882 31.79,-74.671 79.85,-74.671 47.7,0 79.5,29.789 79.5,74.671 z m 64.7,0 c 0,-62.839 -53.61,-125.671 -144.2,-125.671 -92.42,0 -144.55,63.21 -144.55,125.671 0,59.239 49.54,125.659 144.55,125.659 95.02,0 144.2,-66.78 144.2,-125.659 z m -688.17,0.368 c 0,43.429 37.71,74.312 91.32,74.312 31.06,0 59.16,-10.062 86.89,-25.121 v 54.559 c -24.77,14.361 -56.2,21.541 -91.33,21.541 -96.49,0 -151.58,-61.041 -151.58,-126.381 0,-63.188 48.8,-124.949 146.78,-124.949 37.34,0 63.96,6.832 99.09,24.421 v 53.5 c -36.24,-16.871 -58.42,-26.921 -91.33,-26.921 -52.5,0 -89.84,31.23 -89.84,75.039 z M 5142.82,2434.5 c 4.28,4.3 6.25,10.21 6.25,16.12 0,7.16 -2.68,13.06 -8.58,17 -5.36,3.76 -10.54,3.94 -16.97,3.94 h -30.56 v -43.86 h 28.76 c 8.23,0 15.02,0.54 21.1,6.8 z m -1.25,-15.57 24.12,-56.93 h -16.09 l -22.68,53.17 h -33.96 V 2362 h -15.37 v 122.81 h 45.93 c 10,0 19.66,-1.25 27.87,-7.52 8.22,-6.26 13.05,-16.47 13.05,-26.85 0,-14.5 -8.58,-27.57 -22.87,-31.51 z m 70.2,4 c 0,52.56 -42.6,95.16 -95.15,95.16 -52.56,0 -95.17,-42.6 -95.17,-95.16 0,-52.56 42.61,-95.16 95.17,-95.16 52.55,0 95.15,42.6 95.15,95.16 z m 9.62,0 c 0,-57.86 -46.91,-104.77 -104.77,-104.77 -57.86,0 -104.78,46.91 -104.78,104.77 0,57.86 46.92,104.77 104.78,104.77 57.86,0 104.77,-46.91 104.77,-104.77 z m -672.11,-347.19 c -38.44,16.66 -85.1,39.4 -85.1,90.07 0,53.48 50.63,79.93 106.65,79.93 h 298.68 c 2.08,0 3.78,1.77 3.78,3.94 l -0.19,272.46 c 0,1.89 -1.96,2.82 -3.77,2.82 h -313.58 c -261.75,0 -415.78,-155.37 -415.78,-372.66 0,-189.15 121.32,-282.32 296.21,-351.27 122.8,-48.41 202.51,-70.93 202.51,-170.01 0,-52.91 -31.24,-101.32 -95.87,-101.32 0,0 -374.47,0 -377.54,0 -3.09,0 -3.27,-2.72 -3.27,-2.72 0,1.98 0,-260.7 0,-262.68 0,-3.96 4.8,-3.83 2.83,-3.83 -1.98,0 378.83,0 378.83,0 48.07,1.38 96.85,9.09 142.41,23.78 174.49,56.3 268.2,228.56 268.2,377.17 0,236.95 -184.19,318.62 -405,414.32 z m -2488.33,-30.1 c 0,1.57 -1.07,2.13 -2.19,0.39 l -224.4,-361.27 c -1.12,-1.74 -0.23,-2.82 0.86,-2.82 h 214.27 c 1.16,0 1.78,1.29 1.78,2.52 z m 273.62,-785.17 H 2053.8 c -2.16,0 -2.69,2.84 -2.69,5.14 v 168.02 c 0,2.37 -2.08,4 -4.31,4 h -343.62 c -2.99,0 -5.27,-0.82 -6.97,-3.44 l -109.49,-170.57 c -1.64,-2.56 -3.94,-3.15 -6.86,-3.15 h -328.53 c -1.56,0 -2.04,2.7 -1.15,4.05 l 806.25,1250.43 c 2.08,3.24 4.45,5.11 8.15,5.11 h 268.91 c 2.53,0 4.3,-2.46 4.3,-5.14 V 1265.04 c 0,-2.23 -1.12,-4.57 -3.22,-4.57 z m 890.28,618.94 c -3.66,5.84 -3.19,12.13 0.44,17.99 l 382.4,618.16 c 0.95,1.56 0.24,4.5 -1.53,4.5 h -322.6 c -3.4,0 -5.77,-1.48 -7.61,-4.52 l -215.32,-352.7 c -2.48,-4.08 -5.09,-4.11 -7.39,-0.21 l -208.99,352.61 c -1.76,2.98 -3.86,4.82 -7.16,4.82 h -345.77 c -2.12,0 -3.41,-3.32 -2.28,-5.22 l 345.9,-581.71 c 4.08,-6.89 4.41,-14.02 0.26,-20.86 L 2441.3,1265 c -1.97,-3.25 -1.41,-4.53 2.63,-4.53 h 335.52 c 3.9,0 6.79,1.48 8.83,5 l 217.62,376.38 c 2.27,3.93 4.58,4.37 7.1,0.25 l 230.63,-377.12 c 1.85,-3.01 4.21,-4.51 7.62,-4.51 h 357.61 c 2.1,0 3.56,2.05 1.36,5.55 z m 769.91,636.76 V 1264.36 c 0,-2.15 -1.64,-3.89 -3.67,-3.89 h -288.97 c -2.02,0 -3.66,1.74 -3.66,3.89 v 1251.81 c 0,2.15 1.64,3.89 3.66,3.89 h 288.97 c 2.03,0 3.67,-1.74 3.67,-3.89" /></g></g></svg>