<?xml version="1.0" encoding="UTF-8" standalone="no"?>
<svg
   xmlns:dc="http://purl.org/dc/elements/1.1/"
   xmlns:cc="http://creativecommons.org/ns#"
   xmlns:rdf="http://www.w3.org/1999/02/22-rdf-syntax-ns#"
   xmlns:svg="http://www.w3.org/2000/svg"
   xmlns="http://www.w3.org/2000/svg"
   viewBox="0 0 558.12 105.72"
   height="105.72"
   width="558.12"
   xml:space="preserve"
   id="svg2"
   version="1.1"><metadata
     id="metadata8"><rdf:RDF><cc:Work
         rdf:about=""><dc:format>image/svg+xml</dc:format><dc:type
           rdf:resource="http://purl.org/dc/dcmitype/StillImage" /></cc:Work></rdf:RDF></metadata><defs
     id="defs6" /><g
     transform="matrix(1.3333333,0,0,-1.3333333,0,105.72)"
     id="g10"><g
       transform="scale(0.1)"
       id="g12"><path
         id="path14"
         style="fill:#ffffff;fill-opacity:1;fill-rule:nonzero;stroke:none"
         d="M 191.055,0 C 128.621,0 81.1914,12.4609 48.7109,37.3945 16.2305,62.3438 0,98.9766 0,147.285 v 141.641 h 312.48 v -55.047 c 0,-19.453 2.969,-33.574 8.946,-42.356 5.937,-8.789 15.527,-13.171 28.703,-13.171 13.484,0 23.289,4.695 29.402,14.109 6.121,9.402 9.168,24.949 9.168,46.594 0,24.472 -2.886,41.57 -8.699,51.297 -5.789,9.718 -20.32,19.289 -43.535,28.703 l -211.77,85.652 C 76.0859,424.465 43.125,445.801 25.8906,468.711 8.61328,491.609 0,522.969 0,562.82 v 83.774 c 0,47.988 16.2305,84.383 48.7109,109.179 32.4805,24.774 79.9101,37.168 142.3441,37.168 h 315.312 c 62.434,0 109.785,-12.394 142.102,-37.168 32.312,-24.796 48.484,-61.191 48.484,-109.179 V 553.887 H 386.824 v 9.875 c 0,17.254 -3.367,30.359 -10.113,39.297 -6.75,8.953 -16.543,13.418 -29.406,13.418 -10.996,0 -19.844,-3.457 -26.59,-10.364 -6.75,-6.894 -10.117,-16.152 -10.117,-27.761 0,-11.301 3.047,-20.461 9.179,-27.539 6.102,-7.051 21.407,-15.61 45.875,-25.649 L 612.246,421.172 c 31.375,-13.496 53.328,-32.395 65.891,-56.699 12.547,-24.325 18.816,-61.114 18.816,-110.352 V 167.52 c 0,-57.411 -15.461,-99.6762 -46.348,-126.8169 C 619.688,13.5547 571.613,0 506.367,0 H 191.055" /><path
         id="path16"
         style="fill:#ffffff;fill-opacity:1;fill-rule:nonzero;stroke:none"
         d="M 762.844,5.63672 V 788.234 H 1256.01 V 609.871 H 1068.26 V 524.23 h 187.75 V 345.879 H 1068.26 V 183.984 h 187.75 V 5.63672 H 762.844" /><path
         id="path18"
         style="fill:#ffffff;fill-opacity:1;fill-rule:nonzero;stroke:none"
         d="M 2018.39,324.695 V 168.457 c 0,-59.922 -15,-102.9765 -44.95,-129.1797 C 1943.49,13.0859 1893.99,0 1824.97,0 H 1505.9 c -64.31,0 -111.37,13.5547 -141.16,40.7031 -29.82,27.1407 -44.72,69.7069 -44.72,127.7539 v 437.656 c 0,68.391 13.89,116.641 41.65,144.719 27.76,28.066 75.84,42.109 144.23,42.109 h 319.07 c 72.78,0 123.22,-13.8 151.31,-41.418 28.07,-27.597 42.11,-76.074 42.11,-145.41 V 503.059 H 1708.26 V 560 c 0,20.391 -3.05,34.895 -9.19,43.535 -6.09,8.613 -16.21,12.942 -30.34,12.942 -13.49,0 -23.29,-4.465 -29.4,-13.418 -6.13,-8.938 -9.17,-23.301 -9.17,-43.059 V 233.879 c 0,-19.777 3.04,-34.121 9.17,-43.066 6.11,-8.938 15.91,-13.418 29.4,-13.418 13.5,0 23.45,4.558 29.89,13.66 6.43,9.101 9.64,23.371 9.64,42.824 v 90.816 h 310.13" /><path
         id="path20"
         style="fill:#ffffff;fill-opacity:1;fill-rule:nonzero;stroke:none"
         d="M 2215.1,5.63672 V 609.871 h -157.18 v 178.363 h 617.89 V 609.871 H 2518.62 V 5.63672 H 2215.1" /><path
         id="path22"
         style="fill:#ffffff;fill-opacity:1;fill-rule:nonzero;stroke:none"
         d="M 3026.89,609.871 V 499.297 h 33.87 c 16,0 27.38,4.082 34.11,12.226 6.74,8.157 10.12,22.278 10.12,42.364 0,21.008 -3.3,35.597 -9.88,43.75 -6.58,8.164 -18.05,12.234 -34.35,12.234 z M 3104.99,5.63672 V 272.473 c 0,20.703 -3.3,35.215 -9.88,43.535 -6.58,8.301 -18.05,12.461 -34.35,12.461 h -33.87 V 5.63672 H 2721.46 V 788.234 h 495.05 c 70.92,0 121.58,-14.433 152.03,-43.293 30.43,-28.855 45.64,-76.394 45.64,-142.586 0,-52.714 -9.74,-92.792 -29.18,-120.238 -19.45,-27.449 -51.77,-46.812 -96.94,-58.113 45.17,-10.676 77.65,-32.781 97.41,-66.367 19.77,-33.567 29.65,-83.77 29.65,-150.586 V 5.63672 h -310.13" /><path
         id="path24"
         style="fill:#ffffff;fill-opacity:1;fill-rule:nonzero;stroke:none"
         d="m 3776.05,347.766 h 64.49 L 3809,613.652 Z M 3432.06,5.63672 3569.94,788.234 h 478.12 L 4185.95,5.63672 H 3869.71 L 3852.3,175.059 h -87.52 L 3747.35,5.63672 h -315.29" /></g></g></svg>