<?xml version="1.0" encoding="UTF-8" standalone="no"?>
<svg
   xmlns:dc="http://purl.org/dc/elements/1.1/"
   xmlns:cc="http://creativecommons.org/ns#"
   xmlns:rdf="http://www.w3.org/1999/02/22-rdf-syntax-ns#"
   xmlns:svg="http://www.w3.org/2000/svg"
   xmlns="http://www.w3.org/2000/svg"
   viewBox="0 0 476.22668 191.32001"
   height="191.32001"
   width="476.22668"
   xml:space="preserve"
   id="svg2"
   version="1.1"><metadata
     id="metadata8"><rdf:RDF><cc:Work
         rdf:about=""><dc:format>image/svg+xml</dc:format><dc:type
           rdf:resource="http://purl.org/dc/dcmitype/StillImage" /></cc:Work></rdf:RDF></metadata><defs
     id="defs6" /><g
     transform="matrix(1.3333333,0,0,-1.3333333,0,191.32)"
     id="g10"><g
       transform="scale(0.1)"
       id="g12"><path
         id="path14"
         style="fill:#ffffff;fill-opacity:1;fill-rule:nonzero;stroke:none"
         d="m 669.672,1380.52 c 8.156,-4 18.308,-8.7 24.914,-15.47 0,-194.17 0,-413.214 0,-413.214 -8.758,7.383 -12.141,11.48 -15.379,14.152 -62.141,72.162 -147.039,148.282 -251.031,113.292 -26.278,-11.53 -48.426,-37.84 -48.426,-66.14 -4.793,-37.671 25.531,-69.355 54.578,-92.277 71.543,-55.297 151.055,-105.203 209.809,-174.57 34.308,-37.168 57.996,-84.297 78.136,-130.125 4,-7.383 8.774,-21.621 8.774,-21.621 l 99.199,818.443 H 1298.9 l 111.98,-634.396 128.11,634.396 h 464.02 L 2148.68,27.7617 H 1750.01 L 1699.44,779.977 1549.14,27.7617 H 1263.83 L 1122.17,745.598 1070.34,27.7617 H 667.68 c 0,0 11.527,107.7583 24.914,217.6873 L 673.668,205.66 C 573.238,50.5195 397.281,-19.6094 211.773,4.71875 144.34,17.0313 76.9102,28.3711 16.9258,57.9102 c -2.0938,1.539 -4.082,4.1992 -4.082,4.1992 V 479.957 l 2.6718,-2.668 C 33.7617,461.129 45.9023,444.273 62.7617,431.441 128.801,368.762 221.941,315.578 314.973,358.66 c 25.566,14.762 41.836,42.469 43.859,72.781 1.359,70.75 -74.137,113.973 -122.125,155.039 C 94.4453,682.836 -13.4688,836.578 1.36328,1003.77 8.74609,1166.18 106.57,1352.9 280.555,1411.59 c 123.496,43.75 276.527,21.53 389.117,-31.07 v 0" /><path
         id="path16"
         style="fill:#ffffff;fill-opacity:1;fill-rule:nonzero;stroke:none"
         d="m 2552.51,928.246 h 183.62 V 1412.99 H 3110.2 V 27.7617 H 2726.01 V 586.48 H 2553.13 V 27.7617 H 2159.45 V 1412.99 h 392.45 l 0.61,-484.744 v 0" /><path
         id="path18"
         style="fill:#ffffff;fill-opacity:1;fill-rule:nonzero;stroke:none"
         d="M 3187.1,27.7617 V 1412.99 h 384.55 V 27.7617 H 3187.1 v 0" /></g></g></svg>