<?xml version="1.0" encoding="UTF-8" standalone="no"?>
<svg
   xmlns:dc="http://purl.org/dc/elements/1.1/"
   xmlns:cc="http://creativecommons.org/ns#"
   xmlns:rdf="http://www.w3.org/1999/02/22-rdf-syntax-ns#"
   xmlns:svg="http://www.w3.org/2000/svg"
   xmlns="http://www.w3.org/2000/svg"
   viewBox="0 0 1066.6667 1066.6667"
   height="1066.6667"
   width="1066.6667"
   xml:space="preserve"
   id="svg2"
   version="1.1"><metadata
     id="metadata8"><rdf:RDF><cc:Work
         rdf:about=""><dc:format>image/svg+xml</dc:format><dc:type
           rdf:resource="http://purl.org/dc/dcmitype/StillImage" /></cc:Work></rdf:RDF></metadata><defs
     id="defs6"><clipPath
       id="clipPath22"
       clipPathUnits="userSpaceOnUse"><path
         id="path20"
         d="M 0,800 H 800 V 0 H 0 Z" /></clipPath></defs><g
     transform="matrix(1.3333333,0,0,-1.3333333,0,1066.6667)"
     id="g10"><path
       id="path12"
       style="fill:#000000;fill-opacity:1;fill-rule:nonzero;stroke:none"
       d="M 0.5,0.5 H 799.499 V 799.499 H 0.5 Z" /><path
       id="path14"
       style="fill:#000000;fill-opacity:1;fill-rule:nonzero;stroke:none"
       d="M 0,0 H 800 V 800 H 0 Z M 1,799 H 799 V 1 H 1 Z" /><g
       id="g16"><g
         clip-path="url(#clipPath22)"
         id="g18"><g
           transform="translate(330.647,373.5039)"
           id="g24"><path
             id="path26"
             style="fill:#ffffff;fill-opacity:1;fill-rule:nonzero;stroke:none"
             d="m 0,0 v 8.665 h -26.353 v 12.246 h 21.34 v 8.665 h -21.34 V 41.32 H 0 v 8.807 H -36.378 V 0 Z M 13.176,52.992 4.082,50.127 V 0 h 9.094 z M 53.78,10.741 H 43.682 c -1.503,-2.22 -4.081,-3.294 -6.874,-3.294 -4.87,0 -8.88,3.008 -10.098,7.52 h 27.571 c 0,0.501 0.071,0.929 0.071,1.36 0,13.749 -9.739,20.338 -18.619,20.338 -10.24,0 -18.546,-7.878 -18.546,-18.69 0,-10.744 8.736,-18.62 19.477,-18.62 7.949,0 14.394,4.511 17.116,11.386 M 35.733,28.645 c 4.225,0 7.949,-2.937 8.737,-7.163 H 26.781 c 1.218,4.369 4.728,7.163 8.952,7.163 M 76.05,7.447 c -5.371,0 -9.667,4.226 -9.667,10.24 0,6.159 4.296,10.313 9.667,10.313 4.01,0 7.376,-2.435 8.808,-6.302 h 9.238 C 92.377,30.363 84.93,36.45 76.05,36.45 c -10.312,0 -18.69,-7.805 -18.69,-18.619 0,-10.742 8.378,-18.547 18.69,-18.547 8.88,0 16.327,5.8 18.046,14.465 H 84.858 C 83.426,9.882 80.06,7.447 76.05,7.447 m 20.909,1.79 C 96.959,3.724 100.828,0 107.416,0 h 8.88 v 7.949 h -6.302 c -2.793,0 -4.082,1.288 -4.082,3.653 v 16.111 h 10.384 v 8.021 h -10.384 v 10.455 l -8.953,-2.864 z m 43.469,18.476 v 8.665 c -5.512,0.645 -9.452,-2.434 -11.6,-7.089 v 6.445 h -9.095 V 0 h 9.095 v 18.905 c 0,4.869 4.297,9.953 11.6,8.808 m 19.193,8.737 c -10.455,0 -18.906,-7.805 -18.906,-18.619 0,-10.742 8.451,-18.547 18.906,-18.547 10.456,0 18.906,7.805 18.906,18.547 0,10.814 -8.45,18.619 -18.906,18.619 m 0,-29.003 c -5.514,0 -9.882,4.226 -9.882,10.24 0,6.159 4.368,10.313 9.882,10.313 5.514,0 9.882,-4.154 9.882,-10.313 0,-6.014 -4.368,-10.24 -9.882,-10.24 m 32.01,28.287 h -9.094 V 0 h 9.094 v 21.627 c 0,4.153 3.223,7.447 7.448,7.447 4.369,0 7.448,-3.151 7.448,-7.805 V 0 h 9.094 v 21.984 c 0,8.379 -4.797,14.538 -13.32,14.538 -4.584,0 -8.521,-2.006 -10.67,-5.228 z m 33.515,4.439 c 3.222,0 5.871,2.65 5.871,5.873 0,3.223 -2.649,5.872 -5.871,5.872 -3.152,0 -5.802,-2.649 -5.802,-5.872 0,-3.223 2.65,-5.873 5.802,-5.873 m 4.582,-4.368 h -9.095 V 0 h 9.095 z m 22.7,-28.358 c -5.37,0 -9.667,4.226 -9.667,10.24 0,6.159 4.297,10.313 9.667,10.313 4.011,0 7.376,-2.435 8.81,-6.302 h 9.236 c -1.718,8.665 -9.165,14.752 -18.046,14.752 -10.311,0 -18.69,-7.805 -18.69,-18.619 0,-10.742 8.379,-18.547 18.69,-18.547 8.881,0 16.328,5.8 18.046,14.465 h -9.236 c -1.434,-3.867 -4.799,-6.302 -8.81,-6.302 M 311.65,53.708 285.154,0 h 10.311 l 4.942,10.67 h 22.057 L 327.548,0 h 10.599 z m -7.662,-35.232 7.304,15.826 7.52,-15.826 z m 57.003,9.237 v 8.665 c -5.515,0.645 -9.452,-2.434 -11.602,-7.089 v 6.445 h -9.094 V 0 h 9.094 v 18.905 c 0,4.869 4.297,9.953 11.602,8.808 M 364.07,9.237 C 364.07,3.724 367.937,0 374.524,0 h 8.881 v 7.949 h -6.302 c -2.793,0 -4.082,1.288 -4.082,3.653 v 16.111 h 10.384 v 8.021 h -10.384 v 10.455 l -8.951,-2.864 z m 21.627,16.4 c 0,-13.106 20.839,-9.596 20.839,-15.898 0,-2.148 -2.292,-3.581 -5.372,-3.581 -4.296,0 -7.519,2.507 -8.021,6.302 h -8.234 c 0.788,-7.662 7.376,-13.105 16.255,-13.105 7.949,0 14.251,4.369 14.251,11.244 0,12.818 -20.911,9.38 -20.911,15.825 0,2.149 2.149,3.366 4.512,3.366 4.01,0 7.089,-2.435 7.591,-6.229 h 8.235 c -0.788,7.662 -7.161,13.033 -15.683,13.033 -7.59,0 -13.462,-4.083 -13.462,-10.957" /></g><path
           id="path28"
           style="fill:#ffffff;fill-opacity:1;fill-rule:nonzero;stroke:none"
           d="m 114.046,423.607 h 10.015 v -50.089 h -10.015 z" /><g
           transform="translate(94.0093,383.5371)"
           id="g30"><path
             id="path32"
             style="fill:#ffffff;fill-opacity:1;fill-rule:nonzero;stroke:none"
             d="M 0,0 -40.071,0.003 V -10.019 H 10.016 V 40.07 H -40.071 V 30.053 H 0 Z" /></g><g
           transform="translate(144.0962,413.5903)"
           id="g34"><path
             id="path36"
             style="fill:#ffffff;fill-opacity:1;fill-rule:nonzero;stroke:none"
             d="m 0,0 h 40.072 v 10.017 h -50.09 v -50.089 h 50.09 V -30.05 L 0,-30.053 Z" /></g><path
           id="path38"
           style="fill:#ffffff;fill-opacity:1;fill-rule:nonzero;stroke:none"
           d="m 244.271,423.607 h -50.086 v -10.016 h 50.086 z" /><path
           id="path40"
           style="fill:#ffffff;fill-opacity:1;fill-rule:nonzero;stroke:none"
           d="m 244.271,403.571 h -50.086 v -10.016 h 50.086 z" /><path
           id="path42"
           style="fill:#ffffff;fill-opacity:1;fill-rule:nonzero;stroke:none"
           d="m 244.271,383.537 h -50.086 v -10.019 h 50.086 z" /><g
           transform="translate(249.2827,423.6074)"
           id="g44"><path
             id="path46"
             style="fill:#ffffff;fill-opacity:1;fill-rule:nonzero;stroke:none"
             d="M 0,0 H 4.045 V -0.751 H 2.458 V -5.009 H 1.58 v 4.258 H 0 Z" /></g><g
           transform="translate(253.897,423.6074)"
           id="g48"><path
             id="path50"
             style="fill:#ffffff;fill-opacity:1;fill-rule:nonzero;stroke:none"
             d="M 0,0 H 1.233 L 2.612,-3.919 H 2.633 L 3.974,0 H 5.188 V -5.009 H 4.362 v 3.87 H 4.343 L 2.954,-5.009 H 2.239 l -1.391,3.87 H 0.833 v -3.87 H 0 Z" /></g></g></g></g></svg>