<?xml version="1.0" encoding="UTF-8" standalone="no"?>
<!-- Created with Inkscape (http://www.inkscape.org/) -->

<svg
   width="210mm"
   height="297mm"
   viewBox="0 0 210 297"
   version="1.1"
   id="svg5"
   xmlns="http://www.w3.org/2000/svg"
   xmlns:svg="http://www.w3.org/2000/svg">
  <defs
     id="defs2">
    <clipPath
       clipPathUnits="userSpaceOnUse"
       id="clipPath844">
      <path
         d="M 0,609.45 H 1417.32 V 0 H 0 Z"
         id="path842" />
    </clipPath>
    <clipPath
       clipPathUnits="userSpaceOnUse"
       id="clipPath1204">
      <path
         d="M 0,609.45 H 1417.32 V 0 H 0 Z"
         id="path1202" />
    </clipPath>
  </defs>
  <g
     id="layer1">
    <g
       id="g1190"
       transform="matrix(0.10685033,0,0,-0.10685033,32.295438,73.974305)">
      <path
         d="M 0,0 H 1417.32 V 609.45 H 0 Z"
         style="fill:#231f20;fill-opacity:1;fill-rule:nonzero;stroke:none"
         id="path1192" />
      <g
         id="g1194"
         transform="translate(62.2008,595.2688)">
        <path
           d="M 0,0 H -45.643 V -237.458 H 7.937 V 0 Z"
           style="fill:#ffffff;fill-opacity:1;fill-rule:nonzero;stroke:none"
           id="path1196" />
      </g>
      <g
         id="g1198">
        <g
           id="g1200"
           clip-path="url(#clipPath1204)">
          <g
             id="g1206"
             transform="translate(296.8732,569.003)">
            <path
               d="m 0,0 c -14.19,18.876 -36.681,30.266 -61.445,30.266 -17.399,0 -33.47,-6.401 -46.288,-17.856 v 11.731 h -53.587 v -237.465 h 53.587 v 122.505 c 0,49.295 12.29,70.333 41.095,70.333 22.2,0 31.671,-17.652 31.671,-59.016 v -133.822 h 53.588 v 125.338 c 0,47.306 12.009,67.5 40.159,67.5 27.411,0 32.611,-19.757 32.611,-56.191 v -136.647 h 53.588 v 142.779 c 0,83.318 -42.777,100.811 -78.661,100.811 C 38.928,30.266 15.042,19.102 0,0"
               style="fill:#ffffff;fill-opacity:1;fill-rule:nonzero;stroke:none"
               id="path1208" />
          </g>
          <g
             id="g1210"
             transform="translate(669.9326,593.1368)">
            <path
               d="m 0,0 v -20.66 c -19.055,17.113 -43.283,26.792 -68.921,26.792 -66.339,0 -114.483,-52.71 -114.483,-125.338 0,-70.909 49.01,-124.384 114.013,-124.384 27.28,0 50.493,8.775 69.391,25.831 v -19.699 H 53.581 V 0 Z m -64.206,-192.839 c -44.43,0 -64.671,39.646 -64.671,76.465 0,34.774 22.499,71.747 64.202,71.747 45.981,0 66.561,-36.273 66.561,-72.219 0,-37.825 -20.438,-75.993 -66.092,-75.993"
               style="fill:#ffffff;fill-opacity:1;fill-rule:nonzero;stroke:none"
               id="path1212" />
          </g>
          <g
             id="g1214"
             transform="translate(875.6098,232.1609)">
            <path
               d="m 0,0 c 0.612,-0.007 1.238,-0.007 1.849,-0.007 37.447,0 70.997,15.373 92.051,42.166 24.323,31.416 24.323,64.806 24.323,100.133 V 360.983 H 64.638 v -20.18 c -18.504,17.005 -42.15,26.305 -68.447,26.305 -65.535,0 -114.96,-54.08 -114.96,-125.805 0,-70.639 48.814,-123.91 113.54,-123.91 26.056,0 50.977,9.576 69.867,26.049 v -7.748 c 0,-59.541 -18.919,-84.942 -63.255,-84.942 -0.466,0 -0.924,0 -1.383,0.007 z m 0.437,168.152 c -44.437,0 -64.683,39.63 -64.683,76.458 0,34.781 22.51,71.739 64.217,71.739 45.981,0 66.547,-36.267 66.547,-72.213 0,-37.824 -20.428,-75.984 -66.081,-75.984"
               style="fill:#ffffff;fill-opacity:1;fill-rule:nonzero;stroke:none"
               id="path1216" />
          </g>
          <g
             id="g1218"
             transform="translate(1208.3599,449.0038)">
            <path
               d="m 0,0 -3.896,-7.05 c -15.731,-28.408 -34.949,-41.64 -60.488,-41.64 -34.387,0 -60.262,24.017 -64.144,58.149 H 44.473 l 0.423,7.479 c 0.182,3.139 0.277,6.249 0.277,9.344 0,35.742 -11.842,68.542 -33.136,91.088 -20.332,21.521 -48.063,32.895 -80.194,32.895 -35.246,0 -64.93,-13.188 -85.816,-38.138 -19.094,-22.801 -29.61,-54.604 -29.61,-89.544 0,-70.713 48.938,-122.032 116.373,-122.032 47.54,0 86.356,23.595 109.295,66.423 l 3.641,6.787 z m -67.683,99.514 c 24.87,0 47.023,-17.579 54.91,-42.122 h -112.208 c 7.894,23.894 31.766,42.122 57.298,42.122"
               style="fill:#ffffff;fill-opacity:1;fill-rule:nonzero;stroke:none"
               id="path1220" />
          </g>
          <g
             id="g1222"
             transform="translate(49.0493,272.2248)">
            <path
               d="m 0,0 c -2.607,2.178 -5.943,3.626 -9.424,3.626 -2.61,0 -6.091,-1.522 -6.091,-4.573 0,-3.19 3.838,-4.421 6.306,-5.222 l 3.624,-1.085 c 7.616,-2.243 13.497,-6.095 13.497,-14.943 0,-5.44 -1.311,-11.026 -5.658,-14.725 -4.282,-3.62 -10.007,-5.149 -15.526,-5.149 -6.889,0 -13.633,2.323 -19.219,6.241 l 6.095,11.463 c 3.547,-3.117 7.753,-5.666 12.617,-5.666 3.332,0 6.89,1.675 6.89,5.513 0,3.99 -5.586,5.374 -8.626,6.241 -8.929,2.534 -14.805,4.858 -14.805,15.453 0,11.098 7.912,18.344 18.861,18.344 5.516,0 12.26,-1.74 17.121,-4.493 z"
               style="fill:#ffffff;fill-opacity:1;fill-rule:nonzero;stroke:none"
               id="path1224" />
          </g>
          <g
             id="g1226"
             transform="translate(694.2208,12.6279)">
            <path
               d="m 0,0 h 19.281 l 7.923,20.07 H 66.958 L 74.583,0 h 19.27 L 56.385,97.439 H 37.574 Z M 60.091,38.153 H 34.02 L 47.092,71.609 Z M 121.831,0 h 18.542 V 63.918 L 182.007,0 h 17.848 V 97.439 H 181.307 V 33.325 L 139.615,97.439 H 121.831 Z M 227.82,0 h 19.269 l 7.931,20.07 h 39.762 L 302.407,0 h 19.269 l -37.468,97.439 h -18.81 z m 60.095,38.153 h -26.072 l 13.073,33.456 z M 349.583,0 h 45.573 v 17.689 h -27.025 v 79.75 h -18.548 z m 94.969,42.194 V 0 h 18.68 v 42.194 l 28.51,55.245 h -19.654 l -18.09,-35.05 -18.185,35.05 h -19.91 z M 557.35,96.507 c -4.399,2.25 -9.03,3.379 -13.895,3.379 -7.559,0 -13.909,-2.418 -19.058,-7.246 -5.149,-4.843 -7.727,-10.64 -7.727,-17.391 0,-4.682 1.544,-9.379 4.64,-14.076 3.102,-4.705 9.954,-11.383 20.572,-20.035 5.578,-4.551 9.176,-7.93 10.815,-10.136 1.638,-2.207 2.454,-4.413 2.454,-6.62 0,-2.432 -1.078,-4.573 -3.248,-6.43 -2.17,-1.858 -4.843,-2.783 -8.026,-2.783 -6.109,0 -11.505,4.305 -16.195,12.919 l -15.585,-9.401 c 3.67,-7.29 8.084,-12.635 13.232,-16.036 5.149,-3.401 11.193,-5.098 18.141,-5.098 8.877,0 16.079,2.607 21.607,7.815 5.527,5.214 8.294,11.811 8.294,19.8 0,4.115 -0.793,7.902 -2.359,11.361 -1.573,3.466 -4.238,7.1 -7.996,10.902 -1.5,1.543 -5.797,5.272 -12.868,11.193 -7.567,6.401 -12.104,10.574 -13.604,12.511 -1.114,1.464 -1.66,3.008 -1.66,4.639 0,1.639 0.779,3.102 2.323,4.413 1.543,1.296 3.539,1.952 5.972,1.952 4.995,0 9.904,-3.357 14.732,-10.072 l 13.735,12.118 c -5.135,5.972 -9.897,10.072 -14.296,12.322 M 603.295,0 h 18.41 v 97.439 h -18.41 z m 89.683,96.507 c -4.399,2.25 -9.03,3.379 -13.895,3.379 -7.559,0 -13.916,-2.418 -19.065,-7.246 -5.149,-4.843 -7.72,-10.64 -7.72,-17.391 0,-4.682 1.544,-9.379 4.632,-14.076 3.102,-4.705 9.962,-11.383 20.58,-20.035 5.571,-4.551 9.176,-7.93 10.807,-10.136 1.639,-2.207 2.462,-4.413 2.462,-6.62 0,-2.432 -1.085,-4.573 -3.256,-6.43 -2.162,-1.858 -4.842,-2.783 -8.024,-2.783 -6.111,0 -11.499,4.305 -16.189,12.919 l -15.585,-9.401 c 3.67,-7.29 8.076,-12.635 13.225,-16.036 5.149,-3.401 11.2,-5.098 18.141,-5.098 8.877,0 16.086,2.607 21.606,7.815 5.527,5.214 8.295,11.811 8.295,19.8 0,4.115 -0.794,7.902 -2.352,11.361 -1.573,3.466 -4.238,7.1 -7.997,10.902 -1.507,1.543 -5.796,5.272 -12.874,11.193 -7.567,6.401 -12.104,10.574 -13.604,12.511 -1.107,1.464 -1.661,3.008 -1.661,4.639 0,1.639 0.78,3.102 2.331,4.413 1.543,1.296 3.532,1.952 5.964,1.952 5.003,0 9.911,-3.357 14.733,-10.072 l 13.734,12.118 c -5.127,5.972 -9.89,10.072 -14.288,12.322"
               style="fill:#ffffff;fill-opacity:1;fill-rule:nonzero;stroke:none"
               id="path1228" />
          </g>
          <g
             id="g1230"
             transform="translate(16.5582,12.6279)">
            <path
               d="M 0,0 H 18.082 L 28.777,61.537 49.291,0 H 65.637 L 86.34,61.537 96.787,0 H 114.72 L 98.375,97.439 H 80.314 L 57.524,29.48 34.938,97.439 H 16.87 Z M 163.575,93.033 C 155.684,88.46 149.486,82.27 144.982,74.448 c -4.511,-7.813 -6.761,-16.378 -6.761,-25.699 0,-13.902 4.839,-25.919 14.517,-36.034 9.671,-10.108 21.829,-15.162 36.452,-15.162 13.961,0 25.839,4.924 35.622,14.769 9.792,9.846 14.685,21.884 14.685,36.099 0,14.346 -4.959,26.522 -14.885,36.499 -9.919,9.977 -21.767,14.966 -35.556,14.966 -9.107,0 -17.598,-2.279 -25.481,-6.853 m 48.023,-20.929 c 6.234,-6.424 9.351,-14.274 9.351,-23.545 0,-9.321 -3.095,-17.157 -9.285,-23.522 -6.187,-6.35 -13.684,-9.539 -22.474,-9.539 -7.778,0 -14.677,2.454 -20.685,7.355 -7.734,6.27 -11.605,14.798 -11.605,25.568 0,9.671 3.073,17.638 9.216,23.908 6.146,6.271 13.723,9.409 22.739,9.409 8.932,0 16.51,-3.211 22.743,-9.634 m 49.346,7.049 h 17.285 V 0 h 18.814 V 79.153 H 314.79 V 97.439 H 260.944 Z M 339.751,0 h 18.41 v 97.439 h -18.41 z m 73.356,93.033 C 405.216,88.46 399.019,82.27 394.515,74.448 390.01,66.635 387.753,58.07 387.753,48.749 c 0,-13.902 4.839,-25.919 14.517,-36.034 9.683,-10.108 21.83,-15.162 36.452,-15.162 13.969,0 25.839,4.924 35.623,14.769 9.791,9.846 14.685,21.884 14.685,36.099 0,14.346 -4.96,26.522 -14.878,36.499 -9.919,9.977 -21.775,14.966 -35.564,14.966 -9.096,0 -17.591,-2.279 -25.481,-6.853 m 48.024,-20.929 c 6.234,-6.424 9.35,-14.274 9.35,-23.545 0,-9.321 -3.095,-17.157 -9.281,-23.522 -6.19,-6.35 -13.677,-9.539 -22.478,-9.539 -7.777,0 -14.677,2.454 -20.685,7.355 -7.734,6.27 -11.604,14.798 -11.604,25.568 0,9.671 3.073,17.638 9.215,23.908 6.147,6.271 13.724,9.409 22.747,9.409 8.925,0 16.51,-3.211 22.736,-9.634 M 520.148,0 h 18.544 V 63.918 L 580.333,0 h 17.839 V 97.439 H 579.627 V 33.325 l -41.685,64.114 h -17.794 z"
               style="fill:#ffffff;fill-opacity:1;fill-rule:nonzero;stroke:none"
               id="path1232" />
          </g>
          <g
             id="g1234"
             transform="translate(130.047,286.2943)">
            <path
               d="M 0,0 H 17.048 L 27.272,-14.871 37.505,0 H 54.549 L 34.387,-28.438 V -54.691 H 20.165 v 26.253 z"
               style="fill:#ffffff;fill-opacity:1;fill-rule:nonzero;stroke:none"
               id="path1236" />
          </g>
          <g
             id="g1238"
             transform="translate(400.106,231.6031)">
            <path
               d="M 0,0 H -14.212 V 42.646 H -25.965 V 54.691 H 11.754 V 42.646 H 0 Z"
               style="fill:#ffffff;fill-opacity:1;fill-rule:nonzero;stroke:none"
               id="path1240" />
          </g>
          <g
             id="g1242"
             transform="translate(504.6308,274.2487)">
            <path
               d="M 0,0 V -9.14 H 16.032 V -21.177 H 0 v -9.431 H 16.899 V -42.646 H -14.212 V 12.046 H 16.899 V 0 Z"
               style="fill:#ffffff;fill-opacity:1;fill-rule:nonzero;stroke:none"
               id="path1244" />
          </g>
          <g
             id="g1246"
             transform="translate(610.7304,286.2943)">
            <path
               d="M 0,0 H 14.005 L 25.099,-29.232 36.846,0 h 14.146 l 8.269,-54.691 H 45.042 l -3.991,31.474 H 40.909 L 27.779,-54.691 H 22.124 L 9.577,-23.217 H 9.435 L 4.861,-54.691 H -9.285 Z"
               style="fill:#ffffff;fill-opacity:1;fill-rule:nonzero;stroke:none"
               id="path1248" />
          </g>
          <g
             id="g1250"
             transform="translate(290.7969,272.2248)">
            <path
               d="m 0,0 c -2.611,2.178 -5.943,3.626 -9.427,3.626 -2.614,0 -6.091,-1.522 -6.091,-4.573 0,-3.19 3.841,-4.421 6.31,-5.222 l 3.623,-1.085 c 7.613,-2.243 13.49,-6.095 13.49,-14.943 0,-5.44 -1.303,-11.026 -5.658,-14.725 -4.275,-3.62 -10.01,-5.149 -15.519,-5.149 -6.893,0 -13.64,2.323 -19.218,6.241 l 6.091,11.463 c 3.551,-3.117 7.756,-5.666 12.617,-5.666 3.343,0 6.893,1.675 6.893,5.513 0,3.99 -5.585,5.374 -8.629,6.241 -8.925,2.534 -14.802,4.858 -14.802,15.453 0,11.098 7.905,18.344 18.858,18.344 5.519,0 12.259,-1.74 17.124,-4.493 z"
               style="fill:#ffffff;fill-opacity:1;fill-rule:nonzero;stroke:none"
               id="path1252" />
          </g>
          <g
             id="g1254"
             transform="translate(781.0049,272.2248)">
            <path
               d="m 0,0 c -2.611,2.178 -5.943,3.626 -9.427,3.626 -2.614,0 -6.091,-1.522 -6.091,-4.573 0,-3.19 3.841,-4.421 6.31,-5.222 l 3.623,-1.085 c 7.613,-2.243 13.49,-6.095 13.49,-14.943 0,-5.44 -1.303,-11.026 -5.658,-14.725 -4.275,-3.62 -10.01,-5.149 -15.519,-5.149 -6.893,0 -13.64,2.323 -19.218,6.241 l 6.091,11.463 c 3.551,-3.117 7.756,-5.666 12.617,-5.666 3.343,0 6.893,1.675 6.893,5.513 0,3.99 -5.585,5.374 -8.629,6.241 -8.925,2.534 -14.802,4.858 -14.802,15.453 0,11.098 7.905,18.344 18.858,18.344 5.519,0 12.259,-1.74 17.124,-4.493 z"
               style="fill:#ffffff;fill-opacity:1;fill-rule:nonzero;stroke:none"
               id="path1256" />
          </g>
          <g
             id="g1258"
             transform="translate(17.4066,172.8667)">
            <path
               d="M 0,0 H 1382.507"
               style="fill:#ffffff;fill-opacity:1;fill-rule:nonzero;stroke:#aaacb0;stroke-width:0.79;stroke-linecap:butt;stroke-linejoin:miter;stroke-miterlimit:10;stroke-dasharray:none;stroke-opacity:1"
               id="path1260" />
          </g>
        </g>
      </g>
    </g>
  </g>
</svg>
