<?xml version="1.0" encoding="utf-8"?>
<!-- Generator: Adobe Illustrator 28.0.0, SVG Export Plug-In . SVG Version: 6.00 Build 0)  -->
<svg version="1.1" id="Logo" xmlns="http://www.w3.org/2000/svg" xmlns:xlink="http://www.w3.org/1999/xlink" x="0px" y="0px"
	 viewBox="0 0 595 272.32" style="enable-background:new 0 0 595 272.32;" xml:space="preserve">
<style type="text/css">
	.st0{fill:#FFFFFF;}
</style>
<path class="st0" d="M526.77,22.03v100.43h-0.71c-12.19-14.66-33-19.96-55.24-19.96c-36.55,0-62.52,21.1-73.62,49.08
	c-6.71-31.9-27.67-49.08-77.03-49.08c-28.34,0-57.03,8.11-76.76,24.33l28.69,25.58c11.48-11.23,26.18-18.09,43.76-18.09
	c18.65,0,34.43,10.61,34.43,27.13c-33.78,0-83.63,0.54-106.17,23.21v-2.63c0-48.35-31.56-79.53-81.78-79.53
	c-46.2,0-84.44,23.01-94.33,60.13V22.03h-53.8v235.8h53.8v-56.39c9.89,37.12,48.13,60.13,94.33,60.13
	c27.92,0,56.2-10.88,73.43-29.84c8.7,19.57,32.6,29.84,58.56,29.84c21.88,0,43.4-6.55,55.24-22.77h0.72v19.03h49.5v-37.74
	c13.21,25.44,40.81,41.48,77.11,41.48c24.39,0,45.19-12.79,53.44-23.7h0.72v19.96h49.5V22.03H526.77z M157.33,136.19
	c19.37,0,33.36,13.1,33,28.69h-71.02C120.75,150.23,133.66,136.19,157.33,136.19z M198.22,207.62c-8.97,10.6-20.8,18.4-38.38,18.4
	c-20.8,0-36.23-11.54-40.53-29.32h116.57c-2.3,5.23-3.59,11.2-3.59,18.09c0,6.16,1.21,11.73,3.39,16.71L198.22,207.62z
	 M350.3,201.38c0,18.71-19.72,28.38-40.89,28.38c-11.84,0-25.47-5.3-25.47-16.53c0-20.59,36.58-21.83,53.08-21.83h13.27V201.38z
	 M488.03,220.41c-26.9,0-43.04-15.59-43.04-38.37c0-22.77,16.14-38.36,43.04-38.36c26.9,0,43.04,15.59,43.04,38.36
	C531.07,204.81,514.94,220.41,488.03,220.41z"/>
</svg>
