<?xml version="1.0" encoding="UTF-8" standalone="no"?>
<svg
   xmlns:dc="http://purl.org/dc/elements/1.1/"
   xmlns:cc="http://creativecommons.org/ns#"
   xmlns:rdf="http://www.w3.org/1999/02/22-rdf-syntax-ns#"
   xmlns:svg="http://www.w3.org/2000/svg"
   xmlns="http://www.w3.org/2000/svg"
   viewBox="0 0 377.94666 135.36"
   height="135.36"
   width="377.94666"
   xml:space="preserve"
   id="svg2"
   version="1.1"><metadata
     id="metadata8"><rdf:RDF><cc:Work
         rdf:about=""><dc:format>image/svg+xml</dc:format><dc:type
           rdf:resource="http://purl.org/dc/dcmitype/StillImage" /></cc:Work></rdf:RDF></metadata><defs
     id="defs6" /><g
     transform="matrix(1.3333333,0,0,-1.3333333,0,135.36)"
     id="g10"><g
       transform="scale(0.1)"
       id="g12"><path
         id="path14"
         style="fill:#ffffff;fill-opacity:1;fill-rule:nonzero;stroke:none"
         d="m 2477.68,466.723 c -189.76,246.824 -509.04,406.863 -870.99,406.863 -331.63,0 -630.874,-133.773 -823.87,-346.406 166.614,148.078 396.92,239.679 651.35,239.679 288.53,0 546.03,-115.777 715.06,-300.136 h 328.45 v 0" /><path
         id="path16"
         style="fill:#ffffff;fill-opacity:1;fill-rule:nonzero;stroke:none"
         d="M 2291.56,695.785 C 1789.76,1053.55 1043.16,944.879 693.672,466.723 H 383.324 C 771.699,1088.61 1729.3,1204.78 2291.56,695.785 v 0" /><path
         id="path18"
         style="fill:#ffffff;fill-opacity:1;fill-rule:nonzero;stroke:none"
         d="m 297.871,72.8359 c -5.484,3.2891 -12.07,13.5235 -12.07,28.1721 v 217.726 c 0,14.278 5.847,21.602 11.344,26.348 H 253.227 L 152.23,150.031 36.9609,345.082 H 0 c 4.75391,-4.746 11.7148,-9.141 11.7148,-24.512 V 95.5117 C 11.7148,84.9063 5.125,76.125 0.367188,72.8359 H 49.0391 c -5.125,3.6524 -11.711,12.4414 -11.711,23.7774 V 268.605 L 145.277,85.6367 243.715,274.086 V 98.4492 c 0,-16.4726 -6.582,-22.6953 -11.348,-25.6133 h 65.504 v 0" /><path
         id="path20"
         style="fill:#ffffff;fill-opacity:1;fill-rule:evenodd;stroke:none"
         d="m 407.84,72.8359 c -7.684,5.8477 -11.348,12.8008 -11.348,27.0704 V 262.387 h -50.125 c 9.512,-4.758 12.442,-14.641 12.442,-29.649 V 99.9063 c 0,-12.0704 -2.2,-20.129 -11.715,-27.0704 H 407.84 Z M 397.23,333.371 c 0,11.348 -9.152,20.488 -20.492,20.488 -11.343,0 -20.5,-9.14 -20.5,-20.488 0,-11.348 9.157,-20.488 20.5,-20.488 11.34,0 20.492,9.14 20.492,20.488 v 0" /><path
         id="path22"
         style="fill:#ffffff;fill-opacity:1;fill-rule:evenodd;stroke:none"
         d="m 576.93,52.6992 c 0,-19.3945 -20.86,-33.3008 -49.039,-33.3008 -15.004,0 -43.18,7.6836 -42.813,29.2774 0,11.3476 6.586,18.6601 15,25.2422 l 49.77,-1.0821 C 562.656,72.4648 576.93,70.2656 576.93,52.6992 Z M 561.191,197.609 c 0,-20.125 -9.515,-40.984 -34.394,-40.984 -27.082,0 -37.328,30.742 -37.328,53.066 0,24.149 12.804,39.883 33.301,39.883 30.371,0 38.421,-31.836 38.421,-51.965 z m 57.086,31.477 c -1.093,8.418 -4.39,17.195 -9.511,24.148 h -34.403 c -7.316,6.582 -21.957,14.629 -49.765,14.629 -38.793,0 -70.996,-23.406 -70.996,-65.496 0,-25.976 13.175,-47.199 33.304,-57.453 -10.98,-9.512 -35.129,-24.883 -35.129,-40.976 0,-17.938 20.125,-25.2544 35.129,-27.813 C 464.586,69.5352 444.457,55.2656 444.457,35.8633 444.457,6.96094 488.371,0 511.422,0 c 39.156,0 99.168,19.7695 99.168,66.9648 0,30.754 -31.102,37.7072 -56.348,38.0582 -61.48,1.473 -63.676,5.125 -63.676,14.278 0,5.117 10.614,17.207 13.907,20.496 5.851,-0.731 12.074,-1.465 17.929,-1.465 44.645,0 74.286,23.781 74.286,68.43 0,12.078 -3.661,23.047 -7.325,28.183 2.93,1.082 6.223,1.082 9.52,1.082 6.953,0 13.902,-2.918 19.394,-6.941 v 0" /><path
         id="path24"
         style="fill:#ffffff;fill-opacity:1;fill-rule:nonzero;stroke:none"
         d="m 760.277,222.855 -5.855,41.356 c -5.121,2.57 -10.977,3.652 -16.469,3.652 -21.59,0 -36.957,-17.187 -45.375,-34.754 v 29.278 h -49.765 c 11.343,-6.965 12.074,-19.395 12.074,-28.918 V 101.73 c 0,-14.6284 -2.559,-22.6753 -11.344,-28.8941 h 59.648 c -9.144,7.3047 -10.613,16.0938 -10.613,28.5351 v 108.32 c 5.488,14.637 19.762,26.336 36.231,26.336 11.707,0 24.519,-6.582 31.468,-13.172 v 0" /><path
         id="path26"
         style="fill:#ffffff;fill-opacity:1;fill-rule:evenodd;stroke:none"
         d="m 883.191,111.254 c -6.586,-8.059 -18.66,-21.5938 -34.757,-21.5938 -19.032,0 -30.012,20.1288 -30.012,39.1528 0,17.929 8.785,29.277 22.687,34.765 l 42.082,16.102 v -68.426 z m 48.668,-38.4181 c -9.511,8.4063 -10.976,15 -10.976,31.8361 v 98.797 c 0,55.988 -36.227,64.765 -70.992,64.765 -15.371,0 -42.45,-5.488 -51.594,-10.605 -5.125,-10.242 -7.688,-31.473 -10.25,-42.449 11.715,14.265 32.203,34.765 60.746,34.765 30.004,0 34.398,-20.859 34.398,-43.183 v -9.875 l -55.984,-19.403 c -26.352,-9.14 -47.574,-27.453 -47.574,-57.453 0,-33.3005 22.324,-52.6951 54.527,-52.6951 21.953,0 36.957,10.9766 49.031,23.7891 V 72.8359 h 48.668 v 0" /><path
         id="path28"
         style="fill:#ffffff;fill-opacity:1;fill-rule:nonzero;stroke:none"
         d="M 1076.63,97.7188 C 1069.31,90.7539 1058.7,86 1048.45,86 c -21.96,0 -27.08,24.891 -27.08,42.078 v 114.543 h 21.59 c 10.98,0 23.79,-3.293 33.67,-8.781 l -4.39,28.547 h -50.87 v 44.636 c -17.2,-24.148 -39.155,-49.765 -65.503,-64.402 h 27.809 V 130.285 c 0,-36.2303 8.051,-62.5858 49.404,-62.5858 12.08,0 24.89,2.5664 35.13,9.1485 3.66,6.2226 6.22,13.9062 8.42,20.8711 v 0" /><path
         id="path30"
         style="fill:#ffffff;fill-opacity:1;fill-rule:evenodd;stroke:none"
         d="m 1164.66,72.8359 c -7.69,5.8477 -11.34,12.8008 -11.34,27.0704 V 262.387 h -50.14 c 9.52,-4.758 12.44,-14.641 12.44,-29.649 V 99.9063 c 0,-12.0704 -2.19,-20.129 -11.7,-27.0704 h 60.74 z m -10.61,260.5351 c 0,11.348 -9.15,20.488 -20.49,20.488 -11.35,0 -20.49,-9.14 -20.49,-20.488 0,-11.348 9.14,-20.488 20.49,-20.488 11.34,0 20.49,9.14 20.49,20.488 v 0" /><path
         id="path32"
         style="fill:#ffffff;fill-opacity:1;fill-rule:evenodd;stroke:none"
         d="m 1352.04,151.137 c 0,-32.199 -13.17,-65.137 -47.2,-65.137 -45.38,0 -61.48,61.844 -61.48,98.074 0,30.735 12.08,65.137 47.57,65.137 45.38,0 61.11,-61.844 61.11,-98.074 z m 38.79,17.207 c 0,52.324 -32.93,100.261 -88.92,100.261 -58.19,0 -97.34,-44.648 -97.34,-101.726 0,-52.336 32.57,-100.2735 88.56,-100.2735 58.54,0 97.7,44.6485 97.7,101.7385 v 0" /><path
         id="path34"
         style="fill:#ffffff;fill-opacity:1;fill-rule:nonzero;stroke:none"
         d="m 1604.38,72.8359 c -6.95,5.4766 -11.36,10.6055 -11.36,28.1721 v 99.894 c 0,41.348 -9.87,66.961 -55.24,66.961 -25.62,0 -45.38,-14.258 -60.39,-28.535 v 23.059 h -50.13 c 7.69,-4.395 12.44,-11.711 12.44,-26.719 V 100.277 c 0,-14.9997 -3.66,-22.3239 -12.07,-27.4411 h 60.75 c -5.86,5.8477 -10.99,9.5118 -10.99,29.6291 v 111.609 c 8.05,11.348 27.08,31.477 46.84,31.477 25.62,0 31.11,-25.617 31.11,-45.742 V 99.543 c 0,-18.6602 -6.6,-21.961 -11.71,-26.7071 h 60.75 v 0" /><path
         id="path36"
         style="fill:#ffffff;fill-opacity:1;fill-rule:evenodd;stroke:none"
         d="m 1767.36,121.859 c 0,55.996 -86.74,68.809 -86.74,103.204 0,19.023 17.95,24.882 34.04,24.882 16.83,0 33.66,-7.324 44.28,-20.5 l -1.84,30.012 c -11.71,4.395 -28.17,8.777 -42.81,8.777 -36.59,0 -68.06,-16.101 -68.06,-47.937 0,-60.012 87.83,-68.059 87.83,-107.949 0,-20.1175 -15.75,-26.7113 -33.31,-26.7113 -25.62,0 -47.2,11.711 -64.04,30.7343 v -2.558 c 0,-10.247 -0.74,-25.2466 7.69,-32.1997 13.54,-10.9844 38.79,-14.2774 55.25,-14.2774 34.41,0 67.71,15.7344 67.71,54.5231 v 0" /><path
         id="path38"
         style="fill:#ffffff;fill-opacity:1;fill-rule:nonzero;stroke:none"
         d="m 1975.19,262.387 h -36.23 c 3.29,-2.571 2.92,-14.27 -4.75,-33.664 L 1887,109.055 1839.44,228.352 c -6.59,16.464 -8.06,29.277 -4.05,34.035 h -52.33 c 4.78,-2.571 12.45,-21.594 20.87,-42.453 l 58.55,-147.0981 h 33.31 l 59.63,151.4921 c 8.06,20.488 14.28,34.395 19.77,38.059 v 0" /><path
         id="path40"
         style="fill:#ffffff;fill-opacity:1;fill-rule:evenodd;stroke:none"
         d="m 2111.25,180.785 c -27.8,-2.207 -54.88,-2.57 -83.07,-2.57 0.37,19.758 7.32,71.73 43.19,71.73 33.66,0 39.88,-43.547 39.88,-69.16 z m 39.89,-16.836 v 5.848 c 0,48.672 -15.73,98.437 -73.18,98.437 -57.45,0 -90.39,-51.23 -90.39,-104.285 0,-54.531 35.86,-96.6131 90.74,-96.6131 19.76,0 40.99,4.3946 54.17,11.3477 8.05,8.7812 12.44,20.1172 15.01,32.2074 -17.57,-12.8129 -35.87,-21.2308 -58.55,-21.2308 -37.7,0 -59.66,39.8948 -60.39,73.1838 l 122.59,1.105 v 0" /><path
         id="path42"
         style="fill:#ffffff;fill-opacity:1;fill-rule:nonzero;stroke:none"
         d="m 2304.42,222.855 -5.86,41.356 c -5.12,2.57 -10.97,3.652 -16.46,3.652 -21.6,0 -36.97,-17.187 -45.38,-34.754 v 29.278 h -49.76 c 11.34,-6.965 12.08,-19.395 12.08,-28.918 V 101.73 c 0,-14.6284 -2.57,-22.6753 -11.36,-28.8941 h 59.65 c -9.13,7.3047 -10.61,16.0938 -10.61,28.5351 v 108.32 c 5.49,14.637 19.77,26.336 36.23,26.336 11.7,0 24.52,-6.582 31.47,-13.172 v 0" /><path
         id="path44"
         style="fill:#ffffff;fill-opacity:1;fill-rule:nonzero;stroke:none"
         d="m 2528.71,72.0938 c -57.46,9.5195 -63.32,102.4692 -119.31,102.4692 l 66.61,70.988 c 5.48,5.859 12.8,12.078 19.02,16.836 h -45.01 c 3.66,-3.664 3.3,-9.883 -3.3,-16.836 l -67.32,-71.719 v 179.305 h -50.14 c 8.43,-5.125 12.44,-14.278 12.44,-25.614 V 98.8008 c 0,-14.6289 -5.48,-20.4883 -11.71,-25.9649 h 59.64 c -6.57,6.2188 -10.23,12.4414 -10.23,25.9649 v 65.1482 c 6.95,0 15.74,-3.293 20.86,-6.594 32.57,-20.847 49.39,-79.0425 67.69,-87.4605 3.67,-1.8242 23.8,-2.5586 28.92,-2.5586 11.34,0 21.21,0.7344 31.84,4.7579 v 0" /><path
         id="path46"
         style="fill:#ffffff;fill-opacity:1;fill-rule:evenodd;stroke:none"
         d="m 2653.92,180.785 c -27.8,-2.207 -54.88,-2.57 -83.07,-2.57 0.37,19.758 7.32,71.73 43.2,71.73 33.65,0 39.87,-43.547 39.87,-69.16 z m 39.89,-16.836 v 5.848 c 0,48.672 -15.74,98.437 -73.19,98.437 -57.46,0 -90.38,-51.23 -90.38,-104.285 0,-54.531 35.86,-96.6131 90.74,-96.6131 19.77,0 41,4.3946 54.17,11.3477 8.06,8.7812 12.44,20.1172 15.01,32.2074 -17.58,-12.8129 -35.87,-21.2308 -58.55,-21.2308 -37.69,0 -59.66,39.8948 -60.39,73.1838 l 122.59,1.105 v 0" /><path
         id="path48"
         style="fill:#ffffff;fill-opacity:1;fill-rule:nonzero;stroke:none"
         d="M 2834.64,97.7188 C 2827.33,90.7539 2816.72,86 2806.46,86 c -21.94,0 -27.06,24.891 -27.06,42.078 v 114.543 h 21.57 c 11,0 23.8,-3.293 33.67,-8.781 l -4.38,28.547 h -50.86 v 44.636 c -17.22,-24.148 -39.16,-49.765 -65.51,-64.402 h 27.81 V 130.285 c 0,-36.2303 8.04,-62.5858 49.4,-62.5858 12.08,0 24.88,2.5664 35.12,9.1485 3.68,6.2226 6.23,13.9062 8.42,20.8711 v 0" /></g></g></svg>