<?xml version="1.0" encoding="UTF-8" standalone="no"?>
<svg
   xmlns:dc="http://purl.org/dc/elements/1.1/"
   xmlns:cc="http://creativecommons.org/ns#"
   xmlns:rdf="http://www.w3.org/1999/02/22-rdf-syntax-ns#"
   xmlns:svg="http://www.w3.org/2000/svg"
   xmlns="http://www.w3.org/2000/svg"
   viewBox="0 0 1020.64 413.48001"
   height="413.48001"
   width="1020.64"
   xml:space="preserve"
   id="svg2"
   version="1.1"><metadata
     id="metadata8"><rdf:RDF><cc:Work
         rdf:about=""><dc:format>image/svg+xml</dc:format><dc:type
           rdf:resource="http://purl.org/dc/dcmitype/StillImage" /></cc:Work></rdf:RDF></metadata><defs
     id="defs6" /><g
     transform="matrix(1.3333333,0,0,-1.3333333,0,413.48)"
     id="g10"><g
       transform="scale(0.1)"
       id="g12"><path
         id="path14"
         style="fill:#ffffff;fill-opacity:1;fill-rule:nonzero;stroke:none"
         d="m 603.328,1734.55 v 772.77 h 271.883 l 150.549,-673.41 h 19.48 v 673.41 h 140.81 V 1734.55 H 914.172 l -150.551,673.41 h -19.48 V 1734.55 H 603.328" /><path
         id="path16"
         style="fill:#ffffff;fill-opacity:1;fill-rule:nonzero;stroke:none"
         d="m 1594.39,1842.72 c 41.87,0 76.55,13.83 104.01,41.42 27.41,27.58 41.12,67.15 41.12,118.68 v 11.05 c 0,51.48 -13.53,91.05 -40.59,118.68 -27.11,27.58 -61.93,41.37 -104.54,41.37 -41.87,0 -76.56,-13.79 -103.97,-41.37 -27.46,-27.63 -41.16,-67.2 -41.16,-118.68 v -11.05 c 0,-51.53 13.7,-91.1 41.16,-118.68 27.41,-27.59 62.1,-41.42 103.97,-41.42 z m 0,-123.62 c -53.42,0 -101.46,11.05 -144.03,33.1 -42.62,22.1 -76.2,54.09 -100.75,96.04 -24.55,41.96 -36.85,92.36 -36.85,151.25 v 17.66 c 0,58.89 12.3,109.29 36.85,151.24 24.55,41.96 58.13,73.99 100.75,96.05 42.57,22.1 90.61,33.15 144.03,33.15 53.46,0 101.45,-11.05 144.07,-33.15 42.57,-22.06 76.16,-54.09 100.71,-96.05 24.54,-41.95 36.84,-92.35 36.84,-151.24 v -17.66 c 0,-58.89 -12.3,-109.29 -36.84,-151.25 -24.55,-41.95 -58.14,-73.94 -100.71,-96.04 -42.62,-22.05 -90.61,-33.1 -144.07,-33.1" /><path
         id="path18"
         style="fill:#ffffff;fill-opacity:1;fill-rule:nonzero;stroke:none"
         d="m 1977.84,1734.55 v 547.59 h 134.33 v -61.86 h 19.48 c 7.93,22.1 21.11,38.27 39.53,48.6 18.42,10.29 39.89,15.46 64.44,15.46 h 65 v -123.67 h -67.16 c -34.64,0 -63.2,-9.39 -85.55,-28.12 -22.39,-18.78 -33.58,-47.66 -33.58,-86.7 v -311.3 h -136.49" /><path
         id="path20"
         style="fill:#ffffff;fill-opacity:1;fill-rule:nonzero;stroke:none"
         d="m 2392.7,1734.55 v 547.59 h 134.34 v -61.86 h 19.48 c 7.93,22.1 21.11,38.27 39.53,48.6 18.42,10.29 39.88,15.46 64.43,15.46 h 65.01 v -123.67 h -67.17 c -34.64,0 -63.2,-9.39 -85.54,-28.12 -22.39,-18.78 -33.58,-47.66 -33.58,-86.7 v -311.3 h -136.5" /><path
         id="path22"
         style="fill:#ffffff;fill-opacity:1;fill-rule:nonzero;stroke:none"
         d="m 2817.3,1734.55 v 772.77 h 136.5 v -427.24 h 19.48 l 177.65,202.06 h 177.61 l -248.04,-264.99 256.73,-282.6 h -175.5 l -188.45,217.46 h -19.48 v -217.46 h -136.5" /><path
         id="path24"
         style="fill:#ffffff;fill-opacity:1;fill-rule:nonzero;stroke:none"
         d="m 3758.57,2341.75 c -24.6,0 -45.35,7.9 -62.32,23.71 -16.97,15.81 -25.43,37.38 -25.43,64.6 0,27.22 8.46,48.74 25.43,64.6 16.97,15.81 37.72,23.72 62.32,23.72 25.25,0 46.18,-7.91 62.8,-23.72 16.62,-15.86 24.9,-37.38 24.9,-64.6 0,-27.22 -8.28,-48.79 -24.9,-64.6 -16.62,-15.81 -37.55,-23.71 -62.8,-23.71 z m -111.6,-499.03 c 41.87,0 76.56,13.83 104.02,41.42 27.41,27.58 41.12,67.15 41.12,118.68 v 11.05 c 0,51.48 -13.53,91.05 -40.6,118.68 -27.1,27.58 -61.92,41.37 -104.54,41.37 -41.86,0 -76.55,-13.79 -103.96,-41.37 -27.46,-27.63 -41.17,-67.2 -41.17,-118.68 v -11.05 c 0,-51.53 13.71,-91.1 41.17,-118.68 27.41,-27.59 62.1,-41.42 103.96,-41.42 z m -111.54,499.03 c -24.55,0 -45.31,7.9 -62.28,23.71 -16.97,15.81 -25.47,37.38 -25.47,64.6 0,27.22 8.5,48.74 25.47,64.6 16.97,15.81 37.73,23.72 62.28,23.72 25.25,0 46.19,-7.91 62.8,-23.72 16.62,-15.86 24.95,-37.38 24.95,-64.6 0,-27.22 -8.33,-48.79 -24.95,-64.6 -16.61,-15.81 -37.55,-23.71 -62.8,-23.71 z m 111.54,-622.65 c -53.41,0 -101.45,11.05 -144.02,33.1 -42.62,22.1 -76.21,54.09 -100.75,96.04 -24.55,41.96 -36.85,92.36 -36.85,151.25 v 17.66 c 0,58.89 12.3,109.29 36.85,151.24 24.54,41.96 58.13,73.99 100.75,96.05 42.57,22.1 90.61,33.15 144.02,33.15 53.46,0 101.46,-11.05 144.08,-33.15 42.57,-22.06 76.16,-54.09 100.7,-96.05 24.55,-41.95 36.85,-92.35 36.85,-151.24 v -17.66 c 0,-58.89 -12.3,-109.29 -36.85,-151.25 -24.54,-41.95 -58.13,-73.94 -100.7,-96.04 -42.62,-22.05 -90.62,-33.1 -144.08,-33.1" /><path
         id="path26"
         style="fill:#ffffff;fill-opacity:1;fill-rule:nonzero;stroke:none"
         d="m 4321.83,1840.52 c 42.61,0 77.78,13.79 105.59,41.41 27.81,27.59 41.7,67.88 41.7,120.89 v 11.05 c 0,52.96 -14.06,93.26 -42.23,120.88 -28.16,27.58 -63.2,41.37 -105.06,41.37 -41.87,0 -76.91,-13.79 -105.07,-41.37 -28.17,-27.62 -42.22,-67.92 -42.22,-120.88 v -11.05 c 0,-53.01 14.05,-93.3 42.22,-120.89 28.16,-27.62 63.2,-41.41 105.07,-41.41 z M 4040.2,1513.76 v 768.38 h 134.34 v -66.26 h 19.48 c 12.29,21.33 31.42,40.29 57.42,56.87 25.96,16.53 63.16,24.84 111.55,24.84 43.32,0 83.38,-10.87 120.23,-32.57 36.8,-21.74 66.42,-53.55 88.8,-95.5 22.39,-41.96 33.59,-92.72 33.59,-152.37 v -17.66 c 0,-59.61 -11.2,-110.37 -33.59,-152.32 -22.38,-41.96 -52,-73.81 -88.8,-95.51 -36.85,-21.69 -76.91,-32.56 -120.23,-32.56 -32.48,0 -59.76,3.86 -81.8,11.59 -21.99,7.72 -39.71,17.65 -53.06,29.82 -13.36,12.13 -24.02,24.44 -31.96,36.97 h -19.48 V 1513.76 H 4040.2" /><path
         id="path28"
         style="fill:#ffffff;fill-opacity:1;fill-rule:nonzero;stroke:none"
         d="m 4726.9,1734.55 v 547.59 h 136.49 v -547.59 z m 68.27,611.6 c -24.59,0 -45.35,8.08 -62.32,24.3 -16.97,16.17 -25.43,37.51 -25.43,64.01 0,26.5 8.46,47.84 25.43,64.06 16.97,16.17 37.73,24.26 62.32,24.26 25.25,0 46.19,-8.09 62.8,-24.26 16.62,-16.22 24.9,-37.56 24.9,-64.06 0,-26.5 -8.28,-47.84 -24.9,-64.01 -16.61,-16.22 -37.55,-24.3 -62.8,-24.3" /><path
         id="path30"
         style="fill:#ffffff;fill-opacity:1;fill-rule:nonzero;stroke:none"
         d="m 5010.69,1734.55 v 547.59 h 134.33 v -71.79 h 19.48 c 8.69,19.14 24.91,37.38 48.75,54.67 23.84,17.3 59.94,25.92 108.33,25.92 41.87,0 78.49,-9.75 109.92,-29.24 31.42,-19.5 55.79,-46.36 73.11,-80.59 17.32,-34.23 26,-74.17 26,-119.81 v -326.75 h -136.49 v 315.75 c 0,41.19 -9.91,72.09 -29.79,92.72 -19.83,20.61 -48.17,30.9 -85.02,30.9 -41.87,0 -74.39,-14.15 -97.49,-42.49 -23.09,-28.35 -34.64,-67.88 -34.64,-118.69 v -278.19 h -136.49" /><path
         id="path32"
         style="fill:#ffffff;fill-opacity:1;fill-rule:nonzero;stroke:none"
         d="m 5931.37,1853.77 c 41.87,0 76.91,13.61 105.07,40.88 28.16,27.17 42.27,65.49 42.27,114.77 v 11.05 c 0,50.04 -13.93,88.49 -41.7,115.36 -27.81,26.86 -63.02,40.29 -105.64,40.29 -41.87,0 -76.86,-13.43 -105.02,-40.29 -28.17,-26.87 -42.27,-65.32 -42.27,-115.36 v -11.05 c 0,-49.28 14.1,-87.6 42.27,-114.77 28.16,-27.27 63.15,-40.88 105.02,-40.88 z m -283.78,152.37 v 17.65 c 0,57.41 11.19,106.51 33.58,147.39 22.39,40.83 52.18,72.1 89.38,93.84 37.2,21.7 77.79,32.57 121.86,32.57 49.1,0 86.25,-8.85 111.55,-26.5 25.25,-17.66 43.68,-36.08 55.22,-55.21 h 19.53 v 66.26 H 6213 v -644.75 c 0,-37.51 -10.85,-67.52 -32.49,-89.98 -21.68,-22.42 -50.55,-33.65 -86.64,-33.65 h -359.59 v 121.42 h 311.9 c 20.23,0 30.37,11.05 30.37,33.11 v 142.44 h -19.53 c -7.23,-11.81 -17.32,-23.76 -30.32,-35.89 -13,-12.13 -30.32,-22.28 -52,-30.36 -21.64,-8.09 -49.1,-12.13 -82.29,-12.13 -44.07,0 -84.66,10.82 -121.86,32.57 -37.2,21.69 -66.99,52.96 -89.38,93.84 -22.39,40.83 -33.58,89.97 -33.58,147.38" /><path
         id="path34"
         style="fill:#ffffff;fill-opacity:1;fill-rule:nonzero;stroke:none"
         d="m 866.527,578.34 c -58.48,0 -110.136,10.691 -154.867,32.031 -44.777,21.34 -79.816,51.879 -105.07,91.59 -25.297,39.758 -37.902,87.598 -37.902,143.527 v 30.903 h 140.765 v -30.903 c 0,-46.359 14.106,-81.129 42.266,-104.308 28.164,-23.18 66.418,-34.77 114.808,-34.77 49.098,0 85.723,9.93 109.918,29.781 24.195,19.899 36.315,45.278 36.315,76.188 0,21.34 -5.95,38.633 -17.893,51.883 -11.898,13.25 -29.219,24.129 -51.961,32.57 -22.785,8.449 -50.375,16.398 -82.855,23.719 l -24.946,5.519 c -51.96,11.77 -96.562,26.692 -133.757,44.75 -37.2,18.012 -65.715,41.73 -85.547,71.2 -19.875,29.42 -29.793,67.69 -29.793,114.81 0,47.08 10.972,87.37 33.012,120.88 22.035,33.47 53.105,59.21 93.168,77.27 40.062,18.01 87.175,27.04 141.339,27.04 54.164,0 102.379,-9.39 144.602,-28.12 42.221,-18.78 75.451,-46.76 99.651,-83.91 24.19,-37.2 36.27,-83.73 36.27,-139.66 v -33.11 H 993.238 v 33.11 c 0,29.42 -5.597,53.14 -16.793,71.2 -11.191,18.01 -27.234,31.26 -48.172,39.75 -20.976,8.45 -45.878,12.67 -74.746,12.67 -43.324,0 -75.273,-8.26 -95.855,-24.84 -20.582,-16.53 -30.852,-39.17 -30.852,-67.88 0,-19.13 4.848,-35.3 14.586,-48.55 9.785,-13.26 24.375,-24.31 43.899,-33.16 19.48,-8.8 44.379,-16.53 74.746,-23.18 l 24.902,-5.52 c 54.164,-11.77 101.277,-26.86 141.337,-45.24 40.06,-18.408 71.31,-42.721 93.7,-72.861 22.35,-30.18 33.58,-68.821 33.58,-115.938 0,-47.082 -11.76,-88.492 -35.21,-124.16 -23.49,-35.711 -56.68,-63.699 -99.65,-83.91 C 975.742,588.449 925.016,578.34 866.527,578.34" /><path
         id="path36"
         style="fill:#ffffff;fill-opacity:1;fill-rule:nonzero;stroke:none"
         d="m 1521.84,578.34 c -52,0 -99.12,11.051 -141.38,33.109 -42.22,22.102 -75.63,54.082 -100.18,96.039 -24.55,41.961 -36.84,92.762 -36.84,152.371 v 15.45 c 0,59.613 12.29,110.371 36.84,152.331 24.55,41.96 57.96,73.98 100.18,96.04 42.26,22.1 89.38,33.15 141.38,33.15 51.26,0 95.29,-9.21 132.13,-27.62 36.8,-18.38 66.6,-43.58 89.34,-75.61 22.74,-32.02 37.72,-68.28 44.95,-108.748 l -132.13,-28.704 c -2.91,22.102 -9.39,41.954 -19.48,59.614 -10.13,17.699 -24.37,31.668 -42.79,41.948 -18.42,10.29 -41.34,15.46 -68.8,15.46 -27.46,0 -52.18,-6.07 -74.17,-18.2 -22.04,-12.17 -39.36,-30.181 -52.01,-54.079 -12.65,-23.95 -18.95,-53.192 -18.95,-87.782 v -11.05 c 0,-34.59 6.3,-63.879 18.95,-87.77 12.65,-23.898 29.97,-41.957 52.01,-54.09 21.99,-12.129 46.71,-18.238 74.17,-18.238 41.16,0 72.41,10.871 93.7,32.57 21.29,21.739 34.82,50.27 40.63,85.578 l 132.13,-32.027 c -9.38,-38.992 -25.47,-74.531 -48.21,-106.512 -22.74,-32.031 -52.54,-57.23 -89.34,-75.648 -36.84,-18.371 -80.87,-27.582 -132.13,-27.582" /><path
         id="path38"
         style="fill:#ffffff;fill-opacity:1;fill-rule:nonzero;stroke:none"
         d="m 1899.82,593.789 v 547.591 h 136.49 V 593.789 Z m 68.26,611.601 c -24.59,0 -45.35,8.09 -62.31,24.3 -16.97,16.18 -25.43,37.51 -25.43,64.02 0,26.5 8.46,47.84 25.43,64.05 16.96,16.18 37.72,24.26 62.31,24.26 25.26,0 46.19,-8.08 62.81,-24.26 16.61,-16.21 24.9,-37.55 24.9,-64.05 0,-26.51 -8.29,-47.84 -24.9,-64.02 -16.62,-16.21 -37.55,-24.3 -62.81,-24.3" /><path
         id="path40"
         style="fill:#ffffff;fill-opacity:1;fill-rule:nonzero;stroke:none"
         d="m 2292.1,930.52 h 251.26 c -2.86,31.628 -15.34,57.011 -37.33,76.14 -22.04,19.14 -50.77,28.71 -86.12,28.71 -36.84,0 -66.06,-9.57 -87.74,-28.71 -21.64,-19.129 -35.04,-44.512 -40.07,-76.14 z m 131.03,-352.18 c -53.42,0 -100.53,11.59 -141.34,34.769 -40.77,23.18 -72.54,55.93 -95.28,98.243 -22.75,42.32 -34.16,92.179 -34.16,149.589 v 13.25 c 0,57.411 11.19,107.27 33.58,149.589 22.39,42.31 53.82,75.1 94.23,98.28 40.46,23.18 87.4,34.77 140.81,34.77 52.71,0 98.59,-11.99 137.55,-35.89 39.01,-23.94 69.33,-57.05 91.01,-99.36 21.64,-42.318 32.48,-91.459 32.48,-147.389 V 826.75 H 2291 c 1.46,-37.551 15.16,-68.102 41.17,-91.629 26,-23.59 57.77,-35.359 95.32,-35.359 38.26,0 66.42,8.449 84.49,25.429 18.03,16.891 31.73,35.668 41.16,56.278 l 111.55,-59.61 c -10.13,-19.129 -24.72,-39.929 -43.85,-62.39 -19.17,-22.457 -44.6,-41.598 -76.38,-57.41 -31.77,-15.809 -72.23,-23.719 -121.33,-23.719" /><path
         id="path42"
         style="fill:#ffffff;fill-opacity:1;fill-rule:nonzero;stroke:none"
         d="m 2771.06,593.789 v 547.591 h 134.33 v -71.78 h 19.48 c 8.68,19.13 24.9,37.37 48.75,54.67 23.84,17.29 59.93,25.91 108.33,25.91 41.87,0 78.49,-9.74 109.91,-29.24 31.43,-19.49 55.8,-46.36 73.12,-80.59 17.32,-34.23 26,-74.159 26,-119.799 V 593.789 h -136.49 v 315.75 c 0,41.203 -9.92,72.102 -29.79,92.721 -19.84,20.62 -48.17,30.91 -85.02,30.91 -41.87,0 -74.39,-14.15 -97.49,-42.498 -23.09,-28.34 -34.64,-67.883 -34.64,-118.68 V 593.789 h -136.49" /><path
         id="path44"
         style="fill:#ffffff;fill-opacity:1;fill-rule:nonzero;stroke:none"
         d="m 3661.35,581.309 c -52.01,0 -99.12,11.05 -141.39,33.113 -42.22,22.098 -75.62,54.078 -100.17,96.039 -24.55,41.961 -36.85,92.758 -36.85,152.371 v 15.449 c 0,59.61 12.3,110.379 36.85,152.329 24.55,41.96 57.95,73.99 100.17,96.04 42.27,22.1 89.38,33.15 141.39,33.15 51.26,0 95.28,-9.21 132.13,-27.62 36.8,-18.38 66.59,-43.58 89.33,-75.6 22.74,-32.03 37.73,-68.279 44.96,-108.76 l -132.13,-28.699 c -2.91,22.098 -9.39,41.949 -19.48,59.609 -10.14,17.7 -24.37,31.67 -42.8,41.95 -18.42,10.29 -41.34,15.46 -68.79,15.46 -27.46,0 -52.19,-6.07 -74.18,-18.2 -22.03,-12.17 -39.35,-30.178 -52,-54.081 -12.65,-23.937 -18.95,-53.187 -18.95,-87.777 v -11.051 c 0,-34.59 6.3,-63.871 18.95,-87.769 12.65,-23.903 29.97,-41.961 52,-54.09 21.99,-12.133 46.72,-18.242 74.18,-18.242 41.16,0 72.41,10.879 93.69,32.57 21.29,21.738 34.82,50.27 40.64,85.582 l 132.13,-32.031 c -9.39,-38.992 -25.48,-74.531 -48.22,-106.512 -22.74,-32.027 -52.53,-57.23 -89.33,-75.648 -36.85,-18.371 -80.87,-27.582 -132.13,-27.582" /><path
         id="path46"
         style="fill:#ffffff;fill-opacity:1;fill-rule:nonzero;stroke:none"
         d="m 4150.2,930.52 h 251.26 c -2.87,31.628 -15.34,57.011 -37.33,76.14 -22.04,19.14 -50.77,28.71 -86.12,28.71 -36.84,0 -66.06,-9.57 -87.75,-28.71 -21.64,-19.129 -35.03,-44.512 -40.06,-76.14 z m 131.03,-352.18 c -53.42,0 -100.53,11.59 -141.34,34.769 -40.77,23.18 -72.54,55.93 -95.29,98.243 -22.74,42.32 -34.15,92.179 -34.15,149.589 v 13.25 c 0,57.411 11.19,107.27 33.58,149.589 22.39,42.31 53.81,75.1 94.23,98.28 40.46,23.18 87.39,34.77 140.81,34.77 52.71,0 98.59,-11.99 137.55,-35.89 39,-23.94 69.33,-57.05 91.01,-99.36 21.64,-42.318 32.48,-91.459 32.48,-147.389 V 826.75 H 4149.1 c 1.45,-37.551 15.16,-68.102 41.16,-91.629 26.01,-23.59 57.78,-35.359 95.33,-35.359 38.26,0 66.42,8.449 84.49,25.429 18.03,16.891 31.73,35.668 41.16,56.278 l 111.55,-59.61 c -10.14,-19.129 -24.72,-39.929 -43.85,-62.39 -19.17,-22.457 -44.6,-41.598 -76.38,-57.41 -31.78,-15.809 -72.23,-23.719 -121.33,-23.719" /><path
         id="path48"
         style="fill:#ffffff;fill-opacity:1;fill-rule:nonzero;stroke:none"
         d="m 5147.06,1008.91 h 154.87 c 33.93,0 61.39,9.52 82.33,28.7 20.93,19.09 31.42,45.24 31.42,78.34 v 11.06 c 0,33.1 -10.49,59.25 -31.42,78.38 -20.94,19.14 -48.4,28.71 -82.33,28.71 H 5147.06 Z M 5004.09,593.789 v 772.781 h 311.94 c 47.64,0 89.69,-9.75 126.18,-29.25 36.45,-19.49 65.01,-46.94 85.59,-82.25 20.54,-35.3 30.85,-77.26 30.85,-125.86 v -15.46 c 0,-47.84 -10.66,-89.61 -31.95,-125.281 -21.33,-35.707 -50.2,-63.289 -86.65,-82.789 -36.49,-19.539 -77.83,-29.289 -124.02,-29.289 H 5147.06 V 593.789 h -142.97" /><path
         id="path50"
         style="fill:#ffffff;fill-opacity:1;fill-rule:nonzero;stroke:none"
         d="m 5808.92,690.961 c 38.25,0 69.46,10.82 93.7,32.57 24.15,21.688 36.27,50.578 36.27,86.649 v 11.05 h -137.55 c -25.3,0 -45.13,-5.531 -59.59,-16.582 -14.45,-11.046 -21.68,-26.5 -21.68,-46.359 0,-19.898 7.58,-36.07 22.78,-48.598 15.17,-12.492 37.16,-18.73 66.07,-18.73 z M 5785.08,578.34 c -38.3,0 -72.59,6.832 -102.91,20.441 -30.32,13.61 -54.34,33.469 -72.02,59.61 -17.71,26.101 -26.53,57.949 -26.53,95.5 0,37.507 8.82,69 26.53,94.379 17.68,25.378 42.22,44.519 73.65,57.41 31.42,12.851 67.34,19.32 107.75,19.32 h 147.34 v 30.898 c 0,25.743 -7.98,46.902 -23.84,63.472 -15.87,16.58 -41.17,24.85 -75.81,24.85 -33.93,0 -59.23,-7.91 -75.8,-23.72 -16.66,-15.86 -27.46,-36.301 -32.53,-61.27 l -125.65,43.03 c 8.68,27.99 22.57,53.55 41.74,76.72 19.12,23.18 44.73,41.96 76.86,56.34 32.13,14.33 71.31,21.51 117.54,21.51 70.74,0 126.71,-18.06 167.87,-54.08 41.17,-36.07 61.75,-88.36 61.75,-156.781 v -204.25 c 0,-22.059 10.09,-33.11 30.32,-33.11 h 43.32 v -114.82 h -90.96 c -26.71,0 -48.75,6.609 -66.07,19.859 -17.32,13.25 -26,30.903 -26,53.012 v 1.121 h -20.58 c -2.91,-8.851 -9.39,-20.441 -19.48,-34.812 -10.14,-14.328 -26,-27.047 -47.69,-38.047 -21.64,-11.051 -51.25,-16.582 -88.8,-16.582" /><path
         id="path52"
         style="fill:#ffffff;fill-opacity:1;fill-rule:nonzero;stroke:none"
         d="m 6220.53,593.789 v 547.591 h 134.33 v -61.86 h 19.48 c 7.94,22.1 21.12,38.28 39.54,48.61 18.42,10.29 39.88,15.45 64.43,15.45 h 65.01 v -123.67 h -67.17 c -34.64,0 -63.2,-9.38 -85.54,-28.121 -22.39,-18.769 -33.59,-47.66 -33.59,-86.687 V 593.789 h -136.49" /><path
         id="path54"
         style="fill:#ffffff;fill-opacity:1;fill-rule:nonzero;stroke:none"
         d="m 6625.66,593.789 v 772.781 h 136.5 V 939.332 h 19.48 l 177.65,202.048 h 177.62 L 6888.87,876.391 7145.59,593.789 h -175.5 l -188.45,217.473 h -19.48 V 593.789 h -136.5" /></g></g></svg>