<?xml version="1.0" encoding="UTF-8" standalone="no"?>
<svg
   xmlns:dc="http://purl.org/dc/elements/1.1/"
   xmlns:cc="http://creativecommons.org/ns#"
   xmlns:rdf="http://www.w3.org/1999/02/22-rdf-syntax-ns#"
   xmlns:svg="http://www.w3.org/2000/svg"
   xmlns="http://www.w3.org/2000/svg"
   viewBox="0 0 695.65332 574.17334"
   height="574.17334"
   width="695.65332"
   xml:space="preserve"
   id="svg2"
   version="1.1"><metadata
     id="metadata8"><rdf:RDF><cc:Work
         rdf:about=""><dc:format>image/svg+xml</dc:format><dc:type
           rdf:resource="http://purl.org/dc/dcmitype/StillImage" /></cc:Work></rdf:RDF></metadata><defs
     id="defs6" /><g
     transform="matrix(1.3333333,0,0,-1.3333333,0,574.17333)"
     id="g10"><g
       transform="scale(0.1)"
       id="g12"><path
         id="path14"
         style="fill:#1c1618;fill-opacity:1;fill-rule:nonzero;stroke:none"
         d="m 2169.5,3104.37 h 40.4 c 13.93,0 30.63,7.79 30.63,32.03 0,28.4 -19.49,29.26 -40.39,29.26 h -30.64 v -61.29 m -41.78,102.96 h 87.19 c 44.29,0 67.41,-20.23 67.41,-67.58 0,-47.08 -32.04,-72.15 -71.87,-72.15 h -40.95 v -66.84 h -41.78 v 206.57 0" /><path
         id="path16"
         style="fill:#1c1618;fill-opacity:1;fill-rule:nonzero;stroke:none"
         d="m 2415.27,3088.76 c 0,28.14 -11.14,48.75 -43.17,48.75 -32.31,0 -43.46,-20.61 -43.46,-48.75 0,-33.97 11.71,-57.94 43.18,-57.94 31.75,0 43.45,23.97 43.45,57.94 m -43.45,90.51 c 57.65,0 81.91,-32.03 81.91,-89.1 0,-61.03 -28.16,-94.43 -81.91,-94.43 -53.48,0 -81.61,33.4 -81.61,94.43 0,57.07 24.23,89.1 81.61,89.1 v 0" /><path
         id="path18"
         style="fill:#1c1618;fill-opacity:1;fill-rule:nonzero;stroke:none"
         d="m 2475.78,3000.76 h 41.7383 v 215.5 H 2475.78 Z" /><path
         id="path20"
         style="fill:#1c1618;fill-opacity:1;fill-rule:nonzero;stroke:none"
         d="m 2567.02,3222.18 c 16.75,0 24.82,-3.31 24.82,-17.49 0,-10.87 -7.07,-17.59 -24.82,-17.59 -18.05,0 -24.66,6.72 -24.66,17.59 0,14.18 7.47,17.49 24.66,17.49 m -20.92,-47.88 c 5.14,-3.13 12.64,-4.76 21.46,-4.76 7.94,0 14.49,1.63 20.86,4.76 v -173.54 h -42.32 v 173.54 0" /><path
         id="path22"
         style="fill:#1c1618;fill-opacity:1;fill-rule:nonzero;stroke:none"
         d="m 2614.63,3060.66 c 8.9,-18.68 24.39,-29.84 48.59,-29.84 9.85,0 25.91,4.49 25.91,20.35 0,27.89 -77.9,11.43 -77.9,69.64 0,35.32 26.99,58.46 62.38,58.46 18.57,0 36.15,-6.68 45.88,-19.97 v -45.14 c -7.55,18.38 -25.39,26.72 -44.57,26.72 -13.14,0 -25.35,-7.55 -25.35,-17.8 0,-30.13 76.35,-7.54 76.35,-70.77 0,-34.81 -28.17,-56.57 -61.82,-56.57 -20.9,0 -34.16,6.69 -49.47,20.06 v 44.86" /><path
         id="path24"
         style="fill:#1c1618;fill-opacity:1;fill-rule:nonzero;stroke:none"
         d="m 2862.35,3106.63 c -0.83,23.09 -20.04,34.25 -40.94,34.25 -19.25,0 -37.64,-12 -39.56,-34.25 h 80.5 m 19.76,-81.34 c -14.17,-17.27 -35.66,-29.55 -58.47,-29.55 -56.87,0 -81.9,37.91 -81.9,92.76 0,55.43 28.17,90.77 77.41,90.77 52.39,0 71.59,-34.23 71.59,-84.65 0,-7.21 -0.82,-14.47 -1.36,-21.46 h -107.53 c 0.54,-30.06 17.87,-44.02 47.36,-44.02 28.7,0 40.38,13.12 52.9,32.93 v -36.78 0" /><path
         id="path26"
         style="fill:#1c1618;fill-opacity:1;fill-rule:nonzero;stroke:none"
         d="m 2913.55,3174.3 h 40.09 v -43.17 h 0.56 c 7.24,25.88 25.91,48.14 55.72,48.14 42.36,0 50.99,-30.34 50.99,-63.45 v -115.06 h -41.81 v 95.83 c 0,24.22 -2.21,42.6 -27.01,42.6 -27.26,0 -36.76,-23.65 -36.76,-47.36 v -91.07 h -41.78 v 173.54" /><path
         id="path28"
         style="fill:#1c1618;fill-opacity:1;fill-rule:nonzero;stroke:none"
         d="m 2291.85,3656.39 v 0" /><path
         id="path30"
         style="fill:#1c1618;fill-opacity:1;fill-rule:nonzero;stroke:none"
         d="m 2320.17,3626.02 c -31.56,-45.48 -82.58,-31.91 -92.27,-25.72 17.26,-82.75 100.11,-101.95 146.16,-83.09 -46.05,37.06 -30.56,80.84 -25.5,92.54 l -28.39,16.27 m 31.8,98.79 0.98,-104.41 13.59,-7.88 -0.96,106.61 -13.63,7.67 0.02,-1.99 z m -83.34,12.42 c -4.31,-2.45 -8.03,-6.25 -10.74,-10.94 -2.4,-4.16 -3.69,-8.36 -3.94,-12.82 l -0.04,-0.71 14.43,-8.13 14.34,25.28 -13.48,7.64 -0.57,-0.32 z m 58.42,2.47 -44.79,-79.22 11.56,-6.6 45.36,80.22 -11.57,6.61 -0.56,-1.01 z m -25.13,14.15 -6.46,-11.33 20.81,-11.41 6.95,12.06 -20.74,11.68 -0.56,-1 z m -9.26,-16.25 -6.75,-12.21 20.63,-11.68 7.53,13.45 -20.85,11.44 -0.56,-1 z m -9.56,-17.12 -6.84,-12.09 20.71,-11.75 7.36,13.13 -20.67,11.71 -0.56,-1 z m -9.65,-17.01 -6.91,-12.06 20.85,-11.81 7.37,13.11 -20.73,11.75 -0.58,-0.99 z m -9.64,-17.03 -6.63,-11.71 20.69,-11.74 7.29,12.69 -20.79,11.77 -0.56,-1.01 z m 79.16,44.1 -6.32,-11.33 10.32,-5.54 -0.05,16.02 -3.4,1.85 -0.55,-1 z m -9.2,-16.2 -6.86,-12.16 20.43,-11.32 -0.26,17.56 -12.75,6.9 -0.56,-0.98 z m -9.71,-17.08 -6.76,-12.13 22.74,-12.9 7.3,4.22 -0.06,8.98 -22.66,12.84 -0.56,-1.01 z m -19.22,-34.06 -6.63,-11.83 3.44,-1.84 14.48,8.6 -10.73,6.07 -0.56,-1 z m 9.68,17 -6.88,-12.08 13.08,-7.42 14.91,8.85 -20.54,11.64 -0.57,-0.99 z m 25.13,-36.19 -13.89,-8.19 17.51,-9.94 4.6,-2.61 -0.13,14.9 0.05,2.02 -5.64,3.2 c -0.07,0.02 -1.98,0.94 -1.98,0.94 l -0.52,-0.32 z m 6.04,25.63 -39.02,-23.01 13.99,-7.96 26.84,15.83 -0.1,16.16 -1.71,-1.02 z m 24.95,44.53 0.15,-13.83 8.28,-5.06 3.52,1.93 -1.25,12.94 -10.73,6.01 0.03,-1.99 z m 11.02,-23.31 -10.7,-6.3 0.23,-16.11 13.64,8.06 -1.65,15.26 -1.52,-0.91 z m -2.79,-23.64 -7.74,-4.59 0.04,-8.03 16.71,-9.47 -1.95,18.55 -6.48,3.89 -0.58,-0.35 z m -7.64,-19.82 0.11,-15.37 18.87,-10.7 -1.83,18.33 -17.16,9.73 0.01,-1.99 z m 0.21,-22.59 0.18,-15.06 20.97,-11.86 -1.84,17.95 -19.33,10.95 0.02,-1.98 z m 465.09,101.01 -11.92,-6.69 -0.97,-106.61 13.61,7.88 0.99,106.4 -1.71,-0.98 z m 83.9,11.41 -12.91,-7.32 14.33,-25.28 14.44,8.13 -0.05,0.71 c -0.25,4.46 -1.53,8.66 -3.94,12.82 -2.72,4.69 -6.42,8.48 -10.74,10.94 l -0.56,0.32 -0.57,-0.32 z m -58.86,2.9 -10.55,-6.03 45.36,-80.22 11.55,6.6 -45.35,80.23 -1.01,-0.58 z m 25.15,14.16 -19.75,-11.12 6.95,-12.06 20.82,11.41 -7.02,12.33 -1,-0.56 z m 9.26,-16.25 -19.86,-10.88 7.53,-13.45 20.63,11.68 -7.3,13.21 -1,-0.56 z m 9.55,-17.13 -19.67,-11.14 7.36,-13.13 20.71,11.75 -7.4,13.09 -1,-0.57 z m 9.65,-17.01 -19.74,-11.19 7.36,-13.11 20.86,11.81 -7.49,13.05 -0.99,-0.56 z m 9.64,-17.02 -19.79,-11.2 7.3,-12.69 20.68,11.74 -7.21,12.72 -0.98,-0.57 z m -79.14,44.1 -2.4,-1.29 -0.06,-16.02 10.32,5.54 -6.87,12.33 -0.99,-0.56 z m 9.19,-16.2 -11.76,-6.36 -0.26,-17.56 20.44,11.32 -7.43,13.14 -0.99,-0.54 z m 9.7,-17.08 -21.66,-12.27 -0.06,-8.98 7.3,-4.22 22.74,12.9 -7.31,13.14 -1.01,-0.57 z m 19.22,-34.07 -9.73,-5.5 14.48,-8.6 3.43,1.84 -7.17,12.83 -1.01,-0.57 z m -9.69,16.99 -19.54,-11.07 14.91,-8.85 13.09,7.42 -7.46,13.07 -1,-0.57 z m -24.68,-36.59 -6.99,-3.82 -0.1,-16.92 22.1,12.53 -14.44,8.53 -0.57,-0.32 z m -6.65,24.64 -0.07,-14.17 26.84,-15.83 13.98,7.96 -40.73,24.03 -0.02,-1.99 z m -24.93,46.51 -8.99,-5.03 -1.25,-12.94 3.52,-1.93 8.29,5.06 0.17,15.82 -1.74,-0.98 z m -11.03,-25.19 -1.46,-13.48 13.66,-8.06 0.22,16.11 -12.23,7.21 -0.19,-1.78 z m 3.35,-22.77 -5.9,-3.54 -1.95,-18.55 16.71,9.47 0.05,8.03 -8.33,4.94 -0.58,-0.35 z m 7.08,-18.81 -15.43,-8.75 -1.83,-18.33 18.87,10.7 0.12,17.36 -1.73,-0.98 z m -0.21,-22.6 -17.57,-9.97 -1.85,-17.95 20.98,11.86 0.18,17.04 -1.74,-0.98 z m 24.6,-16.06 c 5.06,-11.7 20.55,-55.48 -25.5,-92.54 46.05,-18.86 128.91,0.34 146.17,83.09 -9.69,-6.19 -60.71,-19.76 -92.28,25.72 l -28.39,-16.27 z m -78.12,-177 -12.35,-7.16 -0.16,-31.07 13.89,-8.25 0.36,47.49 -1.74,-1.01 z m -25.34,-14.5 -14.1,-7.97 21.9,-12.82 0.05,16.84 -7.29,4.27 -0.56,-0.32 z m 85.36,39.05 -45.88,-78.42 11.45,-6.77 46.51,79.46 -11.51,6.71 -0.57,-0.98 z m 23.74,-50.25 -14.05,-24.09 15.37,-9 0.6,0.4 c 3.73,2.46 6.71,5.69 9.08,9.84 2.72,4.72 4.11,9.83 4.08,14.79 l -0.01,0.67 -14.5,8.38 -0.57,-0.99 z m -7.87,41.03 -6.59,-11.25 20.59,-12.01 7.13,12.19 -20.55,12.06 -0.58,-0.99 z m -9.51,-16.09 -7.09,-11.97 20.59,-12.03 7.7,12.96 -20.62,12.01 -0.58,-0.97 z m -9.81,-16.94 -7.03,-11.99 20.5,-11.98 7.64,12.95 -20.52,12 -0.59,-0.98 z m -9.89,-16.88 -6.97,-12.03 20.58,-12.01 7.54,13.03 -20.58,11.99 -0.57,-0.98 z m -9.96,-16.85 -6.78,-11.82 20.61,-11.8 7.47,12.55 -20.73,12.09 -0.57,-1.02 z m 15.44,81.15 -13.46,-7.77 10.37,-6.06 7.15,12.18 -3.5,1.97 -0.56,-0.32 z m -18.61,-10.67 -14.52,-8.3 20.3,-11.84 7.45,13.09 -12.65,7.38 -0.58,-0.33 z m -19.66,-11.17 -7.08,-4 -0.18,-8.52 22.71,-13.27 7.65,12.96 -22.53,13.16 -0.57,-0.33 z m -7.38,-42.33 -0.09,-14.74 3.32,-2.19 7.46,12.7 -10.69,6.22 v -1.99 z m 0.18,22.56 -0.13,-15.36 12.97,-7.57 7.45,13.08 -20.27,11.83 -0.02,-1.98 z m 5.29,64.5 -5.03,-9.04 -0.01,-3.13 8.14,-4.85 14.11,8.09 -16.63,9.96 -0.58,-1.03 z m 21.75,-12.07 -49.88,-28.42 -1.25,-1.38 c -8.57,-9.21 -18.23,-17.67 -28.7,-25.16 -0.03,-0.03 -2.6,-2.07 -2.6,-2.07 l 4.54,-2.91 92.06,52.4 -13.61,7.86 -0.56,-0.32 z m -372.29,-41.55 0.35,-45.47 13.9,8.25 -0.17,31.07 -14.09,8.17 0.01,-2.02 z m 25.95,-13.51 -6.73,-3.93 0.06,-16.84 21.9,12.82 -14.67,8.29 -0.56,-0.34 z m -85.79,39.48 -10.51,-6.14 46.49,-79.46 11.47,6.77 -46.46,79.4 -0.99,-0.57 z m -23.75,-50.25 -13.51,-7.8 -0.01,-0.67 c -0.04,-4.96 1.37,-10.07 4.07,-14.78 2.39,-4.16 5.36,-7.39 9.1,-9.85 l 0.59,-0.4 15.36,9 -14.61,25.08 -0.99,-0.58 z m 7.87,41.03 -19.56,-11.48 7.12,-12.19 20.6,12.01 -7.18,12.24 -0.98,-0.58 z m 9.51,-16.09 -19.64,-11.45 7.7,-12.96 20.59,12.03 -7.66,12.94 -0.99,-0.56 z m 9.8,-16.94 -19.54,-11.43 7.65,-12.95 20.49,11.98 -7.61,12.97 -0.99,-0.57 z m 9.89,-16.88 -19.57,-11.42 7.53,-13.03 20.57,12.01 -7.53,13.01 -1,-0.57 z m 9.97,-16.83 -19.73,-11.5 7.45,-12.55 20.63,11.8 -7.35,12.84 -1,-0.59 z m -15.01,80.72 -2.93,-1.65 7.16,-12.18 10.37,6.06 -14.03,8.09 -0.57,-0.32 z m 18.58,-10.67 -12.07,-7.05 7.46,-13.09 20.28,11.84 -15.09,8.63 -0.58,-0.33 z m 19.69,-11.18 -21.97,-12.82 7.65,-12.96 22.71,13.27 -0.18,8.52 -7.65,4.33 -0.56,-0.34 z m 6.79,-41.32 -8.95,-5.23 7.45,-12.69 3.31,2.18 -0.11,16.73 -1.7,-0.99 z m -0.18,22.54 -18.57,-10.83 7.46,-13.08 12.96,7.57 -0.14,17.34 -1.71,-1 z m -26.45,51.43 -13.03,-7.52 92.06,-52.4 4.55,2.93 -3,2.33 c -10.21,7.32 -19.62,15.53 -28.03,24.47 l -1.52,1.77 -50.46,28.76 -0.57,-0.34 z m 21.29,12.5 -15.62,-9.34 14.11,-8.09 8.15,4.85 -0.02,3.13 -5.61,10.07 -1.01,-0.62 z m -37.53,271.24 c -0.47,-1.3 -0.98,-2.63 -1.53,-3.97 -3.47,-8.45 -11.77,-19.35 -11.77,-19.35 l 16.47,-9.35 -3.17,32.67 z m -3.94,41.72 -1.14,11.31 -0.41,4.11 c -4.14,-8.87 -4.99,-17.23 -1.89,-18.69 0.96,-0.44 2.21,-0.16 3.59,0.71 l -0.15,2.56 z m -3.89,35.21 -1.21,12.03 -0.52,4.58 c -0.52,-0.96 -1.03,-1.97 -1.52,-3.01 -4.14,-8.86 -5,-17.24 -1.91,-18.68 1.46,-0.66 3.5,0.28 5.69,2.38 l -0.53,2.7 z m 454.17,-2.7 c 2.18,-2.1 4.22,-3.04 5.67,-2.38 3.1,1.44 2.25,9.82 -1.9,18.68 -0.48,1.04 -1,2.05 -1.53,3.01 l -0.93,-4.58 -1.24,-12.38 -0.07,-2.35 z m -3.52,-35.07 c 1.38,-0.87 2.62,-1.15 3.59,-0.71 4.69,2.21 2.6,9.08 -1.89,18.69 l -0.8,-4.1 -1.13,-11.31 0.23,-2.57 z m -6.96,-71.83 16.47,9.35 -0.79,0.74 c -3.33,3.26 -7.5,10.16 -10.98,18.61 -0.54,1.34 -1.06,2.67 -1.53,3.97 l -0.88,-5.64 -2.26,-22.55 -0.03,-4.48 z m -122.75,-324.31 c -0.4,-1.08 -0.41,-2.07 -0.01,-2.89 1.52,-2.93 8.19,-2.53 14.93,0.93 3.76,1.92 6.73,4.38 8.36,6.71 l -1.24,0.27 -5.85,3.4 -1.78,-0.76 c -4.23,-2.51 -8.58,-4.85 -13.03,-7.04 l -1.38,-0.62 z m -34.32,-13.08 c -4.75,-1.33 -9.58,-2.52 -14.49,-3.54 l -2.93,-1.6 c -0.61,-1.71 -0.23,-2.08 0.54,-3.07 2.87,-3.68 8.64,-0.84 14.48,3.73 2.18,1.7 3.61,2.48 4.93,4.28 l -2.53,0.2 z m -104.07,-3.56 c -4.66,0.97 -9.27,2.11 -13.8,3.36 l -3.56,1.1 c 1.31,-1.81 3.12,-3.68 5.28,-5.38 5.96,-4.66 12.44,-6.34 14.48,-3.73 0.77,0.99 0.8,2.47 0.18,4.16 l -2.58,0.49 z m -50.46,17.42 c -4.5,2.23 -8.89,4.61 -13.18,7.15 l -1.36,0.49 -7.09,-3.67 c 1.64,-2.33 4.61,-4.79 8.37,-6.71 6.75,-3.46 13.42,-3.86 14.92,-0.93 0.43,0.82 0.39,1.81 0,2.89 l -1.66,0.78 z m 94.79,671.67 c 9.73,0 17.62,7.9 17.62,17.63 0,9.74 -7.89,17.64 -17.62,17.64 -9.75,0 -17.63,-7.9 -17.63,-17.64 0,-9.73 7.88,-17.63 17.63,-17.63 z m 0.54,41.36 c 7.68,0 13.91,6.23 13.91,13.92 0,7.69 -6.23,13.92 -13.91,13.92 -7.69,0 -13.92,-6.23 -13.92,-13.92 0,-7.69 6.23,-13.92 13.92,-13.92 z m -0.54,35.37 c 6.82,0 12.36,5.55 12.36,12.38 0,6.83 -5.54,12.37 -12.36,12.37 -6.84,0 -12.38,-5.54 -12.38,-12.37 0,-6.83 5.54,-12.38 12.38,-12.38 z m 0,32.8 c 5.29,0 9.58,4.29 9.58,9.59 0,5.29 -4.29,9.58 -9.58,9.58 -5.3,0 -9.59,-4.29 -9.59,-9.58 0,-5.3 4.29,-9.59 9.59,-9.59 z m 0,26.03 c 4.78,0 8.65,3.87 8.65,8.66 0,4.78 -3.87,8.66 -8.65,8.66 -4.79,0 -8.67,-3.88 -8.67,-8.66 0,-4.79 3.88,-8.66 8.67,-8.66 z m 5.96,40.58 v 15.79 h -11.12 v -16.2 l -0.03,-0.99 h -17.16 v -11.13 h 45.78 v 11.13 h -17.43 l -0.04,1.4 z m -5.56,-233.59 c 4.63,0 8.4,3.75 8.4,8.38 0,4.63 -3.77,8.39 -8.4,8.39 -4.63,0 -8.4,-3.76 -8.4,-8.39 0,-4.63 3.77,-8.38 8.4,-8.38 z m -124.8,50.36 c 9.73,0 17.62,7.89 17.62,17.63 0,9.74 -7.89,17.63 -17.62,17.63 -9.74,0 -17.64,-7.89 -17.64,-17.63 0,-9.74 7.9,-17.63 17.64,-17.63 z m 8.73,47.36 c 7.68,0 13.91,6.23 13.91,13.92 0,7.69 -6.23,13.92 -13.91,13.92 -7.68,0 -13.92,-6.23 -13.92,-13.92 0,-7.69 6.24,-13.92 13.92,-13.92 z m 17.45,36.46 c 6.83,0 12.39,5.55 12.39,12.38 0,6.83 -5.56,12.37 -12.39,12.37 -6.83,0 -12.37,-5.54 -12.37,-12.37 0,-6.83 5.54,-12.38 12.37,-12.38 z m 19.1,29.53 c 5.29,0 9.58,4.29 9.58,9.58 0,5.3 -4.29,9.59 -9.58,9.59 -5.3,0 -9.59,-4.29 -9.59,-9.59 0,-5.29 4.29,-9.58 9.59,-9.58 z m 20.74,18.93 c 4.78,0 8.65,3.88 8.65,8.66 0,4.79 -3.87,8.66 -8.65,8.66 -4.79,0 -8.67,-3.87 -8.67,-8.66 0,-4.78 3.88,-8.66 8.67,-8.66 z m 22.37,14.17 c 3.58,0 6.48,2.9 6.48,6.5 0,3.58 -2.9,6.49 -6.48,6.49 -3.6,0 -6.51,-2.91 -6.51,-6.49 0,-3.6 2.91,-6.5 6.51,-6.5 z m -83.01,-208.35 c 4.64,0 8.4,3.76 8.4,8.4 0,4.64 -3.76,8.39 -8.4,8.39 -4.63,0 -8.38,-3.75 -8.38,-8.39 0,-4.64 3.75,-8.4 8.38,-8.4 z m -124.6,33.25 c 9.74,0 17.62,7.9 17.62,17.64 0,9.73 -7.88,17.62 -17.62,17.62 -9.74,0 -17.63,-7.89 -17.63,-17.62 0,-9.74 7.89,-17.64 17.63,-17.64 z m 22.37,44.09 c 7.69,0 13.92,6.23 13.92,13.92 0,7.68 -6.23,13.92 -13.92,13.92 -7.69,0 -13.92,-6.24 -13.92,-13.92 0,-7.69 6.23,-13.92 13.92,-13.92 z m 26.19,31.01 c 6.83,0 12.37,5.54 12.37,12.37 0,6.84 -5.54,12.38 -12.37,12.38 -6.83,0 -12.38,-5.54 -12.38,-12.38 0,-6.83 5.55,-12.37 12.38,-12.37 z m 22.92,25.7 c 5.3,0 9.59,4.29 9.59,9.59 0,5.3 -4.29,9.58 -9.59,9.58 -5.3,0 -9.59,-4.28 -9.59,-9.58 0,-5.3 4.29,-9.59 9.59,-9.59 z m 24,17.84 c 4.78,0 8.66,3.88 8.66,8.67 0,4.78 -3.88,8.65 -8.66,8.65 -4.78,0 -8.66,-3.87 -8.66,-8.65 0,-4.79 3.88,-8.67 8.66,-8.67 z m 23.46,15.26 c 3.6,0 6.5,2.91 6.5,6.5 0,3.59 -2.9,6.5 -6.5,6.5 -3.59,0 -6.49,-2.91 -6.49,-6.5 0,-3.59 2.9,-6.5 6.49,-6.5 z m 267.25,-87.62 c 0,9.74 -7.89,17.63 -17.63,17.63 -9.73,0 -17.63,-7.89 -17.63,-17.63 0,-9.74 7.9,-17.63 17.63,-17.63 9.74,0 17.63,7.89 17.63,17.63 z m -12.45,43.65 c 0,7.69 -6.22,13.92 -13.92,13.92 -7.67,0 -13.91,-6.23 -13.91,-13.92 0,-7.69 6.24,-13.92 13.91,-13.92 7.7,0 13.92,6.23 13.92,13.92 z m -19,34.92 c 0,6.83 -5.53,12.37 -12.37,12.37 -6.83,0 -12.37,-5.54 -12.37,-12.37 0,-6.83 5.54,-12.38 12.37,-12.38 6.84,0 12.37,5.55 12.37,12.38 z m -21.88,26.73 c 0,5.3 -4.29,9.59 -9.59,9.59 -5.3,0 -9.58,-4.29 -9.58,-9.59 0,-5.29 4.28,-9.58 9.58,-9.58 5.3,0 9.59,4.29 9.59,9.58 z m -21.66,18.01 c 0,4.79 -3.88,8.66 -8.65,8.66 -4.8,0 -8.68,-3.87 -8.68,-8.66 0,-4.78 3.88,-8.66 8.68,-8.66 4.77,0 8.65,3.88 8.65,8.66 z m -24.54,12.01 c 0,3.58 -2.91,6.49 -6.5,6.49 -3.58,0 -6.49,-2.91 -6.49,-6.49 0,-3.6 2.91,-6.5 6.49,-6.5 3.59,0 6.5,2.9 6.5,6.5 z m 84.9,-206.45 c 0,4.64 -3.75,8.39 -8.39,8.39 -4.63,0 -8.4,-3.75 -8.4,-8.39 0,-4.64 3.77,-8.4 8.4,-8.4 4.64,0 8.39,3.76 8.39,8.4 z m 133.84,42.49 c 0,9.73 -7.89,17.62 -17.63,17.62 -9.73,0 -17.63,-7.89 -17.63,-17.62 0,-9.74 7.9,-17.64 17.63,-17.64 9.74,0 17.63,7.9 17.63,17.64 z m -26.08,40.37 c 0,7.68 -6.23,13.92 -13.91,13.92 -7.69,0 -13.92,-6.24 -13.92,-13.92 0,-7.69 6.23,-13.92 13.92,-13.92 7.68,0 13.91,6.23 13.91,13.92 z m -27.74,29.46 c 0,6.84 -5.53,12.38 -12.36,12.38 -6.83,0 -12.38,-5.54 -12.38,-12.38 0,-6.83 5.55,-12.37 12.38,-12.37 6.83,0 12.36,5.54 12.36,12.37 z m -25.69,22.92 c 0,5.3 -4.29,9.58 -9.59,9.58 -5.29,0 -9.59,-4.28 -9.59,-9.58 0,-5.3 4.3,-9.59 9.59,-9.59 5.3,0 9.59,4.29 9.59,9.59 z m -24.93,16.92 c 0,4.78 -3.89,8.65 -8.67,8.65 -4.78,0 -8.66,-3.87 -8.66,-8.65 0,-4.79 3.88,-8.67 8.66,-8.67 4.78,0 8.67,3.88 8.67,8.67 z m -25.64,13.09 c 0,3.59 -2.91,6.5 -6.49,6.5 -3.59,0 -6.5,-2.91 -6.5,-6.5 0,-3.59 2.91,-6.5 6.5,-6.5 3.58,0 6.49,2.91 6.49,6.5 z M 2338.27,3978.3 c -0.56,2.56 -1.36,5.47 -2.38,8.52 -0.76,2.29 -1.56,4.44 -2.37,6.38 l -0.38,0.71 c -3.32,-1.13 -5.71,-4.29 -5.71,-8 0,-4.64 3.78,-8.43 8.44,-8.43 0.81,0 1.58,0.11 2.32,0.33 l 0.08,0.49 z m 513.33,-0.49 c 0.75,-0.22 1.53,-0.33 2.33,-0.33 4.66,0 8.45,3.79 8.45,8.43 0,3.71 -2.41,6.87 -5.72,8 l -0.39,-0.71 c -0.8,-1.94 -1.61,-4.09 -2.37,-6.38 -1.02,-3.05 -1.82,-5.96 -2.37,-8.52 l 0.07,-0.49 z m -256.43,-684.86 c 9.57,0 17.32,19.79 17.32,44.23 0,24.42 -7.75,44.22 -17.32,44.22 -9.57,0 -17.32,-19.8 -17.32,-44.22 0,-24.44 7.75,-44.23 17.32,-44.23 z m 25.7,892.58 0.03,-5.16 c 0,-0.19 14.35,-108.38 15.78,-119.27 -0.52,-0.33 -1.05,-0.69 -1.05,-0.69 0,0 -22.86,-14.53 -23.13,-14.7 -0.1,-0.04 -3.06,-1.66 -3.06,-1.66 l 0.94,-2.85 c 2.86,0.39 5.8,0.53 8.74,0.41 17.22,-0.76 30.84,-10.39 30.35,-21.48 -0.48,-11.08 -14.89,-19.49 -32.11,-18.74 0,0 -1.85,0.12 -1.87,0.12 0,0.02 -1.74,0.35 -1.74,0.35 l -5.48,1.09 4.15,-3.73 c 6.17,-5.48 14.93,-8.63 24.08,-8.63 4.1,0 8.09,0.61 11.86,1.8 0.1,0.04 0.5,0.24 0.87,0.43 6.13,-6.32 15.49,-10.13 25.46,-10.13 8.04,0 15.73,2.38 21.7,6.71 l 0.14,0.1 3.45,3.95 -9.86,0.07 c -17.19,1.27 -30.51,11.29 -29.69,22.37 0.29,3.83 2.27,7.44 5.74,10.43 6.23,5.38 16.29,8.12 26.92,7.34 l 12.3,-1.84 -3.87,3.43 -2.57,2.21 c 0.07,-0.07 -24.54,24.41 -24.54,24.41 0,0 -0.96,1.01 -1.59,1.66 1.17,6.45 1.78,12.96 1.78,19.47 0,33.46 -15.03,67.32 -42.86,95.37 l -10.91,10.88 0.04,-3.72 z m 110.99,-49.82 1.7,-5.21 c 3.52,-7.43 6.76,-14.93 9.72,-22.48 5.88,-14.98 10.45,-30.1 14.41,-47.5 -0.68,-0.86 -2.68,-3.41 -2.68,-3.41 0.03,0.03 -22.27,-26.75 -22.27,-26.75 l -0.15,-0.17 -1.87,-4.18 2.71,0.36 c 3.09,0.4 6.28,0.48 9.48,0.24 10.63,-0.77 20.19,-4.97 25.56,-11.19 2.99,-3.48 4.42,-7.34 4.15,-11.17 -0.81,-11.06 -15.47,-19.04 -32.66,-17.78 -2.74,0.21 -5.42,0.63 -7.99,1.27 -0.08,0.03 -7.13,2.03 -7.13,2.03 l 3.24,-3.82 c 6.05,-7.17 16.08,-11.46 26.81,-11.46 4.2,0 8.28,0.64 12.12,1.89 0.03,0.01 0.17,0.08 0.26,0.12 5.62,-8.41 16.52,-13.87 28.42,-13.87 5.6,0 11.15,1.17 16,3.4 l 5.23,2.42 c 0,0 -7.71,0.67 -7.73,0.67 0,0.01 -1.13,0.23 -1.13,0.23 -10.44,2.11 -19.38,7.46 -23.92,14.32 -1.97,2.96 -2.97,6.04 -2.97,9.02 0,0.87 0.08,1.74 0.26,2.59 1.9,9.38 13.92,15.41 28.59,14.35 l 0.17,-0.01 2.69,0.4 -0.21,1.49 c -3.84,26.63 -16.12,55.42 -34.61,81.06 -12.65,17.56 -27.81,33.06 -43.85,44.85 l -3.84,2.81 1.49,-4.52 z m -165.53,50.92 -8.28,-8.26 c -27.84,-28.05 -42.85,-61.91 -42.85,-95.37 0,-6.52 0.6,-13.02 1.76,-19.47 -0.58,-0.62 -1.6,-1.69 -1.6,-1.69 l -24.59,-24.45 c 0.07,0.06 -2.48,-2.14 -2.48,-2.14 l -4.01,-3.45 12.43,1.86 c 17.19,1.27 31.84,-6.71 32.65,-17.77 0.82,-11.08 -12.51,-21.1 -29.7,-22.37 l -9.74,-0.07 2.08,-2.5 1.27,-1.45 0.14,-0.1 c 5.96,-4.33 13.66,-6.71 21.69,-6.71 9.98,0 19.33,3.81 25.46,10.13 0.32,-0.16 0.64,-0.33 0.64,-0.33 4.01,-1.29 8,-1.9 12.09,-1.9 9.16,0 17.93,3.15 24.08,8.63 l 4.16,3.73 -7.38,-1.46 c 0.17,0.02 -1.73,-0.1 -1.73,-0.1 -10.62,-0.46 -20.61,2.58 -26.68,8.13 -3.36,3.1 -5.25,6.77 -5.43,10.61 -0.15,3.84 1.39,7.65 4.5,11.05 5.55,6.06 15.22,9.96 25.86,10.43 2.95,0.12 5.89,-0.02 8.74,-0.41 l 0.94,2.85 -3.1,1.68 c 0.08,-0.04 -23.1,14.69 -23.1,14.69 0,0 -0.54,0.35 -1.04,0.68 0.25,1.88 15.77,119.08 15.77,119.08 0.01,0.18 0.05,5.34 0.05,5.34 l 0.03,3.73 -2.63,-2.62 z m -110.75,-49.21 c -16.03,-11.79 -31.19,-27.29 -43.84,-44.85 -18.49,-25.64 -30.78,-54.43 -34.61,-81.06 l -0.22,-1.49 2.69,-0.4 0.17,0.01 c 14.67,1.06 26.69,-4.97 28.59,-14.35 0.18,-0.85 0.26,-1.72 0.26,-2.59 0,-2.98 -1,-6.06 -2.96,-9.02 -4.55,-6.86 -13.49,-12.21 -23.93,-14.32 l -1.23,-0.24 c -0.02,0.01 -1.89,-0.17 -1.89,-0.17 l -5.73,-0.49 5.22,-2.42 c 4.86,-2.23 10.39,-3.4 16.01,-3.4 11.89,0 22.79,5.46 28.41,13.86 0.03,-0.01 0.13,-0.06 0.13,-0.06 3.98,-1.3 8.05,-1.94 12.25,-1.94 10.73,0 20.76,4.29 26.82,11.46 l 3.23,3.82 -7.17,-2.04 c -2.52,-0.63 -5.21,-1.05 -7.95,-1.26 -10.62,-0.78 -20.68,1.96 -26.91,7.34 -3.47,3 -5.46,6.61 -5.74,10.44 -0.81,11.07 12.51,21.1 29.7,22.36 3.21,0.24 6.4,0.16 9.48,-0.24 l 2.71,-0.36 -1.88,4.18 -22.44,26.95 c 0,0 -1.79,2.29 -2.65,3.38 3.96,17.4 8.54,32.52 14.41,47.5 2.97,7.56 6.21,15.07 9.65,22.3 0.07,0.18 1.78,5.39 1.78,5.39 l 1.48,4.52 -3.84,-2.81 z m 141.5,-220.9 c 82.34,-0.18 157,-8.43 212.03,-21.77 l 2.16,-0.54 c 4.09,5.51 7.15,14.02 8.46,24.03 l -1.92,0.66 c -55.81,14.56 -134.04,23.66 -220.73,23.82 h -4.36 c -86.7,-0.16 -164.92,-9.26 -220.74,-23.82 l -1.91,-0.66 c 1.3,-10.01 4.36,-18.52 8.46,-24.03 l 2.16,0.54 c 55.15,13.36 130.02,21.63 212.57,21.78 l 3.82,-0.01 z m 219.05,-53.11 0.32,1.71 c -43.73,15.5 -124.96,25.99 -218.28,26.32 h -4.91 c 0.18,0 0.36,0 0.55,0 h -0.55 c -94.01,-0.2 -175.92,-10.73 -219.9,-26.32 l 0.3,-1.71 32.65,-324.65 0.4,-1.61 c 11.33,-83.87 90.3,-149.19 186.55,-149.68 h 3 c 96.38,0.37 175.48,65.73 186.83,149.68 l 0.4,1.61 32.64,324.65 z m -571.95,-70.57 c -4.3,12.77 -4.78,25.05 5.08,31.56 -3.1,21.87 4.32,36.02 14.97,31.91 2.14,30.72 22.02,36.44 39.75,16.87 -12.35,-19.83 -10.67,-32.3 -10.12,-46.9 -4.46,-2.18 -10.33,-12.85 -4.71,-33.44 1.84,-6.76 4.93,-14.61 9.72,-23.59 l 16.73,-9.09 c -7.54,12.79 -12.12,23.66 -14.57,32.68 v 0.68 c -5,17.8 -1.02,28.54 5.11,32.04 -4.4,27.79 7.72,50.69 22.12,40.81 8.67,16.04 20.97,14.93 35.46,8.26 l -0.35,2.96 -1.24,12.34 3.58,0.73 c -5.52,7.43 -9.16,20.31 -9.16,34.95 0,0.28 0,0.54 0,0.82 l 0.24,1.21 c -8.78,3.95 -17.79,17.12 -22.37,34.13 -0.44,1.62 -0.82,3.21 -1.16,4.82 l -0.59,1.55 -0.2,0.54 c -7.51,0.49 -13.47,7.89 -13.47,16.95 0,4.69 1.6,8.92 4.18,12 l 0.04,1.64 c -1.27,8.43 -5.55,18.57 -12.47,28.26 -2.21,3.1 -4.56,5.95 -6.96,8.53 l 0.05,0.68 c 3.82,3.95 9.6,6.47 16.06,6.47 0.83,0 1.65,-0.04 2.45,-0.13 l 1.02,-0.38 c -1.53,3.58 -2.36,7.53 -2.36,11.68 0,15.73 12.12,28.64 27.53,29.9 l -0.23,0.67 c -1.19,3.03 -1.84,6.34 -1.84,9.8 0,14.86 12.05,26.91 26.91,26.91 0.27,0 0.55,0 0.82,-0.01 l 0.75,0.1 c -0.08,0.81 -0.13,1.63 -0.13,2.46 0,13.67 11.09,24.75 24.75,24.75 0.37,0 0.73,-0.01 1.1,-0.03 l 0.02,0.92 c 1.34,10.85 10.59,19.24 21.8,19.24 1.19,0 2.37,-0.1 3.51,-0.29 l 0.16,0.66 c 2.39,8.99 10.59,15.61 20.33,15.61 2.11,0 4.15,-0.3 6.07,-0.88 l 0.36,1.06 c 3.03,6.36 9.52,10.76 17.03,10.76 7.78,0 14.47,-4.71 17.35,-11.44 l 0.88,0.36 c 1.29,0.45 2.63,0.8 4,1.04 l 0.93,0.17 c -0.07,0.72 -0.1,1.45 -0.1,2.18 0,12.13 9.82,21.97 21.96,21.97 0.44,0 0.9,-0.02 1.35,-0.04 l 0.01,0.99 c 2.21,9.24 10.53,16.12 20.45,16.12 1.46,0 2.88,-0.14 4.25,-0.42 l 0.87,0.7 c 3.15,6.01 9.46,10.11 16.72,10.11 2.47,0 4.84,-0.48 7,-1.35 l -0.24,1.3 c -0.12,1.08 -0.18,2.17 -0.18,3.27 0,13.51 9.03,24.92 21.37,28.52 l -0.02,0.81 v 7.78 l -1.07,-0.04 h -10.25 v 16.71 h 10.12 l 1.2,-0.04 v 11.62 h 8.35 2.72 5.63 v -11.62 l 1.2,0.04 h 10.1 v -16.71 h -10.25 l -1.05,0.04 v -7.78 l -0.03,-0.81 c 12.35,-3.6 21.37,-15.01 21.37,-28.52 0,-1.1 -0.07,-2.19 -0.17,-3.27 l -0.25,-1.3 c 2.16,0.87 4.54,1.35 7,1.35 7.26,0 13.57,-4.1 16.72,-10.11 l 0.87,-0.7 c 1.38,0.28 2.79,0.42 4.25,0.42 9.92,0 18.24,-6.88 20.46,-16.12 l 0.02,-0.99 c 0.44,0.02 0.88,0.04 1.35,0.04 12.12,0 21.96,-9.84 21.96,-21.97 0,-0.73 -0.04,-1.46 -0.12,-2.18 l 0.93,-0.17 c 1.39,-0.24 2.71,-0.59 4.01,-1.04 l 0.87,-0.36 c 2.89,6.73 9.57,11.44 17.35,11.44 7.52,0 14.01,-4.4 17.05,-10.76 l 0.33,-1.06 c 1.93,0.58 3.96,0.88 6.08,0.88 9.75,0 17.94,-6.62 20.33,-15.61 l 0.16,-0.66 c 1.14,0.19 2.31,0.29 3.52,0.29 11.21,0 20.45,-8.39 21.79,-19.24 l 0.02,-0.92 c 0.37,0.02 0.74,0.03 1.11,0.03 13.66,0 24.74,-11.08 24.74,-24.75 0,-0.83 -0.05,-1.65 -0.12,-2.46 l 0.75,-0.1 c 0.26,0.01 0.54,0.01 0.82,0.01 14.85,0 26.91,-12.05 26.91,-26.91 0,-3.46 -0.65,-6.77 -1.85,-9.8 l -0.22,-0.67 c 15.41,-1.26 27.52,-14.17 27.52,-29.9 0,-4.15 -0.83,-8.1 -2.34,-11.68 l 0.99,0.38 c 0.81,0.09 1.62,0.13 2.45,0.13 6.48,0 12.25,-2.52 16.09,-6.47 l 0.03,-0.68 c -2.39,-2.58 -4.74,-5.43 -6.95,-8.53 -6.92,-9.69 -11.21,-19.83 -12.48,-28.26 l 0.04,-1.64 c 2.58,-3.08 4.19,-7.31 4.19,-12 0,-9.06 -5.96,-16.46 -13.48,-16.95 l -0.2,-0.54 -0.58,-1.55 c -0.34,-1.61 -0.73,-3.2 -1.17,-4.82 -4.59,-17.01 -13.58,-30.18 -22.36,-34.13 l 0.23,-1.21 c 0,-0.28 0,-0.54 0,-0.82 0,-14.64 -3.63,-27.52 -9.15,-34.95 l 3.58,-0.73 -0.92,-13.84 c 14.49,6.69 27.25,6.32 35.92,-9.72 14.4,9.88 26.52,-13.02 22.12,-40.81 6.12,-3.5 10.11,-14.24 5.1,-32.04 v -0.68 c -2.44,-9.02 -7.03,-19.89 -14.56,-32.68 l 16.73,9.09 c 4.8,8.98 7.88,16.83 9.73,23.59 5.62,20.59 -0.25,31.26 -4.72,33.44 0.54,14.6 2.23,27.07 -10.11,46.9 17.72,19.57 37.59,13.85 39.73,-16.87 10.67,4.11 18.08,-10.04 14.97,-31.91 9.87,-6.51 9.34,-18.79 4.95,-31.56 -6.71,-19.6 -22.47,-40.37 -23.59,-43.26 7.36,-3.05 13.78,-8.89 18.42,-16.91 5.12,-8.89 6.61,-18.71 4.82,-27.25 l -14.27,-7.84 15.44,-27.19 -66.54,-38.21 c 24.07,-37.16 77.96,-30.09 96.06,-6.79 0.77,-59.33 -32.4,-89.3 -50.68,-103.69 22.66,-18.63 10.7,-25.53 4.35,-30.75 -9.44,-7.74 -23.9,-14.45 -30.13,-16.88 -4.23,-1.64 -5.44,-2.16 -4.17,-10.33 2.98,-14.89 -27.79,-14.48 -34.4,-14.45 l 13.06,-7.78 -15.84,-27.15 14.21,-8.69 c 1.46,-8.25 -0.08,-17.63 -4.97,-26.15 -5.1,-8.9 -12.84,-15.12 -21.1,-17.87 l -13.97,8.38 -15.01,-27.01 c -8.93,8.16 -34.2,9.16 -32.26,-11.56 3.12,-12.96 -6.63,-24.56 -21.13,-21.96 -3.36,-0.09 -12.13,1.6 -12.31,-9.98 -5.88,-29.18 -84.7,-7.28 -96.68,10.65 24.11,-2.29 45,-4.8 46.01,6.48 8.08,16 8.91,11.62 19.53,15.83 11.36,4.5 19.76,13.47 16.61,22.48 -3.14,10.7 3.93,19.8 12.45,27.31 l -8.07,4.6 c -10.21,-8.42 -20.31,-17.52 -17.23,-29.17 6.34,-11.58 -6.95,-16.28 -14.34,-18.31 -6.92,-2.06 -11.32,-4.04 -14.33,-9.86 -4.39,-12.71 -23.82,-13.57 -34.03,-11.87 -9.1,1.52 -11.8,1.18 -17.51,-2.61 -7.15,-4.74 -16.37,-3.91 -22.84,-2.08 l -2.86,-8.74 c 13.91,-2.9 21.99,-1.56 26.53,0.34 26.45,-21.43 52.04,-21.76 67.59,-25.2 -32.72,-12.4 -85.82,6.11 -98.27,15.73 -5.2,-8.47 -12.35,-14.25 -19.72,-14.25 -7.37,0 -14.4,5.62 -19.59,14.08 -12.45,-9.61 -65.63,-27.96 -98.35,-15.56 15.54,3.44 41.14,3.77 67.59,25.2 4.54,-1.9 12.62,-3.24 26.54,-0.34 l -2.88,8.74 c -6.46,-1.83 -15.69,-2.66 -22.83,2.08 -5.73,3.79 -8.42,4.13 -17.5,2.61 -10.2,-1.7 -29.65,-0.84 -34.05,11.87 -3.02,5.82 -7.4,7.8 -14.31,9.86 -7.42,2.03 -20.7,6.73 -14.35,18.31 3.09,11.65 -7.02,20.75 -17.24,29.17 l -8.05,-4.6 c 8.5,-7.51 15.58,-16.61 12.43,-27.31 -3.14,-9.01 5.26,-17.98 16.62,-22.48 10.61,-4.21 11.45,0.17 19.54,-15.83 1,-11.28 21.89,-8.77 46,-6.48 -11.99,-17.93 -90.8,-39.83 -96.68,-10.65 -0.19,11.58 -8.94,9.89 -12.32,9.98 -14.48,-2.6 -24.24,9 -21.12,21.96 1.93,20.72 -22.76,19.96 -31.71,11.8 l -16.3,26.77 -13.97,-8.38 c -8.26,2.75 -16,8.97 -21.11,17.87 -4.88,8.52 -6.42,17.9 -4.95,26.15 l 14.19,8.69 -15.83,27.15 14.36,8.38 c -6.61,-0.03 -37.94,-1.04 -34.97,13.85 1.29,8.17 0.07,8.69 -4.17,10.33 -6.22,2.43 -20.69,9.14 -30.12,16.88 -6.35,5.22 -18.85,12.12 3.79,30.75 -18.27,14.39 -51.61,44.36 -50.86,103.69 18.11,-23.3 72,-30.37 96.06,6.79 l -66.54,38.21 15.44,27.19 -14.28,7.84 c -1.77,8.54 -0.29,18.36 4.84,27.25 4.63,8.02 11.41,13.86 18.78,16.91 -1.12,2.89 -16.75,23.66 -23.36,43.26 v 0" /><path
         id="path32"
         style="fill:#1c1618;fill-opacity:1;fill-rule:nonzero;stroke:none"
         d="m 2564.83,3703.62 c -0.23,-2.35 -4.38,-43.45 -4.57,-45.37 -2.03,0 -141.84,0 -143.86,0 -0.2,1.96 -4.4,43.65 -4.57,45.37 2.47,0 150.53,0 153,0" /><path
         id="path34"
         style="fill:#1c1618;fill-opacity:1;fill-rule:nonzero;stroke:none"
         d="m 2530.21,3728.77 v 0 c 8.39,0.18 16.14,3.94 23.04,11.18 l 4.53,4.74 -6.55,0.4 c -5.57,0.36 -13.47,7.77 -14.94,16.45 -1.42,8.45 3.85,15.64 14.85,20.24 l 2.37,1 -0.58,2.51 c -2,8.65 4.77,26.83 14.7,34.28 3.16,2.38 6.16,2.97 9.11,2.03 -0.2,-1.96 -10.08,-99.93 -10.29,-101.92 -2.02,0 -154.21,0 -156.25,0 -0.19,1.93 -10.07,99.96 -10.27,101.92 2.95,0.94 5.93,0.35 9.09,-2.03 9.94,-7.45 16.71,-25.63 14.7,-34.28 l -0.57,-2.51 2.36,-1 c 11,-4.6 16.28,-11.79 14.85,-20.24 -1.46,-8.68 -9.36,-16.09 -14.93,-16.45 l -6.55,-0.4 4.53,-4.74 c 6.89,-7.24 14.65,-11 23.05,-11.18 12.5,-0.27 21.92,7.45 25.38,10.78 l 4.1,3.94 -5.53,1.25 c -13.36,3.01 -20.44,10.26 -19.45,19.88 0.96,9.25 9.12,17.49 17.47,17.62 l 2.95,0.06 0.05,2.94 c 0.46,23.25 6.64,36.7 16.96,36.89 10.22,-0.19 16.38,-13.64 16.83,-36.89 l 0.06,-2.94 2.94,-0.06 c 8.36,-0.13 16.52,-8.37 17.47,-17.62 0.99,-9.62 -6.09,-16.87 -19.43,-19.88 l -5.54,-1.25 4.09,-3.94 c 3.47,-3.33 12.9,-11.05 25.4,-10.78" /><path
         id="path36"
         style="fill:#1c1618;fill-opacity:1;fill-rule:nonzero;stroke:none"
         d="m 2778.02,3703.62 c -0.22,-2.35 -4.38,-43.45 -4.57,-45.37 -2.03,0 -141.82,0 -143.85,0 -0.19,1.92 -4.34,43.02 -4.58,45.37 2.47,0 150.54,0 153,0" /><path
         id="path38"
         style="fill:#1c1618;fill-opacity:1;fill-rule:nonzero;stroke:none"
         d="m 2743.39,3728.77 v 0 c 8.4,0.18 16.15,3.94 23.06,11.18 l 4.53,4.74 -6.54,0.4 c -5.58,0.36 -13.49,7.77 -14.96,16.45 -1.41,8.45 3.86,15.64 14.86,20.24 l 2.37,1 -0.58,2.51 c -2,8.65 4.76,26.83 14.7,34.28 3.17,2.38 6.15,2.97 9.09,2.03 -0.19,-1.96 -10.07,-99.93 -10.27,-101.92 -2.04,0 -154.21,0 -156.24,0 -0.2,1.99 -10.09,99.96 -10.29,101.92 2.96,0.94 5.94,0.35 9.1,-2.03 9.93,-7.45 16.71,-25.63 14.71,-34.28 l -0.59,-2.51 2.37,-1 c 11.01,-4.6 16.27,-11.79 14.86,-20.24 -1.47,-8.68 -9.37,-16.09 -14.94,-16.45 l -6.55,-0.4 4.52,-4.74 c 6.91,-7.24 14.66,-11 23.05,-11.18 12.5,-0.27 21.92,7.45 25.39,10.78 l 4.09,3.94 -5.53,1.25 c -13.34,3.01 -20.43,10.26 -19.44,19.88 0.95,9.25 9.12,17.49 17.46,17.62 l 2.95,0.06 0.06,2.93 c 0.46,23.26 6.63,36.71 16.95,36.9 10.24,-0.19 16.38,-13.64 16.84,-36.89 l 0.06,-2.94 2.95,-0.06 c 8.34,-0.13 16.51,-8.37 17.46,-17.62 0.99,-9.62 -6.09,-16.87 -19.43,-19.88 l -5.55,-1.25 4.1,-3.94 c 3.47,-3.33 12.9,-11.05 25.38,-10.78" /><path
         id="path40"
         style="fill:#1c1618;fill-opacity:1;fill-rule:nonzero;stroke:none"
         d="m 2677.99,3501.63 c -0.23,-2.34 -4.78,-47.49 -4.98,-49.43 -2.04,0 -153.64,0 -155.66,0 -0.2,1.94 -4.76,47.09 -4.99,49.43 2.47,0 163.15,0 165.63,0" /><path
         id="path42"
         style="fill:#1c1618;fill-opacity:1;fill-rule:nonzero;stroke:none"
         d="m 2509.73,3626.73 c 10.8,-8.09 18.15,-27.85 15.97,-37.25 l -0.59,-2.51 2.38,-1 c 11.98,-5.01 17.72,-12.86 16.16,-22.11 -1.59,-9.46 -10.23,-17.56 -16.34,-17.93 l -6.54,-0.41 4.52,-4.75 c 7.41,-7.75 15.72,-11.78 24.71,-11.98 13.4,-0.29 23.5,7.98 27.21,11.57 l 4.1,3.93 -5.53,1.25 c -14.54,3.28 -22.25,11.19 -21.16,21.71 1.04,10.1 9.96,19.09 19.08,19.23 l 2.95,0.06 0.05,2.94 c 0.49,25.23 7.24,39.82 18.54,40.04 11.19,-0.22 17.92,-14.81 18.41,-40.04 l 0.05,-2.94 2.95,-0.06 c 9.12,-0.14 18.04,-9.13 19.08,-19.22 1.09,-10.52 -6.62,-18.44 -21.16,-21.72 l -5.53,-1.25 4.08,-3.93 c 3.72,-3.59 13.84,-11.86 27.22,-11.57 9,0.2 17.31,4.23 24.71,11.98 l 4.53,4.75 -6.54,0.41 c -6.1,0.37 -14.75,8.47 -16.34,17.93 -1.56,9.25 4.17,17.1 16.15,22.11 l 2.39,1 -0.59,2.51 c -2.18,9.4 5.17,29.16 15.97,37.25 3.58,2.68 7,3.37 10.21,2.32 -0.18,-1.89 -10.95,-108.55 -11.14,-110.56 -2.04,0 -167,0 -169.03,0 -0.22,2.01 -10.96,108.61 -11.16,110.56 3.23,1.05 6.65,0.36 10.23,-2.32" /><path
         id="path44"
         style="fill:#1c1618;fill-opacity:1;fill-rule:nonzero;stroke:none"
         d="m 1135.07,2353.98 c 0,9.32 2.86,16.56 8.58,21.73 5.71,5.15 13.54,7.73 23.49,7.73 9.94,0 17.8,-2.68 23.59,-8.02 5.77,-5.34 8.67,-12.49 8.67,-21.44 0,-8.83 -2.9,-15.88 -8.67,-21.16 -5.79,-5.29 -13.65,-7.93 -23.59,-7.93 -10.07,0 -17.93,2.58 -23.59,7.74 -5.66,5.16 -8.48,12.27 -8.48,21.35 z m 13.05,-214.98 -11.75,44.75 c -2.73,9.94 -6.06,22.8 -9.97,38.59 -3.92,15.79 -6.5,27.1 -7.74,33.94 -1.12,-6.34 -3.32,-16.79 -6.62,-31.33 -3.29,-14.54 -10.6,-43.19 -21.91,-85.95 z m -102.37,214.98 c 0,9.32 2.87,16.56 8.59,21.73 5.71,5.15 13.42,7.73 23.11,7.73 9.82,0 17.63,-2.64 23.41,-7.93 5.77,-5.28 8.67,-12.46 8.67,-21.53 0,-8.83 -2.9,-15.88 -8.67,-21.16 -5.78,-5.29 -13.59,-7.93 -23.41,-7.93 -9.69,0 -17.4,2.55 -23.11,7.65 -5.72,5.09 -8.59,12.24 -8.59,21.44 z m 131.08,-326.49 -13.42,51.1 h -88.56 l -13.8,-51.1 h -80.925 l 88.935,273.72 h 98.26 l 90.06,-273.72 h -80.55" /><path
         id="path46"
         style="fill:#1c1618;fill-opacity:1;fill-rule:nonzero;stroke:none"
         d="m 1360.5,2182.07 h 13.79 c 25.73,0 38.6,11.37 38.6,34.12 0,18.77 -12.62,28.15 -37.85,28.15 h -14.54 z m 0,-55.38 v -99.2 h -73.65 v 272.6 h 89.31 c 74.08,0 111.13,-26.85 111.13,-80.54 0,-31.58 -15.42,-56 -46.25,-73.28 l 79.44,-118.78 h -83.54 l -57.8,99.2 h -18.64" /><path
         id="path48"
         style="fill:#1c1618;fill-opacity:1;fill-rule:nonzero;stroke:none"
         d="m 1799.42,2166.97 c 0,24.98 -4.95,43.5 -14.83,55.56 -9.88,12.06 -24.9,18.09 -45.03,18.09 h -21.44 v -152.71 h 16.41 c 22.37,0 38.78,6.49 49.22,19.48 10.44,12.99 15.67,32.85 15.67,59.58 z m 76.44,2.61 c 0,-45.5 -12.52,-80.55 -37.58,-105.16 -25.04,-24.61 -60.25,-36.93 -105.62,-36.93 h -88.19 v 272.6 h 94.35 c 43.75,0 77.53,-11.18 101.33,-33.56 23.81,-22.37 35.71,-54.69 35.71,-96.95" /><path
         id="path50"
         style="fill:#1c1618;fill-opacity:1;fill-rule:nonzero;stroke:none"
         d="m 2156.47,2300.09 v -164.08 c 0,-35.67 -10.11,-63.3 -30.3,-82.87 -20.2,-19.58 -49.31,-29.37 -87.35,-29.37 -37.17,0 -65.73,9.5 -85.68,28.53 -19.94,19.01 -29.92,46.36 -29.92,82.03 v 165.76 h 74.02 v -159.97 c 0,-19.27 3.61,-33.26 10.81,-41.96 7.21,-8.7 17.84,-13.05 31.88,-13.05 15.04,0 25.95,4.32 32.73,12.96 6.77,8.64 10.16,22.78 10.16,42.42 v 159.6 h 73.65" /><path
         id="path52"
         style="fill:#1c1618;fill-opacity:1;fill-rule:nonzero;stroke:none"
         d="m 2386.55,2182.07 h 13.8 c 25.73,0 38.6,11.37 38.6,34.12 0,18.77 -12.62,28.15 -37.85,28.15 h -14.55 z m 0,-55.38 v -99.2 h -73.64 v 272.6 h 89.31 c 74.09,0 111.13,-26.85 111.13,-80.54 0,-31.58 -15.42,-56 -46.25,-73.28 l 79.44,-118.78 H 2463 l -57.8,99.2 h -18.65" /><path
         id="path54"
         style="fill:#1c1618;fill-opacity:1;fill-rule:nonzero;stroke:none"
         d="m 2733.18,2027.49 h -161.84 v 272.6 h 161.84 v -59.1 h -88.2 v -42.89 h 81.67 V 2139 h -81.67 v -51.46 h 88.2 v -60.05" /><path
         id="path56"
         style="fill:#1c1618;fill-opacity:1;fill-rule:nonzero;stroke:none"
         d="m 2935.86,2166.97 c 0,24.98 -4.94,43.5 -14.83,55.56 -9.89,12.06 -24.9,18.09 -45.03,18.09 h -21.44 v -152.71 h 16.41 c 22.37,0 38.78,6.49 49.22,19.48 10.44,12.99 15.67,32.85 15.67,59.58 z m 76.44,2.61 c 0,-45.5 -12.52,-80.55 -37.57,-105.16 -25.05,-24.61 -60.26,-36.93 -105.63,-36.93 h -88.19 v 272.6 h 94.35 c 43.76,0 77.53,-11.18 101.33,-33.56 23.81,-22.37 35.71,-54.69 35.71,-96.95" /><path
         id="path58"
         style="fill:#1c1618;fill-opacity:1;fill-rule:nonzero;stroke:none"
         d="m 3128.65,2164.17 c 0,-52.7 18.33,-79.06 55,-79.06 18.66,0 32.48,6.4 41.5,19.21 9,12.8 13.51,32.75 13.51,59.85 0,27.22 -4.57,47.33 -13.7,60.32 -9.14,12.99 -22.79,19.48 -40.93,19.48 -36.92,0 -55.38,-26.6 -55.38,-79.8 z m 187.58,0 c 0,-45.87 -11.26,-80.74 -33.75,-104.6 -22.51,-23.86 -55.44,-35.8 -98.83,-35.8 -42.75,0 -75.53,11.99 -98.35,35.99 -22.81,23.98 -34.21,58.91 -34.21,104.78 0,45.37 11.33,80.02 34.03,103.95 22.68,23.93 55.65,35.89 98.91,35.89 43.38,0 76.26,-11.87 98.64,-35.61 22.37,-23.74 33.56,-58.61 33.56,-104.6" /><path
         id="path60"
         style="fill:#1c1618;fill-opacity:1;fill-rule:nonzero;stroke:none"
         d="m 3537.18,2027.49 h -72.53 v 272.6 h 161.08 v -59.1 h -88.55 v -52.02 h 81.66 v -59.1 h -81.66 v -102.38" /><path
         id="path62"
         style="fill:#1c1618;fill-opacity:1;fill-rule:nonzero;stroke:none"
         d="m 3805.49,2353.98 c 0,9.32 2.85,16.56 8.56,21.73 5.73,5.15 13.56,7.73 23.5,7.73 9.95,0 17.81,-2.68 23.59,-8.02 5.78,-5.34 8.68,-12.49 8.68,-21.44 0,-8.83 -2.9,-15.88 -8.68,-21.16 -5.78,-5.29 -13.64,-7.93 -23.59,-7.93 -10.07,0 -17.93,2.58 -23.58,7.74 -5.66,5.16 -8.48,12.27 -8.48,21.35 z m -67.51,-189.81 c 0,-52.7 18.34,-79.06 55.01,-79.06 18.65,0 32.47,6.4 41.49,19.21 9.01,12.8 13.51,32.75 13.51,59.85 0,27.22 -4.57,47.33 -13.7,60.32 -9.13,12.99 -22.78,19.48 -40.93,19.48 -36.91,0 -55.38,-26.6 -55.38,-79.8 z m -21.81,189.81 c 0,9.32 2.87,16.56 8.58,21.73 5.72,5.15 13.43,7.73 23.12,7.73 9.82,0 17.62,-2.64 23.39,-7.93 5.79,-5.28 8.67,-12.46 8.67,-21.53 0,-8.83 -2.88,-15.88 -8.67,-21.16 -5.77,-5.29 -13.57,-7.93 -23.39,-7.93 -9.69,0 -17.4,2.55 -23.12,7.65 -5.71,5.09 -8.58,12.24 -8.58,21.44 z m 209.39,-189.81 c 0,-45.87 -11.25,-80.74 -33.75,-104.6 -22.5,-23.86 -55.43,-35.8 -98.82,-35.8 -42.75,0 -75.54,11.99 -98.36,35.99 -22.81,23.98 -34.21,58.91 -34.21,104.78 0,45.37 11.34,80.02 34.03,103.95 22.68,23.93 55.66,35.89 98.91,35.89 43.39,0 76.26,-11.87 98.64,-35.61 22.38,-23.74 33.56,-58.61 33.56,-104.6" /><path
         id="path64"
         style="fill:#1c1618;fill-opacity:1;fill-rule:nonzero;stroke:none"
         d="m 4048.44,2182.07 h 13.8 c 25.72,0 38.59,11.37 38.59,34.12 0,18.77 -12.61,28.15 -37.85,28.15 h -14.54 z m 0,-55.38 v -99.2 h -73.64 v 272.6 h 89.3 c 74.09,0 111.13,-26.85 111.13,-80.54 0,-31.58 -15.41,-56 -46.24,-73.28 l 79.43,-118.78 h -83.54 l -57.8,99.2 h -18.64" /><path
         id="path66"
         style="fill:#093158;fill-opacity:1;fill-rule:nonzero;stroke:none"
         d="M 416.063,931.84 H 0.00390625 v 700.79 H 416.063 V 1480.69 H 189.34 V 1370.43 H 399.289 V 1218.48 H 189.34 v -132.3 H 416.063 V 931.84" /><path
         id="path68"
         style="fill:#093158;fill-opacity:1;fill-rule:nonzero;stroke:none"
         d="M 1206,931.84 H 957.711 l -255.965,493.72 h -4.32 c 6.07,-77.66 9.109,-136.93 9.109,-177.83 V 931.84 H 538.773 v 700.79 h 247.336 l 255.011,-487 h 2.87 c -4.48,70.61 -6.71,127.33 -6.71,170.15 v 316.85 H 1206 V 931.84" /><path
         id="path70"
         style="fill:#093158;fill-opacity:1;fill-rule:nonzero;stroke:none"
         d="m 2070.72,1144.67 c 0,-43.47 -11.02,-82.05 -33.07,-115.76 -22.04,-33.719 -53.84,-59.922 -95.39,-78.609 -41.54,-18.699 -90.28,-28.039 -146.19,-28.039 -46.66,0 -85.8,3.277 -117.44,9.82 -31.64,6.547 -64.55,17.977 -98.75,34.27 v 168.728 c 36.12,-18.53 73.66,-33 112.65,-43.38 38.99,-10.39 74.77,-15.57 107.37,-15.57 28.12,0 48.73,4.86 61.84,14.61 13.09,9.75 19.65,22.29 19.65,37.63 0,9.58 -2.63,17.98 -7.91,25.17 -5.27,7.18 -13.75,14.45 -25.4,21.8 -11.67,7.35 -42.75,22.37 -93.23,45.06 -45.7,20.77 -79.97,40.9 -102.82,60.39 -22.85,19.5 -39.79,41.87 -50.81,67.11 -11.03,25.25 -16.54,55.13 -16.54,89.64 0,64.54 23.49,114.87 70.46,151 46.98,36.1 111.53,54.16 193.66,54.16 72.54,0 146.51,-16.78 221.92,-50.33 l -57.99,-146.2 c -65.52,30.03 -122.07,45.06 -169.69,45.06 -24.61,0 -42.5,-4.31 -53.68,-12.95 -11.19,-8.62 -16.78,-19.33 -16.78,-32.11 0,-13.75 7.1,-26.05 21.33,-36.91 14.22,-10.87 52.81,-30.68 115.76,-59.44 60.4,-27.16 102.34,-56.32 125.83,-87.47 23.49,-31.17 35.22,-70.39 35.22,-117.68" /><path
         id="path72"
         style="fill:#093158;fill-opacity:1;fill-rule:nonzero;stroke:none"
         d="M 2507.87,931.84 H 2318.53 V 1477.8 H 2147.4 v 154.83 h 531.11 V 1477.8 H 2507.87 V 931.84" /><path
         id="path74"
         style="fill:#093158;fill-opacity:1;fill-rule:nonzero;stroke:none"
         d="m 3106.1,1771.15 c 0,23.98 7.35,42.58 22.05,55.85 14.68,13.26 34.82,19.9 60.4,19.9 25.55,0 45.77,-6.89 60.62,-20.62 14.87,-13.74 22.3,-32.12 22.3,-55.13 0,-22.69 -7.43,-40.82 -22.3,-54.4 -14.85,-13.58 -35.07,-20.37 -60.62,-20.37 -25.89,0 -46.11,6.63 -60.65,19.89 -14.54,13.26 -21.8,31.56 -21.8,54.88 z M 2932.57,1283.2 c 0,-135.5 47.13,-203.25 141.41,-203.25 47.94,0 83.48,16.46 106.65,49.38 23.16,32.91 34.75,84.2 34.75,153.87 0,69.98 -11.74,121.67 -35.23,155.06 -23.49,33.39 -58.56,50.09 -105.21,50.09 -94.91,0 -142.37,-68.39 -142.37,-205.15 z m -56.07,487.95 c 0,23.98 7.34,42.58 22.04,55.85 14.69,13.26 34.52,19.9 59.44,19.9 25.24,0 45.29,-6.8 60.16,-20.38 14.86,-13.59 22.29,-32.04 22.29,-55.37 0,-22.69 -7.43,-40.82 -22.29,-54.4 -14.87,-13.58 -34.92,-20.37 -60.16,-20.37 -24.92,0 -44.75,6.54 -59.44,19.66 -14.7,13.09 -22.04,31.46 -22.04,55.11 z m 538.29,-487.95 c 0,-117.92 -28.93,-207.56 -86.76,-268.91 -57.84,-61.36 -142.53,-92.028 -254.05,-92.028 -109.93,0 -194.21,30.828 -252.85,92.508 -58.65,61.67 -87.96,151.46 -87.96,269.38 0,116.63 29.16,205.72 87.48,267.23 58.32,61.51 143.08,92.27 254.29,92.27 111.52,0 196.05,-30.51 253.57,-91.55 57.52,-61.04 86.28,-150.67 86.28,-268.9" /><path
         id="path76"
         style="fill:#093158;fill-opacity:1;fill-rule:nonzero;stroke:none"
         d="m 3701.22,1329.21 h 35.47 c 66.14,0 99.22,29.24 99.22,87.73 0,48.24 -32.43,72.37 -97.3,72.37 h -37.39 z m 0,-142.36 V 931.84 h -189.33 v 700.79 h 229.6 c 190.45,0 285.68,-69.02 285.68,-207.07 0,-81.17 -39.63,-143.97 -118.88,-188.38 l 204.19,-305.34 h -214.73 l -148.6,255.01 h -47.93" /><path
         id="path78"
         style="fill:#093158;fill-opacity:1;fill-rule:nonzero;stroke:none"
         d="m 4345.95,1329.21 h 35.47 c 66.14,0 99.22,29.24 99.22,87.73 0,48.24 -32.44,72.37 -97.31,72.37 h -37.38 z m 0,-142.36 V 931.84 H 4156.6 v 700.79 h 229.6 c 190.46,0 285.69,-69.02 285.69,-207.07 0,-81.17 -39.63,-143.97 -118.87,-188.38 l 204.19,-305.34 h -214.74 l -148.59,255.01 h -47.93" /><path
         id="path80"
         style="fill:#093158;fill-opacity:1;fill-rule:nonzero;stroke:none"
         d="m 5217.39,931.84 h -416.06 v 700.79 h 416.06 v -151.94 h -226.72 v -110.26 h 209.95 v -151.95 h -209.95 v -132.3 h 226.72 V 931.84" /><path
         id="path82"
         style="fill:#093158;fill-opacity:1;fill-rule:nonzero;stroke:none"
         d="M 957.125,712.77 V 290.949 C 957.125,199.23 931.16,128.219 879.234,77.8906 827.309,27.5508 752.449,2.39063 654.672,2.39063 559.113,2.39063 485.703,26.8398 434.41,75.7188 383.129,124.621 357.477,194.922 357.477,286.629 V 712.77 h 190.3 V 301.5 c 0,-49.531 9.262,-85.488 27.797,-107.859 18.531,-22.371 45.86,-33.551 81.973,-33.551 38.656,0 66.703,11.101 84.121,33.32 17.41,22.199 26.129,58.559 26.129,109.039 V 712.77 h 189.328" /><path
         id="path84"
         style="fill:#093158;fill-opacity:1;fill-rule:nonzero;stroke:none"
         d="m 1273.99,398.801 h 34.51 c 28.44,0 51.05,7.988 67.82,23.969 16.78,15.968 25.17,38.019 25.17,66.152 0,47.277 -26.2,70.937 -78.61,70.937 h -48.89 z m 319.23,91.078 c 0,-78.297 -23.09,-138.77 -69.26,-181.43 -46.18,-42.668 -111.76,-63.988 -196.76,-63.988 h -53.21 V 11.9688 H 1084.65 V 712.77 h 242.55 c 88.51,0 154.98,-19.34 199.4,-58 44.41,-38.668 66.62,-93.641 66.62,-164.891" /><path
         id="path86"
         style="fill:#093158;fill-opacity:1;fill-rule:nonzero;stroke:none"
         d="m 1874.62,398.801 h 34.51 c 28.44,0 51.05,7.988 67.82,23.969 16.78,15.968 25.17,38.019 25.17,66.152 0,47.277 -26.2,70.937 -78.61,70.937 h -48.89 z m 319.23,91.078 c 0,-78.297 -23.09,-138.77 -69.26,-181.43 -46.18,-42.668 -111.77,-63.988 -196.76,-63.988 h -53.21 V 11.9688 H 1685.28 V 712.77 h 242.55 c 88.51,0 154.97,-19.34 199.4,-58 44.41,-38.668 66.62,-93.641 66.62,-164.891" /><path
         id="path88"
         style="fill:#093158;fill-opacity:1;fill-rule:nonzero;stroke:none"
         d="m 2567.27,422.289 h 302.46 V 44.5703 C 2787.6,16.4492 2697.33,2.39063 2598.9,2.39063 c -108.01,0 -191.49,31.30857 -250.45,93.94917 -58.96,62.6292 -88.43,151.9492 -88.43,267.9492 0,113.121 32.27,201.152 96.82,264.109 64.55,62.954 154.98,94.434 271.31,94.434 44.09,0 85.72,-4.16 124.86,-12.473 39.14,-8.308 73.25,-18.847 102.33,-31.629 l -59.9,-148.589 c -50.5,24.918 -105.94,37.379 -166.34,37.379 -55.28,0 -98.02,-17.969 -128.22,-53.911 -30.2,-35.961 -45.3,-87.328 -45.3,-154.117 0,-65.504 13.67,-115.441 40.98,-149.781 27.33,-34.371 66.71,-51.531 118.16,-51.531 28.12,0 54,2.711 77.66,8.14 v 109.782 h -125.11 v 146.187" /><path
         id="path90"
         style="fill:#093158;fill-opacity:1;fill-rule:nonzero;stroke:none"
         d="M 3012.58,11.9688 V 712.77 h 190.29 V 11.9688 h -190.29" /><path
         id="path92"
         style="fill:#093158;fill-opacity:1;fill-rule:nonzero;stroke:none"
         d="M 3540.8,11.9688 H 3354.35 V 712.77 H 3768.5 V 560.809 H 3540.8 V 427.082 h 209.95 V 275.129 H 3540.8 V 11.9688" /><path
         id="path94"
         style="fill:#093158;fill-opacity:1;fill-rule:nonzero;stroke:none"
         d="M 4212.33,11.9688 H 4022.99 V 557.941 H 3851.87 V 712.77 h 531.1 V 557.941 H 4212.33 V 11.9688" /><path
         id="path96"
         style="fill:#093158;fill-opacity:1;fill-rule:nonzero;stroke:none"
         d="m 4528.22,91.5508 c 0,29.3982 8.55,52.0782 25.64,68.0582 17.09,15.981 42.26,23.973 75.5,23.973 31.95,0 56.48,-8.07 73.58,-24.211 17.08,-16.141 25.64,-38.742 25.64,-67.8202 0,-29.0899 -8.87,-51.6211 -26.61,-67.5899 -17.73,-15.98043 -41.94,-23.9687125 -72.61,-23.9687125 -31.63,0 -56.41,7.9101525 -74.3,23.7266125 -17.9,15.8125 -26.84,38.4218 -26.84,67.832 z m 20.61,167.7692 v 41.219 c 0,31.313 6.39,57.762 19.17,79.332 12.78,21.57 35.47,42.57 68.07,63.027 25.89,16.301 44.49,30.993 55.85,44.094 11.33,13.11 17.01,28.129 17.01,45.059 0,13.429 -6.08,24.051 -18.22,31.89 -12.14,7.821 -27.96,11.739 -47.45,11.739 -48.26,0 -104.66,-17.098 -169.21,-51.289 l -66.63,130.379 c 79.57,45.371 162.65,68.062 249.25,68.062 71.27,0 127.19,-15.66 167.78,-46.98 40.57,-31.321 60.86,-73.973 60.86,-127.981 0,-38.672 -9.03,-72.141 -27.08,-100.422 -18.05,-28.277 -46.89,-55.051 -86.51,-80.289 -33.55,-21.73 -54.57,-37.621 -63.04,-47.691 -8.46,-10.059 -12.69,-21.969 -12.69,-35.707 V 259.32 h -147.16" /></g></g></svg>