<?xml version="1.0" encoding="UTF-8" standalone="no"?>
<svg
   xmlns:dc="http://purl.org/dc/elements/1.1/"
   xmlns:cc="http://creativecommons.org/ns#"
   xmlns:rdf="http://www.w3.org/1999/02/22-rdf-syntax-ns#"
   xmlns:svg="http://www.w3.org/2000/svg"
   xmlns="http://www.w3.org/2000/svg"
   viewBox="0 0 751.74664 386.66666"
   height="386.66666"
   width="751.74664"
   xml:space="preserve"
   id="svg2"
   version="1.1"><metadata
     id="metadata8"><rdf:RDF><cc:Work
         rdf:about=""><dc:format>image/svg+xml</dc:format><dc:type
           rdf:resource="http://purl.org/dc/dcmitype/StillImage" /></cc:Work></rdf:RDF></metadata><defs
     id="defs6" /><g
     transform="matrix(1.3333333,0,0,-1.3333333,0,386.66667)"
     id="g10"><g
       transform="scale(0.1)"
       id="g12"><path
         id="path14"
         style="fill:#231f20;fill-opacity:1;fill-rule:nonzero;stroke:none"
         d="m 519.633,1596.15 c 0,-174.58 153.422,-249.77 292.695,-249.77 152.793,0 205.872,0 327.292,0 174.95,0 312.17,162.47 312.17,324.18 0,175.51 -138.85,314.14 -313.03,318.8 H 821.363 c -85.207,13.94 -80.136,136.78 0.02,148.24 65.523,0 596.017,0 596.017,0 0,136.7 -102.83,244.51 -246.8,244.51 -135.49,0 -349.237,0 -349.237,0 -179.582,0 -303.488,-155.1 -303.488,-320.81 0,-172.25 134.07,-316.89 303.488,-316.89 h 318.257 c 80.59,-15.85 90.7,-130.18 0,-148.26 -85.09,0 -619.987,0 -619.987,0 v 0 0" /><path
         id="path16"
         style="fill:#231f20;fill-opacity:1;fill-rule:nonzero;stroke:none"
         d="m 1543.66,2382.15 h 244.6 V 1346.38 h -244.6 v 1035.77 0 0" /><path
         id="path18"
         style="fill:#231f20;fill-opacity:1;fill-rule:nonzero;stroke:none"
         d="m 2900.77,1608.26 c -89.92,-170.3 -268.13,-286.19 -472.58,-286.19 -295.19,0 -534.48,241.61 -534.48,539.64 0,298.02 239.29,539.6 534.48,539.6 202.45,0 378.61,-113.63 469.32,-281.19 L 2678.5,2001.94 c -48.99,90.31 -143.68,150.49 -250.31,150.49 -155.49,0 -285.59,-127.91 -285.59,-290.72 0,-162.82 130.1,-290.72 285.59,-290.72 108.82,0 205.77,62.61 253.83,156.05 l 218.75,-118.78 v 0 0" /><path
         id="path20"
         style="fill:#231f20;fill-opacity:1;fill-rule:nonzero;stroke:none"
         d="M 2992.97,2382.15 V 1346.38 h 247.38 v 401.31 h 86.94 l 260.33,-401.31 h 304.26 l -345.35,511.35 350.45,524.42 H 3592.8 l -257.15,-415.41 h -95.3 v 415.41 h -247.38 v 0 0" /><path
         id="path22"
         style="fill:#231f20;fill-opacity:1;fill-rule:nonzero;stroke:none"
         d="m 512.781,702.281 c 3.172,-11.101 5.852,-20.133 11.657,-30.73 7.429,-12.199 16.972,-23.301 28.078,-32.332 20.172,-16.449 52.453,-33.899 112.336,-33.899 71.511,0 111.812,29.649 128.746,54.032 6.886,9.519 19.062,31.828 19.062,63.558 0,31.82 -12.722,62.551 -38.672,82.18 -16.433,12.109 -36.015,18.551 -56.168,23.808 -13.761,4.262 -27.539,7.43 -41.316,11.102 -31.258,7.441 -44.496,8.52 -58.277,19.129 -14.844,11.109 -17.457,25.391 -18.02,31.73 0,4.262 1.086,13.789 7.953,23.313 3.195,4.758 7.414,8.519 12.195,11.687 16.411,10.02 41.84,10.61 45.563,10.61 24.363,0 48.211,-6.848 61.449,-29.149 1.063,-1.582 4.258,-6.929 6.367,-12.699 9.516,2.09 19.582,4.18 28.602,6.859 11.652,3.168 22.785,6.34 33.93,10.102 -0.539,2.59 -3.735,12.688 -9.016,21.719 -7.437,12.687 -19.062,22.711 -22.801,25.969 -37.605,32.332 -83.168,32.82 -99.597,32.82 -67.297,0 -102.793,-31.231 -117.637,-54.61 -14.824,-23.808 -15.891,-49.789 -15.891,-59.808 0,-12.774 1.59,-39.762 24.91,-65.731 17.5,-19.043 34.434,-24.882 43.973,-28.062 5.824,-1.59 11.652,-3.258 18.02,-5.34 11.671,-3.68 23.839,-6.859 36.019,-10.027 20.164,-4.762 51.93,-10.114 68.879,-21.211 15.891,-10.031 18.543,-27.563 18.543,-33.922 0,-5.84 -1.043,-16.438 -9.539,-27.559 -4.762,-5.25 -10.047,-10.011 -15.895,-13.191 -18.019,-10.109 -45.558,-10.109 -49.769,-10.109 -46.633,0 -69.43,15.378 -80.559,33.41 -4.242,6.351 -6.371,11.609 -8.48,18.461 l -64.645,-12.11 v 0" /><path
         id="path24"
         style="fill:#231f20;fill-opacity:1;fill-rule:evenodd;stroke:none"
         d="m 914.781,781.711 c 1.59,14.359 2.672,18.621 5.828,25.969 8.477,22.8 24.926,32.91 33.387,37.082 3.172,1.679 11.645,5.347 21.715,5.347 6.344,0 18.539,-1.078 32.319,-11.687 20.13,-14.781 23.85,-33.332 27.54,-56.711 H 914.781 Z m 182.779,-39.672 c 0,21.223 -0.52,43.93 -5.82,64.063 -2.11,6.929 -6.33,21.707 -17.48,37.578 -31.25,45.601 -77.881,50.371 -97.487,50.371 -56.687,0 -100.683,-34.422 -117.636,-87.449 -7.41,-24.313 -7.934,-48.204 -7.934,-57.133 0,-76.84 30.758,-109.239 59.863,-126.188 26.516,-15.293 51.926,-16.883 63.602,-16.883 40.252,0 78.922,17.461 101.722,50.282 9.02,13.281 16.42,31.32 18.02,34.992 l -56.69,9.027 c -2.15,-6.347 -4.26,-11.699 -7.96,-17.461 -11.67,-16.957 -31.272,-27.558 -51.397,-27.558 -7.957,0 -21.195,1 -35.5,13.691 -22.777,20.211 -24.363,47.199 -25.41,56.801 -0.562,5.258 -1.082,10.519 -1.082,15.277 l 181.189,0.59 v 0" /><path
         id="path26"
         style="fill:#231f20;fill-opacity:1;fill-rule:evenodd;stroke:none"
         d="M 1151.68,888.199 V 613.75 l 62.01,-2.09 v 146.238 c 1.57,28.661 3.7,54.622 28.07,73.082 12.72,10.622 25.43,12.2 31.26,12.2 14.32,0 23.34,-6.348 27.54,-10.02 16.43,-14.371 16.43,-33.91 16.97,-55.129 V 611.66 h 59.34 v 187.012 c -0.54,3.168 -0.54,18.527 -3.71,30.808 -3.16,13.2 -7.96,22.211 -10.07,26.391 -5.3,9.027 -12.17,17.539 -20.12,23.391 -7.44,5.258 -23.85,14.789 -49.29,15.359 -43.42,0 -63.57,-27.062 -72.03,-40.84 -4.8,-7.34 -10.08,-17.453 -13.28,-24.883 v 59.301 h -56.69 v 0" /><path
         id="path28"
         style="fill:#231f20;fill-opacity:1;fill-rule:nonzero;stroke:none"
         d="m 1566.63,716.059 c 12.71,-2.68 24.91,-5.84 30.73,-15.86 2.68,-5.347 3.2,-10.121 3.2,-12.777 0,-15.371 -12.74,-23.801 -16.98,-25.981 -5.3,-3.171 -19.6,-7.929 -38.15,-7.929 -4.24,0 -31.78,0.578 -47.66,14.277 -4.78,4.262 -7.96,8.02 -13.78,20.211 l -57.76,-12.191 c 10.59,-21.219 16.43,-30.739 23.85,-38.68 21.71,-21.207 61.97,-29.719 92.18,-29.719 10.07,0 57.23,1.078 89.01,24.379 29.15,21.723 32.87,51.949 32.87,65.652 0,27.059 -13.26,53.528 -37.09,67.309 -7.43,4.262 -13.8,6.93 -30.75,12.199 l -62.51,11.692 c -14.85,3.668 -28.61,6.347 -35.48,19.629 -2.67,4.761 -3.2,9.441 -3.2,11.109 0,5.84 2.13,11.101 3.2,12.691 7.91,13.782 26.5,15.86 31.23,16.45 6.38,1.089 12.2,1.089 14.33,1.089 33.36,0 43.95,-18.629 51.36,-30.23 l 54.58,11.601 c -9.54,19.629 -13.21,25.981 -20.65,33.918 -20.13,21.793 -56.16,30.813 -84.77,30.813 -27.54,0 -58.82,-6.93 -79.49,-24.473 -17.48,-15.367 -28.6,-41.25 -28.6,-65.648 0,-37.668 23.3,-56.121 34.97,-63.051 10.58,-6.93 20.65,-9.527 32.32,-13.199 l 63.04,-13.281 v 0" /><path
         id="path30"
         style="fill:#231f20;fill-opacity:1;fill-rule:evenodd;stroke:none"
         d="m 1759.83,750.469 c 1.06,23.89 5.8,57.801 24.34,76.25 14.33,14.371 33.91,15.961 40.82,15.961 18.54,0 30.72,-9.02 35.48,-13.782 22.8,-21.718 23.32,-55.128 23.84,-64.148 0.55,-5.762 0.55,-11.609 0.55,-17.949 0,-10.11 1.58,-55.129 -29.15,-79.012 -5.82,-4.168 -16.43,-11.598 -34.43,-11.598 -43.97,0 -56.69,43.418 -58.82,54.528 -4.24,16.953 -3.18,34.492 -2.63,39.75 z m -64.65,6.941 c -4.25,-74.762 33.91,-117.68 59.87,-133.551 25.95,-16.449 54.56,-17.461 65.16,-17.461 19.61,0 65.69,3.672 99.07,47.114 21.2,28.058 30.22,62.547 30.22,96.957 0,74.16 -43.45,143.582 -122.94,143.582 -15.89,0 -58.8,-3.68 -92.18,-38.672 -34.98,-37.078 -38.65,-82.609 -39.2,-97.969 v 0" /><path
         id="path32"
         style="fill:#231f20;fill-opacity:1;fill-rule:evenodd;stroke:none"
         d="M 2008.4,888.199 V 611.66 l 22.24,1.59 c 12.72,0.5 25.97,0 38.69,-0.5 v 113.922 c 0.52,11.609 -2.13,54.539 26.47,82.68 15.39,15.277 29.68,16.378 38.69,16.878 4.77,0.489 9.53,0.489 14.31,0.489 l 0.52,67.332 c -7.41,-0.512 -24.37,0 -41.84,-10.531 -23.84,-14.372 -33.37,-38.168 -43.43,-63.641 v 68.32 h -55.65 v 0" /><path
         id="path34"
         style="fill:#231f20;fill-opacity:1;fill-rule:nonzero;stroke:none"
         d="M 2340.97,642.398 V 613.75 h 68.89 v 368.82 h -68.36 v -38.672 l -0.53,-301.5 v 0" /><path
         id="path36"
         style="fill:#231f20;fill-opacity:1;fill-rule:evenodd;stroke:none"
         d="M 2487.16,888.199 V 613.75 l 62.01,-2.09 v 146.238 c 1.57,28.661 3.69,54.622 28.06,73.082 12.71,10.622 25.43,12.2 31.26,12.2 14.32,0 23.32,-6.348 27.56,-10.02 16.41,-14.371 16.41,-33.91 16.95,-55.129 V 611.66 h 59.34 v 187.012 c -0.54,3.168 -0.54,18.527 -3.71,30.808 -3.15,13.2 -7.96,22.211 -10.07,26.391 -5.3,9.027 -12.17,17.539 -20.11,23.391 -7.45,5.258 -23.86,14.789 -49.29,15.359 -43.43,0 -63.58,-27.062 -72.04,-40.84 -4.8,-7.34 -10.08,-17.453 -13.27,-24.883 v 59.301 h -56.69 v 0" /><path
         id="path38"
         style="fill:#231f20;fill-opacity:1;fill-rule:nonzero;stroke:none"
         d="m 2754.81,888.199 v -51.367 h 33.39 V 684.238 c 2.65,-21.718 4.76,-39.168 20.65,-55.039 15.39,-16.449 36.06,-19.129 59.34,-19.129 12.7,0 25.47,1.09 38.16,1.59 l 0.51,50.86 c -16.96,-1.579 -38.17,-3.668 -49.8,10.109 -4.76,5.762 -6.89,11.609 -7.93,26.48 v 138.313 h 54.56 v 51.359 h -55.11 v 77.34 l -49.79,-3.672 -6.89,-74.25 h -37.09 v 0" /><path
         id="path40"
         style="fill:#231f20;fill-opacity:1;fill-rule:evenodd;stroke:none"
         d="m 2995.31,781.711 c 1.58,14.359 2.67,18.621 5.84,25.969 8.52,22.8 24.89,32.91 33.41,37.082 3.17,1.679 11.61,5.347 21.72,5.347 6.34,0 18.54,-1.078 32.31,-11.687 20.14,-14.781 23.81,-33.332 27.57,-56.711 h -120.85 z m 182.82,-39.672 c 0,21.223 -0.5,43.93 -5.85,64.063 -2.09,6.929 -6.34,21.707 -17.45,37.578 -31.24,45.601 -77.93,50.371 -97.47,50.371 -56.71,0 -100.72,-34.422 -117.67,-87.449 -7.44,-24.313 -7.94,-48.204 -7.94,-57.133 0,-76.84 30.73,-109.239 59.88,-126.188 26.47,-15.293 51.86,-16.883 63.56,-16.883 40.26,0 78.93,17.461 101.72,50.282 9.03,13.281 16.46,31.32 18.05,34.992 l -56.71,9.027 c -2.09,-6.347 -4.26,-11.699 -7.94,-17.461 -11.69,-16.957 -31.23,-27.558 -51.36,-27.558 -8.01,0 -21.22,1 -35.5,13.691 -22.8,20.211 -24.47,47.199 -25.47,56.801 -0.59,5.258 -1.09,10.519 -1.09,15.277 l 181.24,0.59 v 0" /><path
         id="path42"
         style="fill:#231f20;fill-opacity:1;fill-rule:nonzero;stroke:none"
         d="m 3231.16,984.66 v -372.5 h 64.15 v 372.5 h -64.15 v 0" /><path
         id="path44"
         style="fill:#231f20;fill-opacity:1;fill-rule:nonzero;stroke:none"
         d="m 3361.71,984.66 v -372.5 h 64.14 v 372.5 h -64.14 v 0" /><path
         id="path46"
         style="fill:#231f20;fill-opacity:1;fill-rule:evenodd;stroke:none"
         d="M 3492.83,984.082 V 918.43 h 60.89 v 65.652 h -60.89 z m -1.67,-95.883 V 612.75 h 63.06 v 275.449 h -63.06 v 0" /><path
         id="path48"
         style="fill:#231f20;fill-opacity:1;fill-rule:evenodd;stroke:none"
         d="m 3685.84,816.699 c 2.1,13.289 11.61,40.262 49.78,40.262 20.13,0 31.32,-6.852 36.58,-11.609 13.28,-11.192 14.28,-28.153 14.28,-34.5 0,-17.454 -8.93,-46.102 -50.36,-46.102 -22.71,0 -42.34,10.621 -48.69,31.32 -2.68,9.02 -2.09,16.45 -1.59,20.629 z m -19.05,-185.988 c 42.93,-7.941 57.72,-6.852 101.73,-7.43 23.81,-0.511 34.42,-4.179 42.85,-12.121 6.94,-6.93 7.44,-13.269 7.44,-17.031 0,-14.789 -12.7,-25.391 -25.98,-30.16 -16.37,-5.84 -41.26,-5.84 -45.02,-5.84 -46.6,0 -73.66,9.601 -85.86,27.062 -2.08,2.668 -6.85,10.61 -6.85,21.207 0,11.114 4.26,16.372 11.69,24.313 z M 3877.1,941.73 c -36,1.09 -50.36,-1.589 -64.06,-11.609 -14.86,-11.691 -19.13,-24.973 -24.39,-42.43 -19.63,4.27 -31.82,6.93 -52.53,6.93 -29.06,0 -60.3,-4.25 -83.68,-21.211 -19.63,-14.859 -30.74,-37.082 -30.74,-61.469 0,-38.66 27.57,-56.703 37.66,-64.14 -14.86,-8.942 -29.15,-17.961 -37.66,-32.821 -2.09,-3.179 -6.35,-11.109 -6.35,-21.718 0,-20.133 11.19,-32.321 23.89,-46.614 -21.22,-13.269 -27.56,-20.117 -33.41,-32.898 -4.76,-10.02 -4.76,-17.949 -4.76,-22.719 0,-33.402 25.47,-50.953 34.41,-55.633 10.6,-5.828 19.13,-8.507 23.88,-9.507 13.21,-3.172 40.27,-8.012 74.67,-8.012 51.45,0 79.51,9.012 100.15,20.711 36.57,20.621 42.42,49.269 42.42,67.308 0,28.571 -18.04,52.372 -44.01,64.063 -18.55,7.937 -46.11,10.098 -91.13,11.109 -28.56,0 -38.66,-0.5 -52.95,4.75 -15.94,5.852 -19.63,17.551 -19.63,24.899 0,11.191 7.94,18.031 10.62,20.121 1.58,1.601 3.67,3.18 5.84,5.351 27.56,-6.851 37.59,-7.929 53.46,-7.929 42.42,0 71.57,16.949 84.26,26.976 24.39,20.133 27.06,46.09 27.06,57.793 0,23.297 -9.6,38.66 -15.37,45.02 -5.84,6.34 -10.1,9.508 -17.03,14.781 2.67,5.348 5.34,9.609 9.6,13.277 11.61,9.602 33.92,9.012 49.78,8.512 v 47.109 0" /><path
         id="path50"
         style="fill:#231f20;fill-opacity:1;fill-rule:evenodd;stroke:none"
         d="m 3968.31,781.711 c 1.58,14.359 2.66,18.621 5.84,25.969 8.44,22.8 24.89,32.91 33.41,37.082 3.17,1.679 11.61,5.347 21.71,5.347 6.35,0 18.55,-1.078 32.32,-11.687 20.14,-14.781 23.81,-33.332 27.57,-56.711 h -120.85 z m 182.82,-39.672 c 0,21.223 -0.59,43.93 -5.85,64.063 -2.09,6.929 -6.35,21.707 -17.45,37.578 -31.24,45.601 -77.93,50.371 -97.56,50.371 -56.62,0 -100.63,-34.422 -117.59,-87.449 -7.43,-24.313 -7.94,-48.204 -7.94,-57.133 0,-76.84 30.74,-109.239 59.89,-126.188 26.47,-15.293 51.95,-16.883 63.56,-16.883 40.25,0 78.93,17.461 101.72,50.282 9.02,13.281 16.45,31.32 18.05,34.992 l -56.71,9.027 c -2.09,-6.347 -4.26,-11.699 -7.94,-17.461 -11.69,-16.957 -31.23,-27.558 -51.36,-27.558 -8.02,0 -21.22,1 -35.5,13.691 -22.8,20.211 -24.39,47.199 -25.48,56.801 -0.49,5.258 -1.08,10.519 -1.08,15.277 l 181.24,0.59 v 0" /><path
         id="path52"
         style="fill:#231f20;fill-opacity:1;fill-rule:evenodd;stroke:none"
         d="M 4205.25,888.199 V 613.75 l 61.96,-2.09 v 146.238 c 1.6,28.661 3.76,54.622 28.07,73.082 12.78,10.622 25.48,12.2 31.32,12.2 14.29,0 23.3,-6.348 27.56,-10.02 16.37,-14.371 16.37,-33.91 16.87,-55.129 V 611.66 h 59.39 v 187.012 c -0.51,3.168 -0.51,18.527 -3.76,30.808 -3.09,13.2 -7.94,22.211 -10.02,26.391 -5.27,9.027 -12.2,17.539 -20.13,23.391 -7.44,5.258 -23.81,14.789 -49.28,15.359 -43.43,0 -63.56,-27.062 -72.08,-40.84 -4.76,-7.34 -10.02,-17.453 -13.19,-24.883 v 59.301 h -56.71 v 0" /><path
         id="path54"
         style="fill:#231f20;fill-opacity:1;fill-rule:nonzero;stroke:none"
         d="m 4716.64,797.07 c -1.09,5.36 -4.85,23.391 -12.7,39.258 -25.48,52.453 -77.42,57.211 -96.97,57.211 -53.53,0 -82.18,-31.82 -93.29,-47.687 -26.47,-36.5 -27.56,-80.512 -27.56,-95.383 0,-50.27 16.96,-82.68 28.65,-99.047 7.43,-10.602 14.28,-16.953 17.95,-20.211 27.06,-22.129 60.47,-24.313 72.08,-24.313 32.33,0 53.54,11.614 63.57,18.051 3.75,2.582 12.18,9.012 21.21,19.539 20.12,24.883 24.38,49.864 26.47,61.461 l -49.28,4.77 c -7.35,-17.457 -14.27,-32.821 -30.14,-43.43 -10.61,-6.93 -20.72,-7.43 -26.56,-7.43 -17.47,0 -28.57,7.43 -33.33,11.692 -20.13,16.449 -25.39,48.187 -25.39,73.66 0,37.078 6.35,57.219 14.79,70.988 14.28,21.711 32.81,24.891 43.43,24.891 10.1,0 32.9,-3.18 45.59,-28.059 3.68,-7.441 5.85,-15.461 7.44,-23.883 l 54.04,7.922 v 0" /><path
         id="path56"
         style="fill:#231f20;fill-opacity:1;fill-rule:evenodd;stroke:none"
         d="m 4812.85,781.711 c 1.59,14.359 2.59,18.621 5.85,25.969 8.44,22.8 24.88,32.91 33.32,37.082 3.17,1.679 11.69,5.347 21.72,5.347 6.35,0 18.53,-1.078 32.32,-11.687 20.13,-14.781 23.89,-33.332 27.56,-56.711 h -120.77 z m 182.74,-39.672 c 0,21.223 -0.5,43.93 -5.76,64.063 -2.18,6.929 -6.43,21.707 -17.55,37.578 -31.23,45.601 -77.83,50.371 -97.46,50.371 -56.71,0 -100.64,-34.422 -117.6,-87.449 -7.43,-24.313 -7.93,-48.204 -7.93,-57.133 0,-76.84 30.66,-109.239 59.8,-126.188 26.47,-15.293 51.95,-16.883 63.55,-16.883 40.35,0 79.02,17.461 101.73,50.282 9.03,13.281 16.46,31.32 18.05,34.992 l -56.72,9.027 c -2.08,-6.347 -4.17,-11.699 -7.93,-17.461 -11.61,-16.957 -31.24,-27.558 -51.37,-27.558 -7.93,0 -21.21,1 -35.49,13.691 -22.8,20.211 -24.39,47.199 -25.47,56.801 -0.5,5.258 -1,10.519 -1,15.277 l 181.15,0.59 v 0" /><path
         id="path58"
         style="fill:#231f20;fill-opacity:1;fill-rule:nonzero;stroke:none"
         d="m 5120.2,612.75 v 70.988 h -67.82 V 612.75 h 67.82 v 0" /></g></g></svg>