<?xml version="1.0" encoding="utf-8"?>
<!-- Generator: Adobe Illustrator 25.4.1, SVG Export Plug-In . SVG Version: 6.00 Build 0)  -->
<svg version="1.1" id="Layer_1" xmlns="http://www.w3.org/2000/svg" xmlns:xlink="http://www.w3.org/1999/xlink" x="0px" y="0px"
	 viewBox="0 0 800 300" style="enable-background:new 0 0 800 300;" xml:space="preserve">
<style type="text/css">
	.st0{fill:#FFFFFF;}
	.st1{fill:#00C795;}
</style>
<g>
	<g>
		<path class="st0" d="M79.63,113.68c4.99,0,8.95-3.95,8.95-8.95c0-4.99-3.95-8.95-8.95-8.95c-4.99,0-8.95,3.95-8.95,8.95
			C70.47,109.73,74.63,113.68,79.63,113.68"/>
		<path class="st0" d="M153.48,105.36c-2.91-1.25-6.03,0.21-7.28,3.12c-0.21,0.42-22.68,49.93-67.82,49.93
			c-45.35,0-65.53-45.77-67.61-50.97c-1.25-2.91-4.37-4.16-7.28-3.12c-2.91,1.25-4.16,4.37-3.12,7.28
			c2.5,5.83,25.17,57.84,78.02,57.84c53.05,0,77.81-56.38,78.02-56.8C157.64,109.73,156.19,106.61,153.48,105.36"/>
		<path class="st0" d="M330.11,77.27c-25.59,0-40.36,19.14-40.36,52.63c0,24.13,11.03,52.43,42.02,52.43
			c14.98,0,26.21-7.28,32.87-21.22c5.62-12.07,6.24-25.8,6.24-31C370.88,86.43,348.62,77.27,330.11,77.27 M331.56,171.1
			c-7.28,0-31-2.91-31-41.19c0-27.46,9.78-41.61,29.33-41.61c7.28,0,29.75,0,29.75,41.61C359.86,168.19,338.22,171.1,331.56,171.1"
			/>
		<path class="st0" d="M608.67,77.48c-3.12,0-5.62,2.5-5.62,5.62v72.81c-1.04,2.91-11.03,15.4-30.17,15.4
			c-20.8,0-23.09-18.52-23.09-26.42V87.47c0-3.12-2.5-5.62-5.62-5.62h-59.92V53.14c0-3.12-2.5-5.62-5.62-5.62
			c-3.12,0-5.62,2.5-5.62,5.62v28.92h-59.5V62.5c0-2.91,0.62-10.19,6.45-14.77c6.66-5.2,18.72-5.83,34.95-1.66
			c2.91,0.83,6.03-1.04,6.66-3.95c0.83-2.91-1.04-6.03-3.95-6.66c-19.97-5.2-34.95-3.95-44.52,3.54
			c-9.78,7.49-10.82,18.93-10.82,23.51v19.35h-30.17c-3.12,0-5.62,2.5-5.62,5.62s2.5,5.62,5.62,5.62h30.17v83.63
			c0,3.12,2.5,5.62,5.62,5.62c3.12,0,5.62-2.5,5.62-5.62V92.87h59.71v54.51c0,10.82,3.33,19.56,9.78,25.17
			c5.62,4.99,13.52,7.49,23.3,7.49c2.7,0,5.62-0.21,8.53-0.62c3.12-0.42,5.2-3.12,4.78-6.24s-3.12-5.2-6.24-4.78
			c-10.61,1.25-18.52,0-23.09-4.16c-3.95-3.54-6.03-9.15-6.03-16.85V92.87h54.51v51.59c0,17.27,8.95,37.66,34.12,37.66
			c12.48,0,22.88-4.37,30.17-9.99v4.37c0,3.12,2.5,5.62,5.62,5.62s5.62-2.5,5.62-5.62V82.89C614.29,79.77,611.8,77.48,608.67,77.48"
			/>
		<path class="st0" d="M799.03,129.91c0-19.56-5.2-52.63-40.78-52.63c-25.59,0-40.36,19.14-40.36,52.63
			c0,21.01,11.23,52.43,42.02,52.43c15.81,0,27.67-7.07,36.2-21.84c1.46-2.7,0.62-6.03-2.08-7.49c-2.7-1.46-6.03-0.62-7.49,2.08
			c-6.66,11.23-14.77,16.44-26.63,16.44c-21.64,0-29.13-21.01-30.58-35.78h64.28C796.54,135.52,799.03,133.03,799.03,129.91
			 M729.13,124.5c1.25-23.92,11.03-35.99,29.13-35.99c18.72,0,28.29,11.86,29.54,35.99H729.13z"/>
		<path class="st0" d="M628.65,132.19c0,31.41,7.07,52.43,42.02,52.43c14.77,0,26.21-7.28,32.87-21.22c5.62-12.07,6.24-25.8,6.24-31
			c0-43.48-22.26-52.63-40.78-52.63c-12.27,0-22.05,4.37-28.92,12.69c0.21-27.46,0.62-58.25,0.62-58.88c0-3.12-2.5-5.62-5.41-5.62
			l0,0c-3.12,0-5.62,2.5-5.62,5.41C629.69,34.21,628.65,117.22,628.65,132.19 M670.67,173.39c-23.92,0-31-9.36-31-41.19
			c0-27.46,9.78-41.61,29.33-41.61c7.28,0,29.75,0,29.75,41.61C698.76,170.47,677.12,173.39,670.67,173.39"/>
		<path class="st0" d="M229.83,94.12c-17.68-5.83-29.13-15.81-31.21-27.05c-1.25-6.87,1.25-13.52,7.07-18.31
			c4.37-3.54,21.43-14.35,55.55-0.62c2.91,1.04,6.03-0.21,7.28-3.12c1.04-2.91-0.21-6.03-3.12-7.28
			c-26.84-10.82-51.8-9.78-66.57,2.29c-8.95,7.49-13.11,17.89-11.03,28.92c2.91,15.4,16.85,28.29,38.7,35.58
			c21.22,7.07,35.58,20.18,38.28,35.37c1.87,9.36-1.46,18.31-8.74,24.34c-13.94,11.65-38.7,11.65-68.24,0.42
			c-2.91-1.04-6.03,0.42-7.07,3.12c-1.04,2.91,0.42,6.03,3.12,7.07c15.6,6.03,30.37,8.95,43.27,8.95c14.56,0,26.84-3.74,35.78-11.23
			c10.4-8.74,14.98-21.43,12.48-34.95C272.06,118.88,255,102.44,229.83,94.12"/>
	</g>
	<g>
		<path class="st1" d="M12.32,258.96h-4.9v11.35H0.97v-32.68h13.08c6.02,0,10.88,4.85,10.88,10.83c0,4.11-2.57,7.8-6.3,9.52
			l7.24,12.33H18.9L12.32,258.96z M7.41,253.31h6.63c2.42,0,4.43-2.15,4.43-4.86c0-2.71-2.01-4.81-4.43-4.81H7.41V253.31z"/>
		<path class="st1" d="M39.93,253.96c0-9.57,7.52-16.99,16.95-16.99s16.99,7.42,16.99,16.99c0,9.53-7.56,17-16.99,17
			S39.93,263.49,39.93,253.96z M67.43,253.96c0-6.3-4.62-10.74-10.56-10.74s-10.55,4.44-10.55,10.74c0,6.26,4.62,10.69,10.55,10.69
			S67.43,260.22,67.43,253.96z"/>
		<path class="st1" d="M89.08,253.96c0-9.57,7.1-16.99,16.99-16.99c5.98,0,11.26,3.03,14.06,7.7l-5.55,3.22
			c-1.59-2.9-4.77-4.67-8.5-4.67c-6.39,0-10.6,4.44-10.6,10.74c0,6.26,4.2,10.69,10.6,10.69c3.74,0,6.96-1.77,8.5-4.62l5.55,3.22
			c-2.75,4.66-8.03,7.7-14.06,7.7C96.18,270.96,89.08,263.49,89.08,253.96z"/>
		<path class="st1" d="M154.33,270.3l-11.67-15.32v15.32h-6.44v-32.68h6.44v14.43l11.21-14.43h7.42l-12.1,15.87l12.56,16.81H154.33z
			"/>
		<path class="st1" d="M223.14,271.38l-2.99-3.22c-2.34,1.73-5.23,2.81-8.78,2.81c-6.63,0-11.44-3.69-11.44-9.71
			c0-3.79,1.87-7.29,5.46-9.39c-0.93-1.49-1.59-3.22-1.59-5.46c0-5.55,4.34-9.43,10.22-9.43c4.57,0,8.54,2.38,10.41,7l-5.51,3.18
			c-0.84-2.43-2.48-3.92-4.81-3.92c-2.24,0-3.87,1.45-3.87,3.46c0,1.96,1.17,3.31,2.66,4.95l7,7.66c0.7-1.54,1.21-3.36,1.59-5.42
			l5.42,3.08c-0.56,2.34-1.49,4.72-2.85,6.87l4.2,4.62L223.14,271.38z M216.13,263.86l-7.05-7.66c-0.05-0.05-0.09-0.09-0.09-0.14
			c-1.87,1.17-2.57,2.89-2.57,4.53c0,2.62,1.77,4.44,5.37,4.44C213.47,265.03,214.92,264.61,216.13,263.86z"/>
		<path class="st1" d="M279.58,258.96h-4.9v11.35h-6.44v-32.68h13.08c6.02,0,10.88,4.85,10.88,10.83c0,4.11-2.57,7.8-6.3,9.52
			l7.24,12.33h-6.96L279.58,258.96z M274.68,253.31h6.63c2.42,0,4.43-2.15,4.43-4.86c0-2.71-2.01-4.81-4.43-4.81h-6.63V253.31z"/>
		<path class="st1" d="M307.19,253.96c0-9.57,7.52-16.99,16.95-16.99s16.99,7.42,16.99,16.99c0,9.53-7.56,17-16.99,17
			S307.19,263.49,307.19,253.96z M334.7,253.96c0-6.3-4.62-10.74-10.56-10.74c-5.93,0-10.55,4.44-10.55,10.74
			c0,6.26,4.62,10.69,10.55,10.69C330.07,264.65,334.7,260.22,334.7,253.96z"/>
		<path class="st1" d="M376.74,264.14v6.16h-18.91v-32.68h6.44v26.52H376.74z"/>
		<path class="st1" d="M411.46,264.14v6.16h-18.91v-32.68h6.44v26.52H411.46z"/>
		<path class="st1" d="M449.36,262.88l5.51-3.22c1.16,3.03,3.45,5,7.52,5c3.87,0,5.23-1.63,5.23-3.46c0-2.42-2.2-3.36-7.05-4.76
			c-5-1.45-9.85-3.55-9.85-9.76c0-6.16,5.14-9.71,10.74-9.71c5.37,0,9.48,2.75,11.67,7.33l-5.42,3.13c-1.17-2.48-2.94-4.2-6.26-4.2
			c-2.71,0-4.29,1.4-4.29,3.27c0,2.01,1.26,3.09,6.21,4.58c5.18,1.63,10.69,3.36,10.69,10.04c0,6.12-4.9,9.85-11.86,9.85
			C455.52,270.96,451.14,267.74,449.36,262.88z"/>
		<path class="st1" d="M488.64,253.96c0-9.57,7.1-16.99,16.99-16.99c5.98,0,11.26,3.03,14.06,7.7l-5.55,3.22
			c-1.59-2.9-4.77-4.67-8.5-4.67c-6.39,0-10.6,4.44-10.6,10.74c0,6.26,4.2,10.69,10.6,10.69c3.74,0,6.96-1.77,8.5-4.62l5.55,3.22
			c-2.75,4.66-8.03,7.7-14.06,7.7C495.74,270.96,488.64,263.49,488.64,253.96z"/>
		<path class="st1" d="M542.23,237.62v32.68h-6.44v-32.68H542.23z"/>
		<path class="st1" d="M580.66,264.14v6.16h-20.22v-32.68h19.98v6.16h-13.54v6.95h12.37v6.07h-12.37v7.33H580.66z"/>
		<path class="st1" d="M622.66,237.62v32.68h-4.9l-14.01-19.98v19.98h-6.44v-32.68h4.9l14.01,19.94v-19.94H622.66z"/>
		<path class="st1" d="M662.51,243.79h-8.82v26.52h-6.44v-26.52h-8.78v-6.16h24.05V243.79z"/>
		<path class="st1" d="M684.66,237.62v32.68h-6.44v-32.68H684.66z"/>
		<path class="st1" d="M700.69,262.88l5.51-3.22c1.16,3.03,3.45,5,7.52,5c3.87,0,5.23-1.63,5.23-3.46c0-2.42-2.2-3.36-7.05-4.76
			c-5-1.45-9.85-3.55-9.85-9.76c0-6.16,5.14-9.71,10.74-9.71c5.37,0,9.48,2.75,11.67,7.33l-5.42,3.13c-1.17-2.48-2.94-4.2-6.26-4.2
			c-2.71,0-4.29,1.4-4.29,3.27c0,2.01,1.26,3.09,6.21,4.58c5.18,1.63,10.69,3.36,10.69,10.04c0,6.12-4.9,9.85-11.86,9.85
			C706.85,270.96,702.47,267.74,700.69,262.88z"/>
		<path class="st1" d="M762.16,243.79h-8.82v26.52h-6.44v-26.52h-8.78v-6.16h24.05V243.79z"/>
		<path class="st1" d="M775.3,262.88l5.51-3.22c1.16,3.03,3.45,5,7.52,5c3.87,0,5.23-1.63,5.23-3.46c0-2.42-2.2-3.36-7.05-4.76
			c-5-1.45-9.85-3.55-9.85-9.76c0-6.16,5.13-9.71,10.74-9.71c5.37,0,9.48,2.75,11.67,7.33l-5.42,3.13c-1.17-2.48-2.94-4.2-6.26-4.2
			c-2.71,0-4.29,1.4-4.29,3.27c0,2.01,1.26,3.09,6.21,4.58c5.18,1.63,10.69,3.36,10.69,10.04c0,6.12-4.9,9.85-11.86,9.85
			C781.46,270.96,777.08,267.74,775.3,262.88z"/>
	</g>
</g>
</svg>
