<?xml version="1.0" encoding="UTF-8"?>
<svg id="Layer_2" data-name="Layer 2" xmlns="http://www.w3.org/2000/svg" viewBox="0 0 257.25 42.37">
  <defs>
    <style>
      .cls-1 {
        fill: #fff;
      }

      .cls-1, .cls-2, .cls-3 {
        stroke-width: 0px;
      }

      .cls-2 {
        fill: #ffd944;
      }

      .cls-3 {
        fill-rule: evenodd;
      }
    </style>
  </defs>
  <g id="Layer_1-2" data-name="Layer 1">
    <g>
      <g>
        <rect class="cls-2" width="42.37" height="42.37" rx="4.9" ry="4.9"/>
        <path class="cls-3" d="m11.64,18.46c.02-.22.04-.41.07-.61.07-.54.15-1.07.22-1.61.04-.33.07-.65.12-.97.19-1.21.54-2.36,1.21-3.4.32-.5.72-.95,1.2-1.31.63-.46,1.33-.7,2.11-.71.47,0,.94-.01,1.41-.02.04,0,.09,0,.14-.01,0-.13.02-.26.02-.38,0-.22,0-.44,0-.66,0-.38.26-.77.77-.77.74,0,1.49-.01,2.23-.01s1.53.02,2.29.01c.44,0,.8.26.81.81,0,.3,0,.59.01.89,0,.03,0,.06,0,.12.13,0,.27.02.4.02.44,0,.88,0,1.33.02.69.03,1.32.26,1.89.67.7.5,1.2,1.17,1.58,1.93.43.85.7,1.75.85,2.69.08.52.14,1.04.2,1.56.07.55.13,1.1.2,1.66,0,.03.02.06.02.08.29.05.57.09.84.16.77.18,1.45.51,2,1.09.44.46.7,1.01.86,1.61.11.43.16.87.16,1.31,0,1.75,0,3.51,0,5.26,0,1-.43,1.8-1.23,2.4-.33.25-.7.42-1.13.5v.18c0,.39,0,.79,0,1.18,0,.87-.39,1.52-1.14,1.92-.76.4-1.55.43-2.32.02-.63-.33-.98-.88-1.11-1.58-.03-.15-.02-.31-.02-.47,0-.36,0-.72.01-1.08,0-.03,0-.06,0-.09,0-.01-.01-.02-.02-.02,0,0,0,0-.01,0-.04,0-.08,0-.11,0-4.25.02-8.5.02-12.74,0-.02,0-.03,0-.06.02,0,.06,0,.11,0,.17,0,.39,0,.79,0,1.18,0,.93-.6,1.77-1.5,2.04-.83.25-1.61.13-2.29-.41-.53-.42-.81-.98-.81-1.66,0-.4.01-.81.02-1.21,0-.05,0-.11,0-.17-.05-.01-.08-.03-.11-.04-.98-.21-2.24-1.24-2.24-2.83,0-1.8,0-3.6,0-5.41,0-.65.12-1.28.38-1.88.38-.85,1.02-1.44,1.88-1.8.48-.2.98-.31,1.49-.37.03,0,.06,0,.11-.02Zm9.54-.34h0c1.91,0,3.82,0,5.73,0,.32,0,.64,0,.96,0,.17,0,.28-.08.34-.24.03-.08.04-.17.03-.26-.09-.93-.26-1.84-.42-2.76-.1-.58-.29-1.13-.62-1.63-.47-.7-1.11-1.07-1.97-1.04-.35.01-.69.01-1.03.01-2.4,0-4.8-.01-7.2-.02-.61,0-1.12.21-1.54.65-.34.35-.56.76-.72,1.21-.14.4-.22.82-.29,1.24-.08.54-.18,1.09-.26,1.63-.04.24-.07.48-.09.73-.02.29.14.45.42.45h.05c.88,0,1.76-.01,2.64-.02,1.32,0,2.64,0,3.96,0Zm7.07,6.27c.02,1.09.85,2.04,2.05,2.04,1.22,0,2.05-.96,2.06-2.03,0-1.12-.93-2.05-2.06-2.05-1.09,0-2.03.86-2.05,2.04Zm-16.06,2.09c1.12,0,2.05-.91,2.05-2.03s-.85-2.05-2.06-2.04c-1.19,0-2.04.94-2.04,2.04,0,1.12.92,2.03,2.05,2.03Zm9.01-.6h1.83c.75,0,1.51,0,2.26,0,.1,0,.21-.02.3-.05.2-.07.34-.27.33-.45-.01-.21-.19-.42-.4-.46-.08-.02-.16-.02-.24-.02h-8.17c-.08,0-.15,0-.23.02-.22.05-.39.25-.4.46-.01.18.13.39.34.46.09.03.19.05.29.05,1.36,0,2.73,0,4.09,0Zm-.03-2h1.21c.96,0,1.92,0,2.88,0,.11,0,.23-.01.34-.05.2-.08.32-.28.31-.46-.02-.21-.18-.39-.39-.44-.08-.02-.16-.02-.24-.03-.31,0-.61,0-.92,0-2.41,0-4.82,0-7.23,0-.09,0-.19,0-.27.03-.21.05-.36.24-.38.44-.01.19.11.38.31.46.09.04.2.05.3.05,1.36,0,2.73,0,4.09,0Z"/>
      </g>
      <g>
        <path class="cls-1" d="m76.49,4.84v5.26h-9.37v27.42h-6.06V10.1h-9.37v-5.26h24.79Z"/>
        <path class="cls-1" d="m74.78,30.05c0-4.77,3.47-7.15,10.42-7.15,1.63,0,3.26.15,4.89.46v-1.81c0-2.15-1.55-3.22-4.64-3.22-2.62,0-5.53.38-8.73,1.14v-4.8c3.2-.76,6.11-1.14,8.73-1.14,7.13,0,10.69,2.64,10.69,7.91v16.09h-3.52l-2.15-2.15c-2.09,1.43-4.39,2.15-6.9,2.15-5.87,0-8.8-2.49-8.8-7.47Zm10.42-3.04c-2.91,0-4.36.99-4.36,2.97,0,2.13,1.22,3.2,3.66,3.2,2.01,0,3.88-.62,5.6-1.87v-3.84c-1.52-.3-3.15-.46-4.89-.46Z"/>
        <path class="cls-1" d="m107.98,25.52l-8.98-12h6.74l5.6,7.5,5.6-7.5h6.74l-8.96,12,8.96,12h-6.74l-5.6-7.5-5.6,7.5h-6.74l8.98-12Z"/>
        <path class="cls-1" d="m132.59,4.84v4.8h-6.06v-4.8h6.06Zm0,8.68v23.99h-6.06V13.52h6.06Z"/>
        <path class="cls-1" d="m164.93,36.15c-2.82,1.07-6.02,1.6-9.6,1.6-11.73,0-17.6-5.67-17.6-17.03,0-10.74,5.87-16.11,17.6-16.11,3.58,0,6.78.53,9.6,1.6v5.48c-2.82-1.22-5.87-1.83-9.14-1.83-7.85,0-11.77,3.62-11.77,10.85,0,7.85,3.92,11.77,11.77,11.77,3.27,0,6.32-.61,9.14-1.83v5.49Z"/>
        <path class="cls-1" d="m168.93,30.05c0-4.77,3.47-7.15,10.42-7.15,1.63,0,3.26.15,4.89.46v-1.81c0-2.15-1.55-3.22-4.64-3.22-2.62,0-5.53.38-8.73,1.14v-4.8c3.2-.76,6.11-1.14,8.73-1.14,7.13,0,10.69,2.64,10.69,7.91v16.09h-3.52l-2.15-2.15c-2.09,1.43-4.39,2.15-6.9,2.15-5.87,0-8.8-2.49-8.8-7.47Zm10.42-3.04c-2.91,0-4.36.99-4.36,2.97,0,2.13,1.22,3.2,3.66,3.2,2.01,0,3.88-.62,5.6-1.87v-3.84c-1.52-.3-3.15-.46-4.89-.46Z"/>
        <path class="cls-1" d="m202.06,4.84v32.68h-6.06V4.84h6.06Z"/>
        <path class="cls-1" d="m213.83,4.84v32.68h-6.06V4.84h6.06Z"/>
        <path class="cls-1" d="m229.67,13.52c7.28,0,10.92,3.72,10.92,11.15,0,.99-.07,1.98-.21,2.97h-15.93c0,3.38,2.48,5.07,7.45,5.07,2.42,0,4.84-.23,7.27-.68v4.8c-2.12.46-4.69.69-7.72.69-8.7,0-13.05-4.09-13.05-12.27s3.76-11.72,11.27-11.72Zm-5.21,9.92h10.24v-.18c0-3.32-1.68-4.98-5.03-4.98s-4.94,1.72-5.21,5.16Z"/>
        <path class="cls-1" d="m245.14,37.52V13.52h4.68l.75,3.06c2.1-2.04,4.33-3.06,6.67-3.06v4.89c-2.25,0-4.27.94-6.06,2.81v16.29h-6.06Z"/>
      </g>
    </g>
  </g>
</svg>